<?xml version="1.0" standalone="no"?>
<!DOCTYPE svg PUBLIC "-//W3C//DTD SVG 1.1//EN" "http://www.w3.org/Graphics/SVG/1.1/DTD/svg11.dtd" >
<svg xmlns="http://www.w3.org/2000/svg">
<metadata></metadata>
<defs>
<font id="janda_stylish_scriptregular" horiz-adv-x="298" >
<font-face units-per-em="1024" ascent="819" descent="-205" />
<missing-glyph horiz-adv-x="237" />
<glyph horiz-adv-x="0" />
<glyph unicode="&#xd;" horiz-adv-x="500" />
<glyph unicode=" "  horiz-adv-x="237" />
<glyph unicode="&#x09;" horiz-adv-x="237" />
<glyph unicode="&#xa0;" horiz-adv-x="237" />
<glyph unicode="!" horiz-adv-x="246" d="M181 181q0 -14 -9.5 -21.5t-20.5 -8.5t-19 4.5t-6 18.5q5 40 7 99t2.5 128t0 142.5t-0.5 143.5t0.5 131t3.5 105q0 13 14 17t30 2t27 -9t7 -17q-23 -165 -35.5 -351t-0.5 -384zM115 11q-4 6 -2.5 16.5t7.5 20t16 17t24 7.5q11 0 16 -7t6 -15q1 -17 -13.5 -33t-32.5 -16 q-14 0 -21 10z" />
<glyph unicode="&#x22;" horiz-adv-x="285" d="M80 504q0 8 -6 11.5t-12.5 8t-12.5 12.5t-6 25q0 21 11.5 33.5t33.5 12.5q27 0 37 -16t10 -41q0 -38 -20 -58.5t-48 -15.5q6 8 9.5 13t3.5 15zM196 522q0 8 -6 11.5t-12.5 8t-12.5 12.5t-6 25q0 21 11.5 33.5t33.5 12.5q27 0 37 -16t10 -41q0 -38 -20 -58.5t-48 -15.5 q6 8 9.5 13t3.5 15z" />
<glyph unicode="#" horiz-adv-x="778" d="M330 -57q4 40 13.5 81.5t21 81.5t23.5 78t21 71q-8 8 -34 17t-55.5 16t-56.5 11t-36 3l-58 -203q-5 -6 -14 -8.5t-17.5 -1t-15.5 8t-8 20.5l48 185q-11 0 -29 -1t-37 -6.5t-36 -17t-26 -32.5q-8 -7 -15 -2.5t-3 15.5q15 25 36 38t42.5 19t41.5 7.5t33 3.5l77 299 q-53 17 -104 5t-93 -40q-6 -4 -10.5 -1.5t-6.5 7t0 9.5t10 8q38 21 68.5 30t55.5 10.5t45.5 -1t39.5 -5.5l61 212q1 6 11 9.5t21 2t18 -9.5t3 -26q-16 -61 -26.5 -99.5t-17 -61t-9.5 -31t-3 -9.5l201 -60l68 215q10 27 22.5 29t21.5 -6.5t12.5 -20t-3.5 -12.5l-7 -24.5 t-12 -40t-14.5 -48t-14.5 -48t-11.5 -40t-5.5 -23.5q45 -20 97 -32.5t96 -1.5q6 1 9 -1.5t4 -6.5t-1.5 -8.5t-8.5 -6.5q-27 -4 -50 -3t-46.5 5.5t-49.5 13t-58 19.5l-84 -273q14 -10 39 -17.5t52.5 -11.5t55.5 -3.5t48 6.5q10 -1 11.5 -11.5t-10.5 -12.5q-59 -8 -109.5 -2.5 t-92.5 28.5q-12 -34 -25 -72t-24.5 -77.5t-21 -80t-15.5 -78.5q-1 -5 -9.5 -7t-18 0t-17 7t-7.5 14zM232 324q22 -1 47.5 -6t50 -11.5t47.5 -14.5t40 -15l87 279l-94 28t-105 27z" />
<glyph unicode="$" horiz-adv-x="469" d="M221 -23q-32 -1 -70.5 8.5t-70.5 32t-52 59t-14 90.5q2 17 9.5 24.5t15 7.5t13.5 -7t5 -19q-4 -37 6 -69.5t32 -57t54 -38.5t72 -13l28 428q-57 32 -99.5 80.5t-66 103t-26 110.5t19.5 103t71.5 79.5t130.5 41.5l2 27q0 9 4.5 12.5t9 3t8 -4.5t1.5 -11l-2 -28 q44 -5 71 -22.5t54 -50.5q1 -3 0 -8t-3.5 -7.5t-5 -2t-5.5 8.5q-23 34 -48.5 50t-63.5 18l-28 -495q54 -28 93 -68t60 -85t22.5 -91t-17.5 -86.5t-61 -72t-109 -45.5q-5 -1 -10 -1.5t-10 -1.5l-4 -65q-11 -14 -14 -6t-5 18zM241 -5q57 2 91 26t49 61t12.5 82.5t-18.5 90.5 t-43 86t-62 68zM278 923q-62 -19 -100 -55.5t-56 -83t-16.5 -97.5t19 -97.5t49.5 -85t76 -59.5z" />
<glyph unicode="%" horiz-adv-x="528" d="M361 110q0 20 6.5 44t19 45t31 35t41.5 14q21 0 31.5 -15.5t13 -38.5t-3 -50.5t-17 -51.5t-28.5 -41t-38 -20q-16 0 -26.5 7.5t-17 19t-9.5 25.5t-3 27zM457 230q-11 -2 -20.5 -26.5t-15 -55.5t-4.5 -59.5t12 -37.5q9 1 19 14.5t18.5 34t14 43.5t5.5 42.5t-6.5 32.5 t-22.5 12zM479 930q4 7 12 8.5t16 -2t14 -10t7 -14.5l-455 -905q-11 -9 -21 -9t-17 6t-9.5 16t3.5 19zM45 774q0 20 6.5 44t19 45t31 35t41.5 14q21 0 31.5 -15.5t13 -38.5t-3 -50.5t-17 -51.5t-28.5 -41t-38 -20q-16 0 -26.5 7.5t-17 19t-9.5 25.5t-3 27zM141 894 q-11 -2 -20.5 -26.5t-15 -55.5t-4.5 -59.5t12 -37.5q9 1 19 14.5t18.5 34t14 43.5t5.5 42.5t-6.5 32.5t-22.5 12z" />
<glyph unicode="&#x26;" horiz-adv-x="678" d="M495 943q0 14 13 14q11 0 17.5 -13.5t6.5 -32.5t-5.5 -39.5t-18.5 -34.5q43 -51 71 -102t45 -96q10 -26 19.5 -55.5t13.5 -59t2 -57.5t-14 -51q-10 -19 -20 -31.5t-24 -20.5q-20 -12 -46.5 -9.5t-44.5 22.5q3 -11 6.5 -28t2.5 -33.5t-8 -29.5t-25 -17q-19 0 -36 15 t-32 37t-28.5 48t-26.5 48t-25.5 36t-25.5 13q-21 -2 -30 -17.5t-9 -38.5t6.5 -52t15.5 -58t19.5 -56.5t18.5 -47.5q4 -7 2 -12t-5.5 -7.5t-7.5 -2t-5 5.5q-19 16 -36.5 40t-28.5 43q3 -14 8 -38.5t8 -51t2 -52.5t-11 -43q-9 -15 -21 -19t-23.5 -1t-20 10.5t-11.5 15.5 q-2 0 -7.5 -13.5t-14.5 -29t-23 -29t-33 -13.5q-22 1 -40 17.5t-30.5 41.5t-19 55t-5.5 58t10.5 51t28.5 33q10 5 23 7.5t24 0.5q-3 13 -0.5 20t7 9t10 -1t7.5 -10q41 -73 64.5 -114t36 -59t17.5 -18.5t8 6.5q5 11 5.5 35.5t-2.5 55.5t-8.5 63.5t-12.5 60.5q-6 21 -13 40 t-7 41q6 0 16 -14t19.5 -32t16.5 -34t9 -19q0 20 -5.5 53.5t-4.5 66t13 56t48 23.5q23 0 41 -14t32.5 -34.5t26.5 -45t23.5 -45t23.5 -34.5t27 -14q9 7 4 29t-14 51t-17.5 60.5t-7.5 57.5q2 55 29.5 93t85.5 43q-8 22 -20.5 47t-26.5 47.5t-27 41t-22 27.5q-17 -17 -35 -25 t-35 -9t-31.5 4t-24.5 15q-11 11 -17.5 26t-6.5 30t7.5 29t23.5 25q35 23 70.5 5t72.5 -58q19 23 20 49.5t-4 40.5q-3 -5 -10 -5q-13 0 -13 14zM581 625q-33 -1 -52 -24.5t-26.5 -57t-4 -70t15.5 -63.5q25 -56 75 -34q25 10 38 49q6 19 2 49t-12.5 61t-19 56t-16.5 34z M36 192q0 -18 5.5 -45.5t16.5 -53.5t28 -45t40 -19q12 0 20.5 8t13 19.5t6.5 24.5t2 22q0 14 -8 39t-21 49.5t-29.5 42.5t-34.5 18q-12 0 -19.5 -6t-12 -15t-6 -19.5t-1.5 -19.5zM362 885q-14 -7 -19.5 -18.5t-4.5 -24.5t7 -25.5t16 -21.5q19 -19 52 -17.5t59 32.5 q-7 9 -20 24.5t-28.5 29t-32 21t-29.5 0.5z" />
<glyph unicode="'" horiz-adv-x="6" d="M-23 495q0 8 -6 11.5t-12.5 8t-12.5 12.5t-6 25q0 21 11.5 33.5t33.5 12.5q27 0 37 -16t10 -41q0 -38 -20 -58.5t-48 -15.5q6 8 9.5 13t3.5 15z" />
<glyph unicode="(" horiz-adv-x="184" d="M15 467q0 57 10.5 125t32 136t53.5 129t74 105q8 4 11 -6t-5 -18q-23 -23 -45 -74t-39 -114.5t-27.5 -132t-10.5 -127.5q0 -62 2 -133t12.5 -138.5t32.5 -124t61 -89.5q11 -6 7 -13.5t-13 -5.5q-51 30 -82 82.5t-47.5 117.5t-21.5 137.5t-5 143.5z" />
<glyph unicode=")" horiz-adv-x="211" d="M196 483q0 -57 -10.5 -125t-32 -136t-53.5 -129.5t-74 -104.5q-8 -4 -11 6t5 18q23 23 45 74t39 114.5t27.5 132t10.5 127.5q0 61 -2.5 132.5t-13 139t-32 124t-60.5 89.5q-11 6 -7 13.5t13 5.5q51 -30 81.5 -82.5t47 -117.5t22 -138t5.5 -143z" />
<glyph unicode="*" horiz-adv-x="399" d="M111 204q1 19 8 34t15 29l16 28t10 29q0 11 -17 17.5t-38 12.5t-38 14t-17 23q33 0 64.5 -5t64.5 -5q10 37 16.5 61.5t10 38t5 18t3.5 3.5q9 -3 10.5 -20t3 -37t4.5 -37.5t15 -23.5q29 0 58.5 6t59.5 6q0 -16 -16 -24t-35 -14t-35 -13.5t-16 -20.5q0 -9 7 -22t15.5 -28.5 t16 -32.5t8.5 -34q-15 0 -30 15t-28.5 33.5t-25 33.5t-19.5 15q-11 -9 -22 -23.5t-23 -30t-25 -28.5t-26 -18z" />
<glyph unicode="+" horiz-adv-x="374" d="M208 371l108 1q10 1 10.5 -7.5t-10.5 -8.5l-109 -1l-4 -113q-1 -7 -7 -9.5t-12.5 -1.5t-11.5 5t-4 11l3 108l-107 -1q-14 0 -12 8t13 8l107 1l4 121q0 6 6.5 9t14 3t13 -4.5t3.5 -13.5z" />
<glyph unicode="," horiz-adv-x="180" d="M89 -13q0 8 -6 11.5t-12.5 8t-12.5 12.5t-6 25q0 21 11.5 33.5t33.5 12.5q27 0 37 -16t10 -41q0 -19 -6 -36.5t-16 -31t-23 -20.5t-27 -4q6 8 11.5 22t5.5 24z" />
<glyph unicode="-" horiz-adv-x="292" d="M106 293q-14 0 -12 8t13 8l152 8q7 0 11 -3.5t4.5 -8t-2.5 -8t-10 -4.5h-156v0z" />
<glyph unicode="." horiz-adv-x="115" d="M29 11q-4 6 -2.5 16.5t7.5 20t16 17t24 7.5q11 0 16 -7t6 -15q1 -17 -13.5 -33t-32.5 -16q-14 0 -21 10z" />
<glyph unicode="/" horiz-adv-x="500" d="M442 935q7 12 17 13.5t19 -3.5t13.5 -15.5t0.5 -23.5l-454 -911q-8 -5 -13 -4.5t-7.5 4.5t-3.5 9t0 10z" />
<glyph unicode="0" horiz-adv-x="621" d="M24 408q0 79 8.5 157t32.5 149.5t68 134.5t115 113q11 7 19 4t11.5 -11t1.5 -17.5t-11 -13.5q-57 -52 -91 -112.5t-52 -126.5t-23.5 -136.5t-5.5 -142.5q0 -32 2.5 -73.5t10.5 -84.5t22 -84.5t37 -74t55.5 -52.5t78.5 -21q58 0 101 28.5t73 75t48.5 105.5t29 120 t14 117.5t3.5 99.5q0 53 -10 116.5t-31.5 118t-57 90t-86.5 34.5q-52 -2 -93 -35.5t-66 -77.5q-3 -12 -7 -16t-7.5 -2.5t-5 7t1.5 11.5q14 25 32.5 48t41.5 40.5t49.5 28t55.5 10.5q42 0 74 -19.5t56 -51t40.5 -72t27 -82t15 -81t4.5 -68.5q0 -41 -5 -99t-18 -120.5 t-35 -124t-55.5 -110.5t-79.5 -79t-107 -30q-84 3 -138.5 42t-86.5 97.5t-44.5 130t-12.5 140.5z" />
<glyph unicode="1" horiz-adv-x="261" d="M18 0q-8 0 -5.5 8.5t9.5 6.5h59q17 137 28.5 237t18 173.5t10.5 126t6.5 93t5 74.5t7.5 71q-9 -11 -21.5 -23t-27.5 -24t-31 -21.5t-31 -13.5q-8 -2 -12 4.5t7 9.5q8 3 24.5 11.5t34.5 22t33.5 30.5t21.5 36l12 108q1 7 9.5 10.5t19 3t19.5 -4.5t10 -11 q-7 -107 -16 -223.5t-18.5 -235t-20.5 -234t-23 -220.5h96q7 1 5 -7t-10 -8h-220z" />
<glyph unicode="2" horiz-adv-x="745" d="M152 766q0 8 5 13t12 5q13 0 22.5 -13t14.5 -33t5 -42.5t-6 -42.5t-19 -33t-33 -13t-37 8.5t-30 23.5t-20 36t-5 45q3 55 37 98t82.5 73t103 45.5t98.5 15.5q65 0 113 -25t79.5 -67t47 -97.5t15.5 -116.5q0 -46 -19 -100t-50.5 -109.5t-73 -110t-86 -102t-90 -85 t-85.5 -59.5q39 -26 94 -50.5t115 -37.5q43 -9 90.5 -6t87.5 20t66 47t27 75q1 24 -9.5 46t-28 38.5t-40 26.5t-46.5 10q-31 0 -51.5 -17t-25 -37.5t9.5 -38.5t53 -21q4 1 5.5 -1t1.5 -5.5t-2.5 -6t-7.5 -0.5q-45 4 -61 26.5t-11 47.5t28 45.5t58 20.5q29 0 55 -10.5 t44.5 -29t29.5 -43.5t10 -53q-1 -46 -25.5 -78.5t-64 -51t-90 -23t-103.5 6.5q-56 11 -112.5 33.5t-108.5 54.5q-6 -4 -25 -10.5t-43 -11.5t-50 -8t-47 -1t-34 10.5t-11 26.5q3 28 28.5 38t58.5 8.5t66 -10.5t51 -18q33 23 72.5 60.5t78.5 83.5t75 98.5t64 104.5t44.5 101.5 t16.5 90.5q0 52 -12 105.5t-37 96.5t-63.5 70t-90.5 27q-33 0 -79.5 -13.5t-90 -39.5t-76.5 -64.5t-39 -87.5q-3 -22 2.5 -40.5t16 -32t25 -21.5t28.5 -8q22 0 32.5 16.5t12.5 38.5t-1.5 44.5t-10.5 34.5q-5 -9 -14 -9q-7 0 -12 5t-5 13zM27 75q-2 -10 9 -15t28.5 -5.5 t39 1.5t40.5 5.5t33 8.5t17 9q-18 11 -45.5 18t-53.5 8t-45.5 -6t-22.5 -24z" />
<glyph unicode="3" horiz-adv-x="587" d="M210 776q0 9 6.5 15.5t14.5 6.5q13 0 20.5 -9.5t1.5 -24.5q-8 -21 -26 -31.5t-36 -9t-32 16.5t-14 46q0 34 23 63t56.5 50t70 32.5t63.5 11.5q28 0 53 -6t43 -19.5t28 -34t9 -49.5q-2 -42 -22.5 -78.5t-49.5 -66.5t-63 -53.5t-63 -40.5q42 -12 92 -35.5t92.5 -61 t71.5 -89t29 -119.5q0 -65 -17.5 -118t-52.5 -91.5t-86 -59t-117 -20.5q-48 0 -99.5 21t-94 58.5t-70 90.5t-27.5 119q0 26 7 55t21.5 53t37.5 40t55 16q29 0 49 -13.5t31 -33.5t13 -43.5t-6 -43.5t-25.5 -33.5t-44.5 -13.5q-11 0 -12.5 8t9.5 9q22 0 36 10.5t20 26.5 t3.5 34.5t-12 35t-25.5 28t-39 12.5q-27 0 -45.5 -15.5t-30 -38t-17 -49t-5.5 -47.5q0 -53 22.5 -101t60 -84.5t86.5 -57.5t101 -20q48 1 87 26.5t66.5 63.5t42.5 83.5t15 86.5q0 68 -21.5 120t-56.5 88t-79.5 56t-90.5 24q-9 1 -13 6.5t-4 12t5 13t14 9.5q33 7 62.5 29.5 t51.5 53.5t35 68t13 75q0 35 -22 60.5t-61 25.5q-24 0 -55.5 -11t-60 -29.5t-48 -43.5t-19.5 -53q0 -21 6 -33t15 -16t20 0t20 16q-16 4 -16 21z" />
<glyph unicode="4" horiz-adv-x="592" d="M437 18q0 102 1 202.5t3 216.5q-38 -5 -69 3.5t-61 23t-61 31t-68 25.5q-20 -36 -49 -60.5t-56 -34t-46 -1.5t-17 38q1 20 16.5 34.5t36.5 24.5t44 14.5t40 4.5q9 17 19 47t19.5 65.5t18.5 73.5t16 72t13 60t9 38q3 10 12 15.5t19 5.5t18 -6t9 -18q-23 -94 -49.5 -183 t-67.5 -177q39 -11 71 -27t61.5 -29.5t59 -21t64.5 0.5q7 64 13.5 126t16.5 121.5t24 117t35 112.5q5 9 12.5 11.5t14 0t11.5 -9t4 -14.5q-16 -47 -28.5 -97t-23 -106t-18.5 -119t-14 -136q30 6 46.5 20.5t27.5 28.5q5 6 9.5 -1t2.5 -12q-7 -10 -18 -19t-23 -16t-24 -12 t-21 -6l-11 -434q0 -10 -6.5 -16t-14.5 -6.5t-14.5 6t-6.5 22.5zM34 467q-2 -15 12.5 -13t34 13t38.5 27.5t25 30.5q-8 1 -25.5 -3.5t-35.5 -12.5t-32.5 -19t-16.5 -23z" />
<glyph unicode="5" horiz-adv-x="573" d="M222 -1q-40 0 -72.5 13t-57.5 35t-42 50.5t-26 59.5q-7 24 -9.5 50.5t1.5 52.5t15.5 50t31.5 43q19 18 43 28t46.5 8t40 -19.5t24.5 -53.5q5 -23 2 -51q0 -3 -4 -4.5t-8.5 -0.5t-7.5 4t-3 9q0 2 1 16.5t-2 31.5q-5 28 -18.5 40t-31 12t-37 -10.5t-35.5 -26.5 q-32 -32 -37.5 -79t7.5 -93q8 -29 23.5 -55.5t39 -47t54 -32.5t68.5 -12q58 0 107.5 25t85.5 66.5t56.5 95t20.5 110.5q0 91 -35 149t-93.5 91t-134.5 45.5t-157 12.5q-8 0 -17 0.5t-16.5 6t-11 16.5t-0.5 32l8 261q0 11 5 17.5t13 0.5q47 -23 107.5 -37.5t124.5 -17 t125 8.5t108 38q3 6 7 5t6.5 -5.5t2 -10t-7.5 -7.5q-46 -24 -94.5 -35.5t-94.5 -14t-88 1.5t-75.5 10t-56.5 12.5t-31 9.5l-5 -261q54 -8 110.5 -13.5t110 -16.5t100 -30t81 -53.5t53.5 -87.5t16 -131q-3 -74 -31 -132t-74 -98.5t-106 -61.5t-125 -20z" />
<glyph unicode="6" horiz-adv-x="541" d="M262 -1q-60 0 -104 25.5t-74 68t-46.5 98.5t-21 117t2 124t23.5 119q11 36 30 78.5t45 86.5t58.5 85t70 73t79 51.5t86.5 19.5q40 -3 64.5 -19.5t37.5 -40t15.5 -49t-1.5 -46.5q-1 -7 -6 -10t-10.5 -2t-9 5.5t-1.5 11.5q6 18 5 39t-10.5 40t-28 33.5t-48.5 19.5 q-28 0 -57 -21.5t-57 -56t-53 -77t-46 -84t-36 -78.5t-22 -59q-12 -40 -23.5 -95t-16.5 -114.5t-1 -118t22 -104.5t52.5 -73.5t90.5 -25.5q10 0 27.5 5.5t36 15t35 23t26.5 30.5q-22 24 -35 73t-14 104q0 36 6 71t20 62.5t36.5 44t54.5 15.5q28 -1 43.5 -17t20.5 -42 t1.5 -59t-12.5 -69q-7 -27 -17.5 -54.5t-22.5 -52.5t-25 -46t-26 -36q-34 -39 -75 -64t-89 -25zM468 446q-26 1 -43 -14t-27 -40.5t-14 -58.5t-3 -67q2 -51 10.5 -95t21.5 -63q11 11 22.5 29t23 40.5t21 48t17.5 51.5q9 31 13.5 61t2 53.5t-13 38.5t-31.5 16z" />
<glyph unicode="7" horiz-adv-x="592" d="M251 1q-17 43 -22.5 102.5t-1 125t17 131.5t32.5 122q-13 6 -33.5 16t-42 15t-41.5 1t-32 -26q-6 -9 -12 -3t-1 13q16 28 39 33.5t48 0t48 -15.5t38 -12q28 64 58.5 114t62.5 91t66 76.5t69 71.5q-52 3 -95.5 12t-86 19.5t-87.5 19t-99 9.5q-37 0 -63.5 -9.5t-44.5 -27 t-28 -41t-14 -50.5q0 -7 -8.5 -7t-7.5 8q1 32 14 59t34.5 46t50 29.5t60.5 10.5q55 0 102 -8t93 -17.5t92.5 -17.5t100.5 -8q17 0 25 -5.5t-2 -21.5q-29 -45 -62 -89t-64.5 -89.5t-60 -94.5t-48.5 -104q15 -9 35 -15.5t40 -10t39 -3t32 6.5q4 1 7 -1t3 -6t-2 -7.5t-6 -3.5 q-19 -6 -40 -6t-41 4t-39 10.5t-35 13.5q-20 -66 -29.5 -126.5t-11 -116t4 -105.5t15.5 -95q3 -14 -6 -19.5t-21.5 -6.5t-24 2t-14.5 6z" />
<glyph unicode="8" horiz-adv-x="447" d="M236 846q0 10 7 16.5t16 6.5t15.5 -6.5t6.5 -16.5q0 -22 -16.5 -35t-37 -13.5t-38 12t-19.5 42.5q-2 29 16 49.5t45.5 30.5t60.5 10t61.5 -11.5t48.5 -35.5t21 -61q2 -71 -19.5 -119.5t-53 -83t-66 -59.5t-57.5 -49q41 -39 78 -73t64.5 -72t44 -82.5t16.5 -104.5 q0 -40 -13.5 -76t-39 -63t-62 -43.5t-81.5 -16.5q-47 0 -85 14t-65 39.5t-43.5 60t-19.5 74.5q-6 71 30.5 151.5t115.5 155.5q-58 51 -90 113t-35 123.5t23.5 117t84.5 93.5q15 10 24.5 6t-2.5 -10q-36 -49 -53.5 -96.5t-14 -95.5t29 -98t76.5 -104q25 20 59.5 47.5 t65.5 63.5t51.5 80.5t17.5 100.5q-1 33 -18 55t-41.5 33.5t-52.5 13t-52 -6t-40 -24.5t-16 -43q0 -16 7 -26t17 -14t21.5 -2t21.5 11q-6 2 -10.5 7.5t-4.5 13.5zM185 469q-37 -29 -65.5 -64.5t-47 -74t-26 -78t-3.5 -76.5q8 -66 53.5 -112.5t128.5 -51.5q39 -2 65 14 t42 42.5t22 59.5t6 65q-1 45 -16.5 84.5t-40.5 74t-56 64t-62 53.5z" />
<glyph unicode="9" horiz-adv-x="478" d="M204 -3q-41 0 -74.5 14t-57.5 37.5t-39 54t-18 63t6 64.5t32 59q4 5 10 10.5t15 6.5q13 0 13 -14t-13 -14q-5 0 -6 1.5t-3 3.5q-33 -36 -36.5 -83t17 -89t61 -70.5t94.5 -28.5t91 29.5t59.5 78.5t33 111.5t12.5 127.5q1 52 -1.5 104t-7 97t-10.5 81.5t-10 59.5 q-9 -31 -24.5 -64.5t-38 -62t-52.5 -47t-66 -18.5q-41 0 -74.5 15.5t-57.5 42t-37.5 61.5t-13.5 74t11.5 79t33.5 72.5t53.5 55t70.5 27.5q66 8 123 -24.5t90 -95.5q24 -45 40.5 -99.5t25.5 -113.5t11 -119.5t-2 -118.5q-5 -74 -23 -141t-50.5 -117.5t-79 -80t-108.5 -29.5z M181 923q-35 -6 -62 -28.5t-45 -55t-27.5 -71.5t-7.5 -78q1 -33 10.5 -63.5t28.5 -54t47 -37t66 -13.5q35 0 63 19t49 49t35.5 66.5t23.5 71.5q-5 31 -23 67t-43.5 66t-55.5 48.5t-59 13.5z" />
<glyph unicode=":" horiz-adv-x="201" d="M102 330q-4 6 -2.5 16.5t7.5 20t16 17t24 7.5q11 0 16 -7t6 -15q1 -17 -13.5 -33t-32.5 -16q-14 0 -21 10zM105 172q-4 6 -2.5 16.5t7.5 20t16 17t24 7.5q11 0 16 -7t6 -15q1 -17 -13.5 -33t-32.5 -16q-14 0 -21 10z" />
<glyph unicode=";" horiz-adv-x="174" d="M94 -8q0 7 -5 10.5t-10.5 7.5t-10.5 11.5t-5 22.5q0 20 10 31.5t28 11.5q23 0 32.5 -20t6.5 -43t-17.5 -41.5t-39.5 -16.5q5 8 8 12.5t3 13.5zM67 158q-13 14 -8 31t18 28.5t28.5 14.5t23.5 -11q10 -15 4.5 -30.5t-17.5 -26t-26 -13t-23 6.5z" />
<glyph unicode="&#x3c;" horiz-adv-x="313" d="M203 520q6 8 16 8t18 -5.5t10 -15.5t-8 -22q-7 -11 -26.5 -23.5t-45.5 -31.5t-55.5 -47t-57.5 -68l238 -100q5 -3 2 -14t-15 -8l-234 91q-9 0 -15 6t-8 14.5t0 18t9 15.5q9 9 31.5 30.5t48.5 48.5t51 55t41 48z" />
<glyph unicode="=" horiz-adv-x="431" d="M99 354q-14 0 -12 8t13 8l253 12q7 0 11 -5.5t4.5 -12t-2.5 -12t-10 -6.5zM97 275q-14 0 -12 8t13 8l253 12q7 0 11 -5.5t4.5 -12t-2.5 -12t-10 -6.5z" />
<glyph unicode="&#x3e;" horiz-adv-x="314" d="M108 211q-6 -8 -16 -8t-18 5.5t-10 15.5t8 22q7 10 26.5 23t45.5 32t55.5 46.5t57.5 68.5l-238 100q-5 3 -2 14t15 8l234 -91q9 0 15 -6t8 -14.5t0 -18t-9 -15.5q-9 -9 -31.5 -30.5t-48.5 -48.5t-51 -55t-41 -48z" />
<glyph unicode="?" horiz-adv-x="537" d="M98 32q0 13 11 20t24.5 7t25 -6.5t12.5 -20.5q0 -17 -11 -26t-24.5 -9t-25 9t-12.5 26zM108 156q1 6 1.5 34.5t-0.5 63t-3.5 67.5t-5.5 50q2 17 12.5 25t27.5 4q36 -7 73.5 0t72.5 25t65.5 44.5t53.5 57.5t36 65.5t13 67.5q0 48 -16.5 96t-47.5 86t-75.5 62t-101.5 24 q-24 0 -54.5 -9t-57.5 -27t-45 -45t-17 -63q0 -12 4 -29.5t13.5 -33.5t26 -27.5t43.5 -12.5q20 0 36 20t22.5 45t2 46t-26.5 23q-8 0 -13.5 -4t-9.5 -10t-6 -12.5t-2 -10.5l-9 3q0 6 2.5 13.5t7 14.5t11.5 12.5t16 5.5q27 3 43 -8t21.5 -29.5t1.5 -40t-17 -40t-34.5 -30.5 t-49.5 -10q-24 1 -42.5 11t-31 25.5t-18.5 35.5t-6 42q0 38 19 66.5t47 48t61 30t60 11.5q74 3 132.5 -18.5t99 -60.5t62 -93t21.5 -117q0 -66 -36.5 -119.5t-91.5 -91t-119.5 -56.5t-120.5 -16l-3 -208q0 -9 -6.5 -14.5t-15 -6t-16 3.5t-9.5 14z" />
<glyph unicode="@" horiz-adv-x="909" d="M47 410q0 70 11.5 142.5t35.5 139.5t61 125.5t88.5 102t117 68.5t147.5 25q70 3 126.5 -18t98.5 -59t70 -90.5t42 -113.5t13.5 -127t-14.5 -132q-5 -21 -16.5 -53.5t-28.5 -67t-38.5 -68.5t-44.5 -59.5t-47.5 -39t-48.5 -6.5q-12 3 -19 9.5t-10 22.5t-2 43.5t6 72.5 q-12 -19 -29.5 -35t-37.5 -28t-41 -18.5t-41 -6.5q-28 0 -50.5 10t-39 28.5t-25 45.5t-7.5 62q1 62 17.5 123t44 109t63.5 78t77 30q29 0 50.5 -14t34.5 -40q1 16 8.5 19t15.5 -2t14 -15t4 -20q1 -10 -2.5 -47t-8.5 -87.5t-10 -106.5t-8 -103t-2.5 -78t7.5 -31q22 0 42.5 17 t38.5 43.5t33.5 59.5t27 65.5t19.5 60t11 44.5q9 51 10 109t-9 115t-31.5 108.5t-56 90.5t-84 61.5t-114.5 20.5q-70 -6 -124.5 -38.5t-95.5 -81.5t-70 -111.5t-48.5 -129t-30.5 -133t-16 -124.5q0 -72 14.5 -137t48 -114.5t88 -78.5t134.5 -29q72 -6 148.5 17t148.5 69.5 t136 113.5t111 149q2 6 5.5 5.5t6 -4t2.5 -8t-4 -7.5q-45 -82 -110.5 -149.5t-141.5 -115t-157 -71.5t-157 -18q-91 0 -158 33t-111.5 89t-66 130.5t-21.5 158.5zM533 707q-37 -2 -64.5 -36.5t-45.5 -85t-25 -108.5t-3.5 -107t19.5 -82t44 -32q33 0 56.5 20.5t40 52.5 t26.5 71.5t15.5 79t7 74t1.5 56.5q1 12 -3.5 29.5t-14 32.5t-23.5 25.5t-31 9.5z" />
<glyph unicode="A" horiz-adv-x="840" d="M421 493q-6 -40 -15.5 -88.5t-24 -97t-35 -94.5t-49 -82t-65.5 -58.5t-85 -24.5t-79 27t-44.5 73.5t-11 96.5t19.5 97.5t49 76t77 31.5q25 0 41.5 -9t26.5 -24.5t14 -37t4 -45.5q-3 -12 -12.5 -13t-8.5 13q0 21 -2 40t-9 33.5t-20.5 23.5t-36.5 9q-28 0 -48.5 -28.5 t-32.5 -71t-14 -92.5t7 -92t30 -69t55 -25q33 2 61 27t51 64t42 87t34 96.5t26 92.5t20 74l-82 11q-6 2 -1.5 9t15.5 6l71 -10l92 399q4 12 12 17.5t15.5 5t12.5 -6t4 -13.5q4 -46 8 -93t8.5 -97t10 -105.5t13.5 -118.5q32 0 55 7.5t39 16.5t25 16.5t12 7.5q4 3 8.5 4t8 0.5 t4.5 -2.5t-2 -6q-34 -31 -68.5 -46t-78.5 -17q2 -26 5 -63t7 -78q7 -74 12.5 -151t22.5 -152q7 -32 18.5 -60.5t30.5 -47.5q17 -17 36 -21t38 1q28 7 49 36q23 33 38.5 86.5t26 112t18 114t14.5 93.5q5 6 11 5t4 -14q-8 -42 -15.5 -98t-18 -113.5t-26 -110t-39.5 -86.5 q-21 -30 -55 -41q-23 -8 -49.5 -5.5t-52.5 13.5q-31 15 -52 43.5t-32 66.5q-4 15 -7.5 32t-7 49t-8 86t-10.5 144l-11 160zM424 513l90 -5l-18 332z" />
<glyph unicode="B" horiz-adv-x="918" d="M248 659q-1 6 3.5 11t11.5 5q9 1 14 -6.5t0 -18.5q-14 -26 -41.5 -39.5t-56.5 -16.5q-43 -4 -80 8t-59 37t-25.5 60.5t19.5 79.5q20 39 55 65.5t79 44.5q34 13 72 21t75.5 12t72.5 5t64 0q19 104 76 152.5t130 40.5q37 -5 58.5 -29t25.5 -54t-10.5 -57.5t-49.5 -38.5 q-20 -5 -39.5 0.5t-35.5 28.5q-5 5 0 9t10 0q14 -17 30 -22t30 0q28 8 39.5 30.5t8.5 47.5t-18.5 45t-42.5 24q-32 5 -60 -6.5t-49.5 -35.5t-35.5 -58.5t-18 -76.5q58 -4 115 -20.5t102 -45.5t72 -69.5t26 -91.5q-1 -45 -22 -87t-51 -77t-65 -60.5t-63 -37.5q18 -1 45.5 -6 t58 -13.5t61.5 -22t56.5 -31.5t42.5 -41.5t20 -52.5q4 -36 -13.5 -69t-48.5 -62t-71.5 -53t-82.5 -41.5t-82.5 -28.5t-70.5 -14q-26 -2 -57 -2.5t-57 -3.5q-14 -18 -37.5 -36t-51.5 -32.5t-57.5 -24.5t-56.5 -12q-27 -3 -58 2.5t-58.5 19.5t-47.5 38.5t-23 59.5 q-3 40 19.5 68.5t58 42.5t76.5 13t75 -19q8 -2 8 -9.5t-8 -5.5q-29 12 -65.5 15.5t-69 -6t-54.5 -33.5t-22 -65q2 -24 18.5 -44t40 -33.5t49 -20.5t46.5 -5q51 5 94.5 35t70.5 74q-10 7 -18.5 13.5t-14.5 15.5t-10 23t-6 37q-1 5 1 8t5 3.5t5.5 -1.5t2.5 -7q1 -5 2 -16.5 t4.5 -23.5t11 -22t21.5 -12q4 11 9 38t10.5 61t10.5 72.5t9 72.5t7 60t4 37q-4 -1 -22 -4t-37.5 -3t-34.5 4.5t-15 18.5q0 13 13 21.5t31.5 14.5t37.5 9.5t31 5.5q4 52 8 113t8 122.5t8 120.5t7 108q-27 3 -62 3t-73 -4t-75 -11.5t-68 -19.5q-39 -16 -73.5 -42t-55.5 -71 q-16 -34 -11.5 -64.5t24 -52t51.5 -33t70 -7.5q28 2 47 10.5t35 28.5q-13 2 -13 13zM429 21q0 -5 13.5 -6.5t30.5 -1.5t33.5 0.5t23.5 1.5q51 4 105.5 23.5t99 53.5t71 82t20.5 110q-3 33 -27.5 58t-59 42.5t-73 27.5t-70.5 12q-27 -13 -57 -20.5t-63 -15.5 q-8 -104 -15.5 -170t-13.5 -106t-11 -60t-7 -31zM478 449q7 0 21.5 -0.5t30.5 -1t32.5 -2t28.5 -3.5q25 12 53 35t52 54.5t40.5 69.5t18.5 80q3 62 -15.5 102t-52.5 65t-82 37.5t-105 20.5zM420 429l-21 -3.5t-30.5 -6.5t-28.5 -9.5t-15 -12.5t9.5 -8.5t27.5 -0.5t32 3t23 4 zM476 407q16 2 43 8t48 14q-23 2 -43.5 3t-45.5 1z" />
<glyph unicode="C" horiz-adv-x="612" d="M670 310q-13 -27 -34.5 -63.5t-49.5 -76t-61.5 -79t-70.5 -71.5t-76 -53.5t-78 -24.5q-57 -5 -100.5 10.5t-75 44t-52 67t-33 80t-17.5 83t-5 75.5q0 50 7.5 116.5t24 137.5t43 139.5t65.5 122.5t91.5 87.5t119.5 33.5q34 0 65.5 -10t57.5 -29t44.5 -45.5t27.5 -60.5 q9 0 22 -2.5t26 -7.5t24.5 -13t16.5 -20q3 -7 -1.5 -11.5t-9.5 3.5q-7 16 -28.5 26.5t-47.5 8.5q1 -25 -2 -62t-15 -71.5t-33.5 -59.5t-55.5 -25q-29 0 -41.5 15.5t-12.5 39t11 52t30 54.5t44.5 46t54.5 27q-7 30 -22.5 52t-37 36t-48 20.5t-54.5 6.5q-57 0 -101.5 -32.5 t-77 -85t-54.5 -118.5t-35.5 -132.5t-19.5 -127.5t-6 -104q0 -35 4.5 -75t15 -79t28 -75t43 -62.5t60 -41t79.5 -11.5q31 2 67 24.5t72.5 57.5t71.5 78.5t64.5 86.5t51 82t30.5 66q2 6 3.5 1.5t1.5 -14t-2.5 -20.5t-8.5 -17zM455 574q20 -2 38 12t31 40.5t20 64.5t5 85 q-17 0 -36 -14.5t-35.5 -36.5t-29 -48t-17 -48t0.5 -38t23 -17z" />
<glyph unicode="D" horiz-adv-x="967" d="M930 475q5 -82 -19 -165t-69 -154t-107.5 -123.5t-134 -73.5t-147 -4t-147.5 85q-29 -24 -69.5 -38.5t-81.5 -15.5q-32 -1 -61.5 7.5t-50.5 27t-31 48.5t-4 73q3 11 9.5 9.5t5.5 -11.5q-5 -29 3.5 -48.5t26 -31t41.5 -15.5t51 -1q32 3 63.5 14.5t57.5 29.5 q-8 18 -11.5 42t2.5 47t24 42.5t52 29.5q11 2 13.5 -4.5t-6.5 -8.5q-12 1 -28.5 -8t-28.5 -27t-15.5 -43.5t10.5 -58.5q39 29 70 84t56.5 124t47 146t42.5 149t43 133.5t47 99.5q-36 11 -80.5 16.5t-91 3t-91 -13.5t-80 -33.5t-58.5 -57t-27 -84.5q0 -31 11.5 -58.5t32 -48 t47.5 -32.5t58 -12q35 0 57.5 21t22.5 55q0 8 -3 18.5t-8 19.5t-13.5 15.5t-18.5 6.5q-5 -2 -8.5 1t-4.5 7t0.5 7.5t6.5 2.5q13 0 25 -8t21 -19.5t14.5 -25t5.5 -25.5q0 -44 -29 -67.5t-70 -23.5q-33 0 -63 13t-52.5 35.5t-35.5 53t-13 64.5q5 55 29.5 92.5t62 61t84.5 34.5 t96 13.5t96.5 -2.5t87.5 -13q30 48 64 79.5t68.5 49t69 21.5t65.5 -2q36 -8 59 -35.5t28 -59t-8.5 -59.5t-49.5 -35q-20 -4 -39 4t-33 31q-4 6 1 9.5t10 -1.5q13 -18 28.5 -24t29.5 -3q28 6 38 28.5t5.5 49t-22 49.5t-43.5 30q-28 7 -60 2t-64.5 -22.5t-62 -47.5t-53.5 -73 q55 -22 108 -57t95 -81.5t69 -104.5t32 -125zM317 50q54 -48 107.5 -66t103.5 -11.5t96 34t85.5 69t71 94t53 109t32.5 113.5t9 109q-3 59 -23.5 110t-55 92.5t-80.5 72.5t-100 49q-20 -44 -35 -107.5t-30.5 -136.5t-33.5 -149.5t-44.5 -148t-64 -132.5t-91.5 -101z" />
<glyph unicode="E" horiz-adv-x="598" d="M661 367q4 0 5.5 -3.5t1.5 -9t-1 -10.5t-2 -7q-11 -42 -39.5 -88t-68.5 -90t-89 -82t-101 -63.5t-104 -34.5t-99 5q-60 18 -97 65t-52.5 107.5t-9.5 127.5t31 124.5t69.5 97.5t106.5 47q-27 58 -32 120t11.5 115.5t53.5 92t94 50.5q30 7 60 3t56 -17.5t47 -37t35 -56.5 q27 6 42 -1t22 -20t7 -27.5t-4 -24.5q-3 -8 -7 -10t-7 -1t-4.5 4t0.5 6q1 1 3.5 12.5t0 23t-12 19t-33.5 0.5q9 -37 7 -70.5t-13 -56.5t-29 -32t-40 4q-26 15 -30 40t5 50t26.5 46t35.5 28q-11 26 -29 48t-39.5 35.5t-47 17.5t-51.5 -5q-44 -15 -70.5 -52t-37 -86.5t-7 -106 t18.5 -110.5q31 -5 53 -16t22 -33q0 -35 -34 -33q-12 1 -22 7.5t-18 16t-13.5 19.5t-9.5 17q-38 -16 -66.5 -51t-45.5 -80.5t-21 -97t6 -100t34.5 -90t65.5 -65.5q40 -24 86.5 -22.5t94.5 21t94 54t85 78t67 92t40 96.5zM512 794q-19 -11 -32.5 -30t-19.5 -38.5t-3 -36.5 t17 -23t24 6.5t14.5 33.5t4.5 45.5t-5 42.5zM245 531q5 -14 17.5 -28.5t24.5 -13.5q13 1 13 13q0 7 -6.5 12.5t-15.5 9.5t-18 5.5t-15 1.5z" />
<glyph unicode="F" horiz-adv-x="797" d="M25 118q0 67 26 133q12 32 33.5 62t49.5 52t62 33t73 5q31 -5 50 -28t10 -71q-4 -19 -12.5 -37t-21 -32.5t-28 -24t-33.5 -11.5q-4 0 -7 5t1 9q16 -1 31 7t27 22t20.5 32t10.5 37q5 40 -10.5 58.5t-41.5 21.5q-38 5 -69.5 -6.5t-56.5 -32.5t-43.5 -49.5t-30.5 -58.5 q-24 -62 -24 -126q0 -33 8 -68t25 -63.5t45 -46.5t67 -17q36 1 69 21.5t62.5 54.5t55.5 79t48 95t40.5 102.5t32.5 102.5q-5 4 -20.5 21t-35 33t-38.5 25t-30 -3q-8 -8 -5.5 -20t13.5 -14q8 -2 7.5 -8.5t-8.5 -5.5q-21 4 -24 24t9 33q13 14 32.5 7.5t40 -21t38.5 -31.5 t27 -24q16 58 30.5 114.5t27.5 107.5t24.5 93t21.5 71q-38 5 -68 20.5t-58.5 32t-58 30t-66.5 14.5q-24 0 -52 -5.5t-53 -19t-44 -36t-25 -56.5q-5 -29 6 -47t30.5 -25.5t44 -5.5t46 12.5t36 29t14.5 43.5t-12.5 33.5t-28 5t-28.5 -18t-14 -36.5q-1 -6 -7 -6t-5 8 q1 26 18.5 43t37.5 20.5t36 -8.5t16 -42q0 -29 -16 -51.5t-39.5 -35.5t-51 -16.5t-51 5t-39 30t-15.5 57.5q0 37 17 67.5t44 52.5t61 34t67 12q42 -1 74.5 -15t62 -33.5t59.5 -39t68 -31.5q19 36 40.5 58t42 34.5t39 17t30.5 3.5q26 -2 34.5 -20.5t3.5 -40.5 q-10 -39 -51 -61q-25 -13 -51 -15.5t-46 -1.5q-8 -26 -17 -70t-21 -100t-26 -121.5t-32 -134.5q4 -5 15.5 -19t29.5 -29t41.5 -26.5t51.5 -9.5q33 2 55.5 10.5t39.5 22t31.5 32t32.5 39.5q5 1 6.5 -3.5t-0.5 -8.5q-30 -45 -71 -75t-96 -30q-32 0 -55.5 10.5t-40 24.5t-27 27 t-16.5 18q-9 -38 -25 -84.5t-38.5 -94.5t-51.5 -93.5t-64 -81t-76 -57.5t-87 -23t-81 16.5t-58 48t-35 70.5t-12 84zM741 805q17 8 28.5 20.5t15.5 34.5q2 14 -2 25t-19 10q-16 -1 -32.5 -11.5t-31 -26t-26 -33t-17.5 -31.5q15 0 38 0.5t46 11.5z" />
<glyph unicode="G" horiz-adv-x="552" d="M429 673q-8 0 -11.5 6t-0.5 14q-14 1 -25.5 -13.5t-15.5 -32.5t2 -33t28 -15q34 0 58 23t36.5 57.5t13 74.5t-12 74.5t-38.5 57.5t-67 24q-42 0 -83 -26.5t-77.5 -72t-66.5 -105.5t-51 -126t-31 -133.5t-5 -127.5q3 -44 14.5 -82t32.5 -67t52 -48t73 -24q33 0 65.5 14.5 t62 37t53.5 49.5t40 54v66q0 8 3.5 10t8.5 2q9 0 15.5 -8t8.5 -16q1 -13 4.5 -45t6 -76t2 -95.5t-6.5 -103.5t-20.5 -100.5t-40.5 -86t-64.5 -60t-93.5 -22.5q-28 0 -51.5 9t-41 26.5t-27 41.5t-9.5 54q0 53 32 89t78.5 58.5t99 35t93.5 18.5l3 167q-20 -25 -47 -50.5 t-58.5 -46.5t-66 -34t-69.5 -13q-55 0 -96 15.5t-69 43t-43 65.5t-17 83q-4 78 9.5 156.5t39.5 150.5t63 134t81.5 108t93.5 72.5t99 26.5q46 0 76 -25t44 -62.5t13.5 -81.5t-15 -81.5t-42 -62.5t-66.5 -25q-28 0 -36 20t-2 42.5t22.5 40t38.5 12.5q16 -3 16 -16 q0 -6 -3.5 -11t-11.5 -5zM185 -148q0 -24 7.5 -46t21.5 -38.5t34 -26.5t45 -10q29 0 53.5 16t44.5 41.5t34.5 58t24.5 66t15 65t5 55.5q-45 -1 -95 -13.5t-92.5 -36t-70.5 -56.5t-27 -75z" />
<glyph unicode="H" horiz-adv-x="904" d="M136 -8q-37 8 -63 31.5t-41.5 56.5t-20.5 71t0.5 75t21 69.5t41.5 53.5q20 16 46.5 23.5t51 3.5t42.5 -21t23 -49q4 -28 -9 -51.5t-45 -27.5q-8 -2 -10.5 5t5.5 10q27 0 37.5 20.5t6.5 43.5q-5 27 -20.5 40.5t-36 16.5t-43 -4t-40.5 -22q-25 -20 -38.5 -50t-17.5 -64 t1.5 -69t19 -65t35 -51.5t50.5 -27.5q17 -3 34 -0.5t35 15t35.5 38.5t35.5 69.5t36 107t36 152.5q-20 -2 -34.5 2.5t-24 12t-15 16t-8.5 16.5q-4 10 4.5 13t10.5 -4t6.5 -15.5t13 -15.5t21 -10.5t29.5 -0.5q3 12 9 51.5t14 93t16 113t14.5 111.5t10.5 88.5t3 43.5 q-33 -2 -79 -0.5t-91 -5.5t-81.5 -27t-48.5 -64q-7 -35 12 -60t53 -32q19 -4 38 -1t34.5 12t27 25t16.5 38q1 7 8 6t3 -12q-5 -23 -18 -40t-31 -27.5t-39.5 -14t-43.5 1.5q-41 8 -63 36.5t-13 71.5q11 34 32 54.5t48.5 32t59 15.5t63 4.5t61.5 -0.5t54 1q2 27 10.5 55t23 49 t35 31t45.5 0q27 -11 32.5 -35t-4 -49t-31.5 -44.5t-49 -20.5q-3 -20 -8.5 -57.5t-12 -84.5t-13.5 -99t-14 -100t-13.5 -89t-10.5 -65q25 2 54.5 8t58 12.5t54 13t43.5 9.5q22 108 44.5 183.5t45 125t44.5 76.5t42 39.5t37.5 14.5t31.5 0q23 -3 36 -15.5t17 -30t0 -36.5 t-14 -35q-11 -18 -32.5 -26t-45.5 -4q-9 1 -6.5 8.5t8.5 5.5q20 -5 39 2t30 25q8 13 11 28t0 28.5t-13 23.5t-28 13q-20 3 -39.5 -10t-41 -57t-46.5 -127.5t-57 -222.5q18 1 37.5 -0.5t36.5 -7t30.5 -16t19.5 -27.5q3 -8 -2.5 -11.5t-10.5 4.5q-8 19 -33.5 32t-80.5 9 q-3 -16 -11 -57t-15 -93t-10.5 -108.5t2 -103t22 -76t50.5 -28.5q29 1 57.5 25.5t54 62t47.5 82.5t38.5 87.5t26.5 76t13 47.5q1 4 3.5 4t5 -3t3.5 -9t-1 -13q-7 -21 -19.5 -57t-30 -77.5t-40 -84t-48.5 -77t-56 -56.5t-62 -22q-50 0 -77.5 27t-39 70.5t-11 96.5t7 105.5 t15 98.5t13.5 74q-51 -11 -103 -23t-108 -21q-16 -103 -36.5 -174t-43 -117.5t-47 -71t-48.5 -35t-47.5 -10t-44.5 4.5zM528 1043q-14 5 -22.5 -8.5t-14 -34.5t-8 -43.5t-3.5 -34.5q23 1 40 17.5t24.5 37.5t4.5 40.5t-21 25.5z" />
<glyph unicode="I" d="M92 655q-1 -10 -5 -14t-9 -5t-9.5 1.5t-6.5 6.5q-7 14 0.5 22t22.5 8q18 -2 28 -16.5t10 -25.5q-1 -27 -19 -38.5t-40 -8.5t-40.5 20.5t-20.5 49.5q0 32 19 50t46.5 26.5t57 11t50.5 4.5q-2 87 13 134t59 51q18 1 28 -11t13.5 -31.5t1 -43t-10.5 -45.5t-21 -39t-29 -23 q3 -42 5.5 -106.5t4 -140t2 -155.5t-1 -152t-4.5 -130t-8 -89q0 -8 -14 -11.5t-30 -2.5t-27.5 6t-6.5 15q12 82 19.5 176t11 192t3 196.5t-6.5 189.5q-18 0 -45 -0.5t-52 -7.5t-43 -22t-18 -45q1 -19 14 -32.5t29 -18t30.5 2t17.5 28.5q0 3 -2.5 12t-15.5 11zM248 919 q-11 -1 -16 -22.5t-6.5 -48.5t-1 -53.5t2.5 -37.5q11 3 21 16.5t16.5 32t9.5 39t1.5 37.5t-8 27.5t-19.5 9.5z" />
<glyph unicode="J" horiz-adv-x="652" d="M268 -265q-60 0 -103.5 33.5t-63.5 87.5q-17 45 -15 98t26 110q23 55 55.5 93t74.5 65.5t92 48t108 41.5q11 87 22 201t23 264q-59 0 -113 14.5t-99 26.5q-33 9 -73 8.5t-72 -15.5q-47 -22 -63.5 -68t-11 -101.5t29.5 -114t58 -106.5t74 -78.5t78 -30.5q19 0 39 7.5 t36 20.5t26 31.5t10 39.5q-9 -6 -15.5 -2t-9 12.5t-0.5 17.5t10 13q18 9 27.5 -5t9.5 -33q0 -27 -11.5 -47.5t-30 -35.5t-42.5 -23t-49 -9q-46 -2 -92.5 31.5t-84 86.5t-62.5 117t-27 124t23 107.5t86 66.5q34 11 68.5 10.5t74.5 -9.5q25 -6 51 -13.5t53 -13.5t54 -9t53 -1 q1 17 6 41.5t10 38.5q9 26 21.5 42t26.5 22.5t27.5 3t24.5 -16.5q13 -17 13 -41t-9.5 -47t-26.5 -40.5t-38 -21.5q-6 -137 -12 -245.5t-14 -193.5q11 3 35 7.5t51 8.5t52.5 8t39.5 7q8 2 10.5 0.5t2 -4.5t-3 -6t-4.5 -3q-6 0 -30.5 -3.5t-53.5 -8.5t-57 -10.5t-43 -9.5 q-11 -114 -33.5 -220.5t-54.5 -188t-73.5 -131t-90.5 -49.5zM235 -232q33 0 63.5 43t57.5 116t48.5 169t35.5 201q-53 -19 -100.5 -39t-88 -48t-73 -66.5t-54.5 -93.5q-23 -56 -21.5 -111t22.5 -99q16 -32 43 -52t67 -20zM595 921q-13 -1 -21.5 -16.5t-13 -36t-7 -40.5 t-3.5 -30q17 6 30.5 22t20.5 35t6.5 37t-12.5 29z" />
<glyph unicode="K" horiz-adv-x="1017" d="M505 470q-6 -5 -15.5 -9.5t-19.5 -8t-19 -7t-13 -5.5q2 -113 -10 -196t-33 -140.5t-47.5 -93t-55 -55t-56 -26.5t-48.5 -7q-34 0 -66.5 11.5t-58 33.5t-41.5 54t-16 73q0 21 6.5 44t19.5 42.5t32 32t43 12.5q26 0 37.5 -16.5t12 -38t-8.5 -43.5t-24 -32q-4 -2 -8.5 2 t2.5 10q14 10 21 28t5.5 35.5t-11 30.5t-28.5 13q-21 0 -36.5 -12t-26 -30t-16 -38.5t-5.5 -36.5q0 -38 14 -67t37.5 -49t53.5 -30.5t62 -10.5q46 0 78 30.5t53 78.5t32.5 105.5t17 112.5t6.5 100.5t1 67.5q-9 0 -22.5 3t-26 9t-21 15.5t-8.5 23.5t8 23.5t20 15.5t25.5 9 t24.5 5q1 25 2.5 71t2.5 96t3 95t5 66q-10 10 -26 21t-34.5 19.5t-37.5 14t-36 5.5q-26 1 -49.5 -7.5t-41.5 -24.5t-28.5 -38t-10.5 -49q0 -32 17.5 -51t47.5 -20q17 -1 35.5 17.5t23.5 58.5q1 11 8.5 8t4.5 -11q0 -16 -5.5 -31.5t-15.5 -27.5t-23.5 -19.5t-28.5 -7.5 q-36 0 -58 24t-22 59q0 62 39.5 99.5t105.5 36.5q24 0 44 -6.5t37.5 -15.5t31.5 -18.5t25 -16.5q15 61 49.5 99.5t88.5 38.5q14 0 27 -7t22 -17.5t14 -23.5t4 -26q-2 -30 -17 -52.5t-36.5 -37t-48 -20t-52.5 0.5q-2 -24 -3.5 -68t-2.5 -91.5t-1 -88.5t2 -59q9 -2 19.5 -6.5 t20.5 -10t17.5 -10t10.5 -7.5q43 20 81.5 54t65.5 97q17 40 36 86.5t46 86t65 65.5t92 26q52 0 80.5 -34t28.5 -84q0 -15 -2.5 -31t-9.5 -30t-19 -23t-31 -9q-9 0 -8.5 6t8.5 8q27 0 39 25.5t11 56.5q0 44 -26.5 74t-69.5 30q-38 0 -62 -22.5t-39.5 -55.5t-26 -69.5 t-22.5 -64.5q-21 -49 -45.5 -82t-51.5 -56t-57 -38.5t-61 -30.5q53 -41 82.5 -79t48 -78.5t31.5 -86t33 -102.5q13 -38 24 -70.5t26.5 -55t41 -33t67.5 -4.5q28 4 52.5 31t44.5 66.5t35.5 85.5t26.5 88t16.5 74t5.5 43q2 4 4 -1t3.5 -14.5t2 -20t-0.5 -17.5 q-4 -22 -10.5 -56t-16.5 -72t-24 -76.5t-32.5 -70t-43 -53t-54.5 -25.5q-52 -6 -89 1.5t-63.5 28.5t-43.5 55t-30 81q-4 15 -14 56.5t-28.5 93t-47 104.5t-70.5 92zM317 483q0 -8 7 -13t16.5 -8t19.5 -4t16 0v60q-7 0 -17 -2t-19.5 -6t-16 -11t-6.5 -16zM438 461q13 5 28 11 t22 14q0 3 -6.5 8t-14.5 9.5t-16.5 7.5t-12.5 3v-53zM444 858q20 -6 43.5 -2t44 16.5t34.5 31.5t14 43q0 10 -2 20.5t-8 19.5t-15.5 14.5t-24.5 5.5t-30.5 -18.5t-27.5 -43t-19.5 -49.5t-8.5 -38z" />
<glyph unicode="L" horiz-adv-x="853" d="M324 40q-65 -47 -118.5 -54t-93 11t-63.5 53t-30 73q-5 27 1.5 51.5t23 42t41.5 25.5t57 2q35 -7 79 -35t93 -79q19 27 33.5 69t25.5 92t19.5 105t15 109t11 104t9.5 90q-38 -5 -88.5 -3.5t-95.5 15t-76 42t-31 76.5q0 35 21.5 58t50.5 30q7 4 7.5 -2.5t-3.5 -6.5 q-24 -9 -42.5 -26.5t-20.5 -52.5q-2 -43 28.5 -68.5t74.5 -37.5t92.5 -13t82.5 5q8 64 31.5 114t55.5 81.5t69.5 40.5t75.5 -10q17 -9 20 -27t-4.5 -40.5t-24 -47.5t-39.5 -47q-25 -25 -54.5 -41.5t-62.5 -28.5q-11 -87 -19 -174.5t-20.5 -168.5t-35 -153t-62.5 -130 q31 -33 65.5 -63.5t73.5 -50t83 -24.5t92 12q30 10 59 39t55 67.5t47.5 82.5t37.5 86.5t25.5 78t10.5 57.5q5 6 6 -2.5t2 -12.5q-4 -33 -15 -74.5t-27.5 -85.5t-39.5 -86.5t-49.5 -78.5t-57.5 -61.5t-65 -34.5q-48 -13 -95.5 -11.5t-91 16t-82 41t-68.5 62.5zM285 88 q-42 62 -84 99t-75 43q-23 4 -41 -2t-29 -20.5t-14 -34.5t3 -43q8 -28 29 -55t52.5 -39t71.5 -2.5t87 54.5zM654 932q-21 10 -46.5 -3t-48.5 -42.5t-40.5 -70.5t-21.5 -87q62 18 107 63q20 20 35 42.5t22.5 42t6 34.5t-13.5 21z" />
<glyph unicode="M" horiz-adv-x="1103" d="M661 589q-41 -64 -70 -108.5t-48.5 -75t-31 -48.5t-17.5 -28.5t-8 -15t-2 -8.5q16 -38 32.5 -74.5t26.5 -82.5q6 -27 7 -51.5t-5 -44.5t-19.5 -33t-37.5 -16q-44 -5 -64 22.5t-23.5 70t6.5 89.5t26 81l-110 201q-7 -29 -11.5 -77.5t-11 -104t-16.5 -113t-28 -104.5 t-46 -77.5t-69 -33.5q-34 -2 -56.5 16.5t-36 47t-19.5 61.5t-6 59q0 20 5 44.5t16 46t28.5 36t43.5 14.5q30 0 44 -23t14 -50q0 -20 -12.5 -38.5t-29.5 -20.5q-1 0 -3.5 2t-2.5 4q11 5 25 19.5t14 38.5q0 9 -3 19.5t-9 19.5t-14.5 14.5t-20.5 3.5q-16 -3 -25 -18.5 t-13.5 -36t-5.5 -42t-1 -34.5q0 -19 3.5 -45.5t12.5 -50.5t24.5 -40.5t39.5 -13.5q29 3 49.5 30.5t35 70.5t24.5 97t17 110t13 109t13 94q-28 44 -51 98.5t-36 108.5q-12 48 -14 92t9.5 76.5t37.5 50t71 12.5q23 -2 35 -20t16 -46t1.5 -64.5t-8 -77.5t-12 -84t-10.5 -84 l128 -236l181 284q-18 60 -25.5 118t1 102t35 67t74.5 13q31 -7 38 -36.5t-0.5 -68.5t-25.5 -80.5t-36 -71.5l130 -474q8 -29 21 -67t30 -71.5t39.5 -58t50.5 -26.5q20 -2 40.5 21t39.5 60t36 84t31.5 92.5t25.5 85t18 62.5q8 5 10.5 -4.5t-2.5 -20.5q-27 -94 -52 -167.5 t-49.5 -125t-49.5 -80t-53 -31.5q-38 -5 -67 13t-50.5 47.5t-36 65t-24.5 67.5zM443 245q-15 -27 -21.5 -66.5t-4 -75t16 -60t39.5 -22.5q11 1 16.5 9.5t7 22t-0.5 31t-6 36.5q-8 38 -22 73.5t-25 51.5zM322 926q-20 2 -32.5 -14.5t-18 -44t-3.5 -64t11 -75.5q3 -13 8.5 -30 t12.5 -35t14.5 -35t14.5 -30q2 22 6.5 54.5t9 68.5t7.5 72t1.5 65t-8.5 47.5t-23 20.5zM737 893q-17 4 -26 -18t-12 -56t-1 -72t8 -64q13 18 27 51.5t21.5 67t4.5 60t-22 31.5z" />
<glyph unicode="N" horiz-adv-x="696" d="M350 326q-5 -32 -12.5 -72.5t-19 -83t-28 -84t-39 -75t-52 -55t-66.5 -24.5q-34 -3 -58 16.5t-36 50t-11.5 67t15 68t42.5 52.5t72 22q21 0 35 -11t20 -27.5t4.5 -35t-11.5 -33.5q-6 -9 -13 -6t-4 14q4 11 5.5 24.5t-2 25t-12.5 19.5t-24 8q-23 1 -39.5 -16.5t-25 -43 t-9.5 -55.5t7.5 -54.5t25 -40t43.5 -12.5t49.5 24.5t40.5 54t32.5 74t24.5 84.5t16.5 84.5t9.5 75.5q-15 28 -31.5 62t-32.5 70.5t-31 73.5t-27 72q-14 39 -21.5 78t-7.5 76q0 24 5.5 49.5t17 46.5t29 34t41.5 13q33 0 53 -30.5t30.5 -78t14 -106t2.5 -114t-4.5 -102.5 t-5.5 -72l275 -432q1 21 -3.5 70t-11.5 115t-14.5 144t-11 156.5t-1.5 152.5t14 133.5t35.5 98t63.5 45.5q28 5 43.5 -14t20 -46t-0.5 -53t-17 -35q-11 -8 -18 -7.5t-10.5 5.5t-3 11.5t5.5 9.5q15 11 21 31.5t4 40t-11.5 33.5t-25.5 12q-33 -4 -53 -38t-30 -89.5 t-11.5 -127.5t1.5 -151t9.5 -160.5t12 -155.5t9 -137t1.5 -104q-4 -14 -11 -17.5t-14.5 -1t-15 9.5t-13.5 15q-2 2 -6 7t-13.5 18t-26 37.5t-44 66t-67 102.5t-94.5 148zM235 795q0 -33 7 -70.5t19 -76.5q16 -51 38.5 -100.5t45.5 -91.5q2 39 3 85.5t0.5 93t-4.5 90 t-12 76.5t-22 52t-35 17q-14 -2 -21.5 -10t-12 -19t-5.5 -23.5t-1 -22.5z" />
<glyph unicode="O" horiz-adv-x="744" d="M22 522q5 45 17 96t33.5 101.5t53 97t75.5 82t100.5 56.5t128.5 21q22 0 49 -4.5t54.5 -15t52 -27.5t41.5 -41.5t23 -57.5t-4 -76q21 -64 27 -137.5t4 -136.5q-2 -45 -7.5 -95.5t-18.5 -101.5q19 7 41.5 17.5t43.5 22.5t38.5 24t27.5 23q3 1 4 -1.5t1 -6t-1.5 -6.5 t-3.5 -4q-15 -12 -35 -24t-41 -23.5t-42 -21.5t-37 -17q-14 -50 -34.5 -96t-50 -82t-68.5 -59.5t-90 -28.5q-91 -8 -156 16t-108.5 68.5t-69 103t-38 119.5t-13.5 117.5t3 97.5zM530 761q-3 9 0.5 16.5t13.5 7.5q6 0 10.5 -4.5t4.5 -10.5t-6 -12q7 -10 22 -14.5t26 -2.5 t18 8t12 13q-20 58 -57 96.5t-100 40.5q-39 1 -72.5 -32t-58.5 -85.5t-40.5 -117t-18.5 -126.5q-3 -71 10 -121.5t38 -84t59.5 -51t73.5 -23t80.5 -0.5t80.5 18q14 56 23 108.5t11 92.5q1 30 0.5 63.5t-2.5 68t-7 69t-14 66.5q-15 -12 -34 -16q-8 -2 -19.5 -0.5t-22.5 5.5 t-19.5 11t-11.5 17zM470 910q33 0 59 -10t47 -28t36.5 -43t26.5 -54q4 54 -16.5 90.5t-53.5 59t-71 32t-69 8.5q-69 -2 -126 -44.5t-99 -108.5t-67.5 -146.5t-31.5 -158.5q-4 -50 -0.5 -107.5t16 -114t34.5 -108t56 -89.5t80.5 -59t107.5 -16q48 4 84 25.5t62.5 55.5 t44.5 76.5t31 87.5q-77 -29 -150.5 -31t-129 30.5t-87 101t-24.5 180.5q4 66 22.5 132t49.5 119t73.5 86.5t94.5 33.5z" />
<glyph unicode="P" horiz-adv-x="759" d="M30 112q0 30 9 65t27.5 64t45.5 48.5t63 19.5q17 0 27.5 -11t15 -28t3.5 -36t-9 -35.5t-23 -26.5t-36 -8q-10 0 -10 7.5t10 4.5q22 -4 36.5 14.5t18.5 42t-4 43.5t-31 20q-33 0 -55.5 -20t-37 -48.5t-21 -60.5t-6.5 -58q0 -61 33.5 -99.5t99.5 -38.5q49 0 86 25.5 t63.5 66t43.5 92t27.5 103.5t14.5 100t5 82q-20 4 -37 12.5t-27.5 21.5t-14.5 30t1 37q3 9 10 7.5t2 -10.5q-3 -8 -3.5 -20t6 -25t21.5 -23t42 -13q1 62 3 117.5t8.5 108t19.5 103.5t36 104q-52 7 -108.5 -4t-104.5 -38t-81 -69.5t-38 -97.5q-2 -20 7 -32.5t21.5 -15.5 t25 5.5t18.5 30.5q4 7 12.5 3t4.5 -15q-5 -20 -22.5 -31t-36.5 -9.5t-33 17t-12 47.5q4 56 38 100.5t85 74t112 42.5t118 7q16 24 37 46.5t47.5 40t58 27.5t67.5 9q35 -1 52.5 -20t19.5 -41t-10 -39t-35 -14q-15 2 -23.5 12.5t-10 23.5t4 24.5t17.5 15.5q4 2 4.5 -2.5 t-2.5 -7.5q-11 -9 -12.5 -18.5t2 -18t9.5 -13.5t11 -5q19 0 27.5 14t6 31.5t-16.5 31.5t-41 14q-58 0 -101.5 -33.5t-66.5 -86.5q33 -8 73 -23.5t74 -43t55.5 -68t17.5 -97.5q-4 -66 -27.5 -108t-61 -67t-87 -37t-104.5 -18q-4 -52 -9 -107.5t-16 -108.5t-30 -100t-51 -82.5 t-78 -56.5t-111 -21q-36 0 -66 11.5t-51.5 32t-32.5 49t-9 61.5zM540 881q-19 -49 -29 -102.5t-14.5 -109t-6.5 -110.5t-4 -107q37 0 76.5 15.5t72.5 43t55 63.5t24 77q2 49 -12.5 88.5t-40 68t-57.5 47t-64 26.5z" />
<glyph unicode="Q" horiz-adv-x="931" d="M399 570q-4 23 14 41t45 18q19 0 33.5 -9.5t23.5 -23.5t13.5 -32t4.5 -34q0 -27 -10 -47.5t-27 -34t-39 -21.5t-47 -9q-54 -3 -81.5 24t-33.5 69t8 92t45 93t76.5 72t102.5 29q55 0 97.5 -20.5t72 -55.5t44.5 -81t15 -96q0 -70 -15.5 -142t-43.5 -137.5t-65.5 -121.5 t-81.5 -95q53 -87 109 -105q46 -15 87 1t77 51.5t65.5 85t51 101t35 99.5t16.5 81q6 4 6 -8t-1 -22q-7 -42 -24.5 -94.5t-43 -105t-57.5 -101t-68.5 -84t-77 -53.5t-82.5 -9q-36 8 -73 37.5t-73 89.5q-67 -31 -135 -31q-85 0 -149 32t-105 106q-18 -13 -32 -30t-24 -35.5 t-15 -37.5t-6 -35q0 -8 -2.5 -11t-5.5 -2t-4.5 5t0.5 10q2 47 25 85.5t55 64.5q-31 73 -45.5 151t-11.5 156t23.5 153t60 141t97.5 120.5t136 91.5q37 18 89.5 25.5t103 -1.5t91 -36.5t55.5 -78.5q3 -11 -4.5 -15t-9.5 8q-8 45 -43 72t-82 37.5t-99 5t-94 -26.5 q-59 -29 -105.5 -79.5t-79 -114.5t-50.5 -138t-22 -150t6.5 -150.5t36.5 -139.5q45 16 91 25.5t93.5 2t97.5 -36.5t105 -89q48 43 83 98.5t58 117t34 127t11 127.5q0 47 -11.5 91.5t-35.5 79.5t-62 56.5t-92 21.5q-42 0 -73 -25.5t-51.5 -64t-30 -83.5t-8 -84t13.5 -66 t36 -29q21 -2 40.5 5.5t33.5 21.5t22.5 32t8.5 38q0 14 -2.5 28.5t-9.5 26t-18 19t-28 7.5q-11 0 -22 -4t-15 -15h1q10 0 16.5 -6.5t6.5 -15.5t-6.5 -15t-16.5 -6t-15.5 6t-7.5 15zM162 149q32 -69 88.5 -109.5t135.5 -40.5q5 0 21 2.5t33.5 7t31 10t13.5 11.5q0 8 -8 15 t-10 15q-27 36 -62 60.5t-74 36.5t-82 10.5t-87 -18.5z" />
<glyph unicode="R" horiz-adv-x="889" d="M495 461q-25 -11 -50.5 -18.5t-56.5 -8.5q-2 -32 -4.5 -78t-9 -96t-18.5 -99.5t-34.5 -88.5t-57 -63.5t-84.5 -24.5q-38 0 -68 24t-51 59t-32 74.5t-11 70.5q0 15 5.5 38.5t16.5 45t28.5 37t41.5 15.5q18 0 32 -9t23 -23t14 -31t5 -32q-1 -11 -7.5 -10.5t-4.5 10.5 q0 13 -5 27t-13 26t-20 19.5t-25 7.5q-20 0 -34 -13.5t-23 -33t-13 -40.5t-4 -35q0 -26 10 -63.5t28.5 -71.5t45 -57.5t59.5 -21.5q30 1 53.5 25t41 61t29.5 84t20 94.5t12.5 92.5t7.5 78q-36 11 -49.5 33t-11.5 44q2 26 23.5 46t51.5 20l27 336q-33 -2 -80 -22.5t-91 -53.5 t-76.5 -76t-38.5 -90q-4 -34 6 -56t27.5 -33t39 -11t40 11t31.5 31.5t13 51.5q0 15 -7 20.5t-16.5 4t-19.5 -8.5t-16 -16q-2 -3 -6.5 1t-0.5 9q10 13 23.5 19t25.5 5t21 -9.5t10 -24.5q0 -35 -14.5 -59t-36.5 -36.5t-46.5 -13t-45 12t-32.5 38t-8 65.5q4 36 22 68.5t45 60 t59 50.5t64.5 39t61 25t48.5 10q3 10 8.5 27t17 32.5t32 25t53.5 5.5q6 0 6 -7t-7 -6q-12 1 -24.5 -4.5t-23 -15.5t-17.5 -24t-8 -29q58 -3 112.5 -14t96.5 -37t67 -70.5t25 -113.5q0 -36 -12 -65t-30.5 -52t-40.5 -40t-42 -29t-35.5 -19t-20.5 -10q17 -32 31 -82.5 t27.5 -107t28.5 -113.5t33 -101.5t41.5 -71.5t54.5 -23q25 3 47.5 30t42.5 67t36.5 86.5t28.5 88t18.5 72.5t7.5 39q7 1 10 -21q-1 -10 -8.5 -42.5t-20 -75t-30 -88.5t-39 -85t-47 -64t-53.5 -24q-50 1 -85 27t-59 68.5t-39.5 96.5t-27.5 109t-22 107t-23 92zM390 453 q18 -1 42 4.5t56 19.5q-5 16 -15 30t-22.5 25t-27 17.5t-27.5 6.5zM354 554q-22 0 -36 -9t-18 -38q-3 -24 12.5 -39t32.5 -16zM398 575q38 -5 74.5 -23t59.5 -55q30 14 56 33.5t45 44t30 53.5t10 62q-1 54 -21 96t-54 70t-79.5 42t-97.5 13z" />
<glyph unicode="S" horiz-adv-x="664" d="M28 71q0 67 36 114t90.5 77t118 46.5t118.5 22.5q-36 43 -69 92t-57.5 100.5t-39.5 104t-15 103.5q0 46 15.5 85t43.5 67.5t66.5 44.5t83.5 16q41 0 75.5 -18.5t56.5 -50.5q4 2 12 5.5t16.5 7.5t16 7l12.5 5q14 4 20.5 -2.5t7.5 -15.5t-4 -17.5t-13 -8.5q-11 0 -14.5 8 t1.5 13q-12 -2 -21 -7t-23 -13q1 -5 3.5 -15.5t3.5 -23t0 -26.5t-6 -26q-4 -11 -14 -19t-21 -11t-22.5 1t-18.5 17t-5.5 28.5t9 30.5t19 29t25.5 24q-12 17 -26 28.5t-29 18.5t-29 10t-25 3q-35 0 -65 -16t-51.5 -42.5t-33.5 -59t-12 -65.5q0 -58 21.5 -113t52 -106 t63.5 -98t56 -89q23 0 53 2.5t60.5 6.5t60 9t52 9t35.5 7t12 4q5 -2 5.5 -6.5t-8.5 -7.5q-28 -9 -66.5 -16t-76.5 -12.5t-70.5 -8.5t-47.5 -4q33 -61 35.5 -128.5t-22 -127t-74 -104.5t-119.5 -60q-21 -5 -48.5 -6.5t-56 3t-56 16t-49.5 32t-35 51.5t-13 75zM82 90 q0 -33 13.5 -62.5t36.5 -51.5t53 -34.5t64 -12.5q48 0 83.5 18.5t59.5 49.5t36 71t12.5 83t-9.5 86t-31 80q-56 -5 -113 -19.5t-102.5 -41.5t-74 -67.5t-28.5 -98.5zM545 848q-8 -6 -17 -15t-16 -20t-10 -22.5t0 -22.5q8 -20 22.5 -17.5t22.5 22.5q7 19 5.5 42t-7.5 33z" />
<glyph unicode="T" horiz-adv-x="734" d="M258 765q0 16 21 18q13 1 26.5 -3.5t24.5 -13.5t18 -22t7 -29q0 -30 -14 -56.5t-36 -46t-50 -31t-56 -11.5q-38 0 -72 17t-59 45t-39.5 62t-14.5 69q0 54 26.5 95t68.5 68t95 40t107 10q118 -6 205 -27.5t156 -50t127 -60t119 -58.5q6 -2 8.5 -6.5t2 -8.5t-3.5 -5.5 t-8 2.5q-18 6 -52 21.5t-71.5 33.5t-73 35.5t-56.5 27.5q-2 -16 -3.5 -48t-3 -75.5t-3 -95t-4.5 -105t-7 -105.5t-11 -97q-11 -70 -31.5 -130t-54 -106t-81.5 -75.5t-112 -37.5q-57 -7 -115 8t-104.5 47t-76 79t-29.5 104q0 23 10 44.5t26.5 38.5t38 27t44.5 10 q27 0 43.5 -18.5t19 -42t-12 -45t-48.5 -26.5q-9 0 -11.5 7t6.5 6q26 2 38.5 19t12.5 36t-12 34.5t-36 15.5q-20 0 -38 -9.5t-32 -24.5t-22.5 -34t-8.5 -39q0 -45 27.5 -87t69.5 -72.5t92 -46t94 -7.5q37 7 72.5 29.5t66.5 63.5t56 103t41 148q8 44 16.5 101.5t16 125 t12.5 143t6 155.5q-32 12 -65 23t-69 19.5t-77 14t-89 7.5q-44 2 -91.5 -8.5t-87 -34.5t-65 -63t-24.5 -94q0 -30 11 -61.5t31 -58t47.5 -43t61.5 -16.5q24 0 49 11t45 29t32.5 41t12.5 47q0 25 -14.5 40.5t-36.5 15.5q0 -8 -4.5 -13t-10.5 -5q-14 0 -14 16z" />
<glyph unicode="U" horiz-adv-x="957" d="M194 744q2 16 13.5 17t18.5 -6q16 -17 24.5 -42t9 -52t-6.5 -53.5t-23 -46t-40 -29.5t-57 -4q-55 9 -80.5 44t-28 82t16 98.5t51.5 95t78.5 71.5t96.5 27q32 -1 70 -6t70 -19q39 -17 60 -45t28.5 -62.5t1.5 -73.5t-21 -78q-24 -62 -59 -123.5t-68 -124.5t-57.5 -128 t-28.5 -135q-1 -13 1 -31t8.5 -35.5t18.5 -30.5t33 -15q24 -3 53.5 16.5t61.5 54.5t65 81.5t64 98.5t59 106t50 104q7 35 13 85t14.5 104.5t20.5 107.5t30.5 94.5t45 66t63.5 22.5q22 -1 27.5 -24.5t-1 -60.5t-21.5 -84t-35.5 -96t-43 -96t-42.5 -83q0 -8 -5 -36t-12 -68 t-14 -88.5t-11.5 -98t-4.5 -96.5t6.5 -83.5t22 -58.5t42.5 -23q31 -1 59.5 22.5t53.5 60.5t45.5 82t36 87t25 75t13.5 47q8 4 7 -7t-7 -42q-5 -26 -16.5 -61.5t-28 -73t-37.5 -74.5t-45.5 -66.5t-51 -48t-54.5 -19.5q-172 -5 -92 481q-16 -33 -38.5 -78t-51 -92.5t-62 -94 t-69.5 -84t-75 -61.5t-78 -26q-27 -2 -50 10t-39.5 31.5t-25.5 43.5t-9 47q0 57 17.5 114.5t43.5 114.5t57 114t57 113t43.5 111t17.5 109q0 30 -13.5 51t-35 34t-48.5 18.5t-53 5.5q-47 0 -88 -26.5t-71.5 -67t-47 -88.5t-15.5 -90.5t22.5 -73t68.5 -36.5q39 -5 64.5 14 t37 48.5t8.5 63.5t-21 60q-7 -7 -14 -7q-8 0 -13.5 5.5t-4.5 13.5zM860 959q-14 0 -27.5 -22.5t-24.5 -57.5t-20 -77.5t-16 -81.5t-11.5 -70t-6.5 -44q13 25 30 60.5t33 75t29.5 78t20.5 69.5t6.5 50t-13.5 20z" />
<glyph unicode="V" horiz-adv-x="732" d="M402 -7q-24 3 -31 24t-2 51.5t18.5 67.5t29.5 71.5t32.5 62.5t26.5 42q3 50 4.5 119.5t-4 145t-21.5 149.5t-48 132t-83 93.5t-126 34.5q-35 -1 -65.5 -15t-52.5 -38t-34.5 -55.5t-12.5 -66.5q0 -24 8 -48t23 -42.5t36 -30t47 -11.5q14 0 31.5 5t33.5 14.5t26.5 23.5 t10.5 32q0 17 -15.5 31t-32.5 14q-9 -3 -13 -0.5t-3.5 6t4.5 6.5t12 1q27 0 44.5 -14.5t17.5 -41.5q0 -22 -10.5 -39.5t-27.5 -29.5t-37.5 -18.5t-40.5 -6.5q-33 0 -57.5 12.5t-41 33.5t-24.5 47.5t-8 55.5q0 39 13.5 73t37.5 60t57.5 42t73.5 18q49 3 94.5 -4.5t85 -31.5 t71 -67.5t52.5 -113t30 -167.5t3 -231q32 59 64 123.5t64.5 126.5t65.5 118.5t67 100t69 70.5t72 31q53 5 82.5 -16t40 -54.5t4 -74.5t-26 -76t-49 -58t-65.5 -21q-39 2 -56 24t-15.5 48t19 48.5t46.5 24.5q3 4 6 1.5t3 -7t-2.5 -9t-9.5 -4.5q-20 -2 -32.5 -18.5t-13.5 -36 t13 -35.5t47 -16q24 0 43.5 19.5t32 48.5t16.5 63t-3.5 62.5t-27 47t-53.5 17.5q-35 -1 -73.5 -39.5t-86 -114t-106.5 -188t-135 -262.5q-1 -23 -3 -58.5t-7 -74.5t-13.5 -77.5t-23 -68.5t-35.5 -47.5t-50 -13.5zM475 276q-5 -8 -16 -30.5t-23 -51t-23.5 -60.5t-18 -58.5 t-6 -44.5t12.5 -19t22 13.5t18 38t14.5 53.5t10.5 59.5t6.5 56t2.5 43.5z" />
<glyph unicode="W" horiz-adv-x="967" d="M1099 776q0 9 6 15t14 6q7 0 12.5 -5.5t6.5 -13.5q24 9 37 38.5t11.5 60.5t-19.5 55t-54 24q-32 0 -56.5 -15.5t-43 -39.5t-31.5 -53t-22 -55q-26 -83 -43 -174.5t-29.5 -186t-23 -188.5t-23.5 -180q-8 -12 -15 -14t-13 0.5t-10.5 7.5t-5.5 9l-181 684q3 14 -1.5 -1.5 t-15.5 -53t-26 -93t-32.5 -122t-35.5 -139t-34.5 -143.5t-30.5 -137t-22 -119q-3 -13 -12 -18.5t-18 -4.5t-16.5 8t-8.5 21q12 54 22 109t10 127q0 65 -13.5 137.5t-36 145t-51 140.5t-59.5 125q-28 -17 -65 -22t-71 4t-59 32.5t-28 65.5q0 43 28.5 71.5t71.5 28.5 q29 0 52 -12t42.5 -31t36 -42t31.5 -45q18 13 25 41.5t7 57.5q-1 5 1 6.5t5 1t5.5 -2.5t2.5 -5q2 -32 -6 -63t-32 -51q29 -58 57.5 -125t52 -137t40.5 -140.5t22 -135.5q32 121 53.5 202.5t36 134.5t23 84t14.5 51.5t10.5 36.5t11.5 40q0 13 7 19.5t16 7.5t17 -4t9 -15 l178 -665q12 77 23 164.5t24 176.5t29 175.5t39 162.5q9 31 23 61t34.5 53.5t48 38t62.5 14.5q32 -1 51.5 -15t28 -35t7.5 -46.5t-9.5 -48.5t-24.5 -40.5t-36 -23.5q-5 -3 -11 -3q-8 0 -14 5.5t-6 14.5zM30 810q1 -33 23.5 -52.5t53 -26.5t63.5 -2.5t56 19.5 q-11 17 -25 39.5t-30.5 42.5t-35.5 35t-41 18q-33 0 -48.5 -20.5t-15.5 -52.5z" />
<glyph unicode="X" horiz-adv-x="1079" d="M232 321q0 9 5.5 15.5t14.5 6.5t15 -6.5t6 -15.5v-2q20 7 32.5 27t12.5 40q0 30 -19 47t-49 17q-38 -6 -74.5 -26t-66 -49.5t-48 -65.5t-20.5 -75q-2 -34 9.5 -63t32.5 -51t49.5 -35t61.5 -14q46 -2 107.5 23t122 73.5t114 118t85.5 156.5q-7 43 -26.5 93.5t-49 101.5 t-66 98t-75.5 83.5t-79.5 58.5t-77.5 22q-35 0 -59 -13.5t-37.5 -35t-17 -48.5t2.5 -54q5 -23 16 -45t28 -38.5t39.5 -26.5t50.5 -10q21 0 41 8.5t36 22.5t25.5 33.5t9.5 41.5q0 8 3 11t7 2t7 -5t3 -10q0 -27 -12 -48.5t-31 -36.5t-43 -23t-48 -8q-32 0 -57.5 11t-44.5 30 t-31 43t-16 50q-5 30 0.5 60.5t23 54.5t46 38.5t70.5 13.5q77 -2 141.5 -38t115.5 -92.5t88.5 -124.5t60.5 -133q28 68 64.5 141.5t85 140t110 118.5t139.5 76q26 8 54.5 11t54 -3t45.5 -22t28 -45q3 -12 2 -27.5t-7 -31t-17.5 -29t-29.5 -22.5q-10 -5 -15 1t6 13 q30 14 39 42t3 48q-8 26 -26 38t-41.5 14.5t-48.5 -2t-47 -11.5q-71 -22 -130.5 -75.5t-107.5 -122t-86 -142.5t-65 -136q10 -28 19.5 -74t22 -99t28.5 -107t38.5 -97.5t52.5 -72t71 -29.5q24 -1 55.5 18t63 59.5t59 103.5t43.5 151q1 5 3.5 5.5t5.5 -2.5t4.5 -9.5 t-0.5 -16.5q-5 -27 -15 -62t-25 -71.5t-35.5 -72t-46.5 -63.5t-57.5 -46t-68.5 -19q-50 -2 -85.5 19t-60.5 56t-41 80.5t-28.5 92.5t-22.5 91.5t-22 77.5q-27 -66 -71 -131t-101.5 -116.5t-126.5 -83.5t-145 -32q-37 0 -68 14.5t-53 40t-34.5 59.5t-12.5 73q0 37 21.5 76 t54.5 71.5t73 53.5t77 21q36 0 60 -17.5t27 -58.5q0 -21 -11.5 -38.5t-26.5 -29t-29 -16.5t-18 -2q-8 0 -13.5 6t-5.5 15z" />
<glyph unicode="Y" horiz-adv-x="739" d="M160 878q-30 2 -55 -13t-43.5 -40t-29 -55.5t-10.5 -58.5h2q7 2 13.5 -3.5t7.5 -13.5t-3.5 -14t-12.5 -7q-8 -2 -14 2t-8 12q-7 23 -4.5 49.5t13 53t27.5 51.5t38.5 45t46 33t49.5 16q26 3 43 -6.5t27.5 -27t14.5 -41t3 -49.5q-2 -73 -18.5 -147t-31.5 -147t-22 -144.5 t10 -140.5q7 -27 20 -41.5t30 -19t36 -1t37.5 12t34.5 19t27 21.5q24 24 45.5 53.5t39 59t31 55.5t21.5 43q3 38 5 78.5t5.5 81.5t9.5 81t18 77q16 51 37.5 77.5t51.5 30.5q16 2 25.5 -7t12.5 -26.5t0.5 -41.5t-8.5 -52q-5 -21 -14 -51t-21 -63t-26 -66.5t-30 -62.5 l-11 -255q78 42 130.5 74.5t81.5 55.5q3 2 3.5 0t0 -6t-2 -7.5t-3.5 -3.5q-35 -23 -84 -53t-125 -71q-1 -39 -2 -86t-6.5 -94.5t-17 -91.5t-33.5 -78t-57 -55t-87 -21q-45 -2 -78.5 11t-53.5 35.5t-26 52.5t3 63q8 28 27.5 56t52.5 54q45 35 102.5 70t117.5 67l5 198 q-10 -23 -24 -49.5t-30.5 -53t-36.5 -52t-42 -46.5q-30 -29 -69 -45.5t-76.5 -14.5t-68.5 24t-46 69q-16 50 -17.5 103t5 106t19 104.5t24.5 99.5t21 91t9 79q0 29 -11 43t-25 15zM373 -186q34 0 59.5 21t43.5 67t29.5 118t16.5 175q-60 -32 -116 -66.5t-102 -70.5 q-30 -24 -47.5 -51t-22.5 -53q-6 -28 0 -54.5t24 -46t47 -30.5t68 -9zM592 521q29 63 46.5 118.5t29.5 97.5q7 26 10 48t1 37.5t-8.5 22.5t-17.5 2q-9 -4 -17.5 -32t-16 -72.5t-14 -102t-13.5 -119.5z" />
<glyph unicode="Z" horiz-adv-x="859" d="M250 852q0 6 4.5 10.5t10.5 4.5t10.5 -4.5t4.5 -15.5q-3 -33 -25.5 -54t-49.5 -23q-17 -1 -31.5 6t-24.5 19.5t-15.5 29.5t-5.5 35q0 32 13.5 54t35 35.5t49 19.5t55.5 6q64 -2 113 -13.5t90.5 -25.5t81 -26t86.5 -16l38 37q7 5 17 2.5t18 -8.5t11.5 -14.5t-2.5 -14.5 q-24 -18 -59 -51t-70.5 -78.5t-67 -103.5t-49.5 -127q22 -20 51.5 -29t57.5 -11.5t51 0.5t33 6q7 3 7 -5.5t-8 -8.5q-24 -5 -50 -6.5t-51.5 1.5t-49.5 12.5t-46 26.5q-21 -78 -41 -138t-38.5 -104t-35.5 -75t-31 -52q20 -25 52 -51t71.5 -47.5t85 -35t92.5 -13.5 q59 0 107.5 25.5t83.5 71.5t56 110t24 141q1 8 3.5 6t4.5 -10.5t2.5 -20.5t-0.5 -24q-8 -74 -32 -133.5t-61 -102.5t-85 -68.5t-103 -29.5q-88 -7 -148 9t-99 40t-61 48.5t-33 34.5q-22 -21 -51 -36t-60.5 -22t-62 -6.5t-54.5 10t-39 27.5t-15 46q0 39 31 61.5t74.5 30 t89.5 0.5t76 -28q17 29 35.5 62.5t37.5 76t38.5 97.5t39.5 127q-18 15 -47 18.5t-58 -1.5t-55 -15t-38 -22q-3 -4 -6.5 -3t-5 5t-1 8.5t6.5 6.5q21 16 49.5 25t57.5 11.5t55.5 -1.5t45.5 -15q28 74 55 126.5t52.5 88.5t49 59t46.5 40q-45 6 -90 19.5t-90.5 27.5t-91 24.5 t-91.5 10.5q-24 0 -49 -5t-45.5 -17t-33.5 -31.5t-13 -48.5q0 -13 4 -26.5t11.5 -25t19 -19t26.5 -7.5q24 0 42 16.5t23 39.5h-1q-6 0 -10.5 4t-4.5 10zM35 118q-1 -18 11.5 -28t33.5 -13t47.5 0t51.5 12t46.5 23.5t33.5 33.5q-7 12 -26 20.5t-43.5 13t-51 4t-49 -7.5 t-38 -21.5t-16.5 -36.5z" />
<glyph unicode="[" horiz-adv-x="285" d="M37 936q-2 16 2 30t14 12l229 -1q4 0 6 -4.5t1 -9.5t-4 -9.5t-9 -3.5h-186l-11 -952h190q7 1 11 -2.5t4.5 -8t-2.5 -9t-8 -4.5h-234q-7 -2 -13 3.5t-5 33.5z" />
<glyph unicode="\" horiz-adv-x="497" d="M502 14q1 -5 0 -10t-3.5 -9t-7.5 -4.5t-13 4.5l-454 911q-5 13 0 23.5t14 15.5t19 3.5t17 -13.5z" />
<glyph unicode="]" horiz-adv-x="311" d="M277 15q2 -16 -2 -30t-14 -12l-229 1q-4 0 -6 4.5t-1 9.5t4 9.5t9 3.5h186l11 952h-190q-8 -1 -11.5 2.5t-4 8t2.5 9t8 4.5h234q7 2 13 -3.5t5 -33.5z" />
<glyph unicode="^" d="M59 292q-4 -9 -9 -11t-9.5 0t-7 6t-0.5 8l94 153q7 12 20.5 18.5t27.5 -6.5l104 -155q5 -7 -1 -15t-16 -12.5t-21 -3t-16 12.5l-86 145l-80 -140v0z" />
<glyph unicode="_" horiz-adv-x="263" d="M62 7q-14 0 -12 8t13 8l152 8q7 0 11 -3.5t4.5 -8t-2.5 -8t-10 -4.5h-156v0z" />
<glyph unicode="`" horiz-adv-x="163" d="M28 631q-6 14 3.5 19.5t17.5 -4.5l91 -112q7 -6 6 -14.5t-6.5 -14t-13 -5.5t-13.5 11l-85 120v0z" />
<glyph unicode="a" horiz-adv-x="465" d="M259 102q-29 -23 -59.5 -39t-68.5 -16q-31 0 -55 12t-40.5 32.5t-25.5 47t-9 56.5q-1 42 10 84.5t32.5 76.5t52.5 55t71 21q30 0 49.5 -11.5t42.5 -31.5q4 9 12 14.5t15.5 5t13.5 -6.5t7 -19q-3 -62 -7 -115.5t-6 -94.5q-2 -85 8 -119.5t42 -23.5q16 5 32.5 26t33.5 51.5 t33 67.5t31 73.5t28 69.5t23 56q4 -2 6.5 -5.5t0 -16.5t-11.5 -37.5t-27 -68.5q-9 -15 -18.5 -37.5t-21.5 -49t-25.5 -53t-30.5 -48t-37 -36t-44 -15.5q-19 0 -29.5 9.5t-16 23.5t-8 31t-3.5 31zM67 217q0 -17 3 -43t11 -50t23.5 -41.5t41.5 -17.5q13 0 31.5 6t35.5 16 t30 23t16 28q3 33 4.5 56t1.5 52q0 28 -1.5 51t-4.5 56q-11 27 -32.5 44t-50.5 17q-32 0 -53 -22t-33.5 -53t-17.5 -64.5t-5 -57.5z" />
<glyph unicode="b" horiz-adv-x="436" d="M22 397q3 30 10.5 76t18.5 97.5t26 102t33.5 91t40.5 65t47 22.5q14 0 23.5 -9t14.5 -22q10 -29 3 -72.5t-25 -98t-44 -116.5t-54 -126q-9 -21 -14 -41.5t-5 -43.5v-56t2.5 -69.5t8 -72.5t17 -64.5t30 -46.5t45.5 -18q28 0 54 17t46.5 43.5t32.5 60t13.5 66.5t-10.5 62.5 t-41 48.5q-5 0 -16.5 1t-25 2t-25.5 2t-16 1q-13 2 -25 10.5t-12 22.5q0 16 16.5 17.5t37.5 -4.5t40.5 -15t25.5 -13h9q11 0 16 1t17 5q5 2 31.5 9.5t56.5 16.5t56 17t31 10h13q0 -6 -14.5 -13t-36 -15t-47 -16t-48.5 -14.5t-40 -11.5t-20 -7q48 -43 59 -94t-5.5 -96.5 t-54.5 -80.5t-88 -47q-18 -4 -35 -3.5t-30.5 2.5t-22.5 5t-10 4q-45 19 -69.5 65t-34.5 104.5t-9.5 121.5t3.5 117zM200 329q-3 -1 3 -3t16 -4.5t22.5 -4t24.5 -1.5q-3 3 -11 6t-17.5 5.5t-20 3t-17.5 -1.5zM215 815q-18 -14 -31 -37.5t-22.5 -49.5t-16.5 -49.5t-11 -37.5 q-19 -60 -28 -121.5t-14 -130.5q13 34 30.5 75t35 84.5t33.5 86.5t25 79t10 62.5t-11 38.5z" />
<glyph unicode="c" horiz-adv-x="407" d="M233 256q-11 4 -15 12.5t-2.5 15.5t8.5 10t19 -5q10 24 9.5 50t-12 47t-32 33.5t-49.5 9.5q-23 -3 -38.5 -25t-25 -50.5t-13.5 -56t-4 -40.5v-61t7 -77.5t25 -67t54 -28.5q26 0 58 17.5t62 42.5t54 52t35 46q16 23 28.5 44t22 42.5t18.5 45t20 50.5q4 3 5 -0.5t3 -9.5 q-16 -54 -46 -116.5t-71 -115t-92 -87.5t-109 -35q-42 0 -68 27t-40.5 66t-19 82t-2.5 75q2 29 10 63.5t23.5 64.5t41 50t61.5 21q40 1 66 -16t38 -44t10.5 -59.5t-16.5 -62.5q-8 -13 -23 -10z" />
<glyph unicode="d" horiz-adv-x="466" d="M108 13q-38 17 -62.5 48t-36 69t-11 80t13 80.5t36 70t57.5 49.5q18 9 41.5 7t48 -13.5t47 -32t39.5 -49.5l-7 118q-27 32 -53.5 73.5t-47.5 87t-35 91t-17 84.5t8 68t40 42q25 11 45.5 -4t37 -46.5t28.5 -75.5t20.5 -91.5t14.5 -92.5t10 -79.5t5.5 -53.5t2.5 -13 q31 -24 54.5 -38t45 -21.5t44 -10t51.5 -2.5q0 -7 2 -10q-33 -6 -63 -1t-55.5 15.5t-45.5 23.5t-33 24q1 -28 0.5 -70t-1.5 -88t0 -91.5t6 -80.5t15.5 -55.5t29.5 -15.5q5 1 7.5 -2t2.5 -7.5t-2.5 -8t-7.5 -2.5q-25 -3 -40 7.5t-23.5 28.5t-11.5 40.5t-3 43.5 q-8 -20 -17 -35.5t-19 -26.5q-35 -39 -75.5 -44.5t-85.5 10.5zM284 269q-3 17 -13.5 37.5t-26 39.5t-34 33.5t-38 20.5t-38.5 0t-34 -29q-20 -30 -31.5 -74t-13 -90.5t8.5 -88t33 -66.5q18 -20 38.5 -30t41 -9.5t39.5 12t34 35.5q17 26 27.5 79.5t6.5 129.5zM170 872 q-27 -12 -30.5 -54.5t11 -101t46 -125t75.5 -127.5q-2 7 -6.5 40.5t-11 79.5t-15.5 97.5t-19.5 94.5t-23 70.5t-26.5 25.5zM528 358q2 6 2 0h-2z" />
<glyph unicode="e" horiz-adv-x="388" d="M19 304q0 69 37 109t101 40q23 0 43 -11.5t20 -40.5q0 -27 -15 -41t-36 -21t-45 -9t-42 -4q0 -2 -0.5 -10.5t-0.5 -10.5q0 -34 6.5 -75t23 -77t44.5 -60.5t71 -24.5q58 2 96 34.5t63 79t40.5 99t27.5 94.5q1 2 4 1.5t5 -9.5q-5 -28 -14.5 -65.5t-25 -77t-36.5 -77.5 t-49 -67t-63 -46t-78 -14q-46 1 -79.5 31t-55 73t-32 92t-10.5 88zM166 441q-18 0 -32.5 -8.5t-25 -22t-16 -30t-5.5 -32.5q14 0 33.5 -0.5t37.5 3.5t31 14.5t13 32.5q0 16 -9.5 29.5t-26.5 13.5z" />
<glyph unicode="f" horiz-adv-x="284" d="M10 -75q-3 121 -3 211.5t2.5 157t6 111.5t7 74t6.5 45.5t5 26.5q6 36 15.5 74t23 69t31.5 51t41 20q17 0 36 -12.5t24 -29.5q11 -21 10.5 -56.5t-8.5 -79t-23 -90t-33.5 -89t-40 -77t-42.5 -53.5q-4 -78 -10 -151t-2 -139q43 38 84.5 77.5t78 84.5t68.5 98.5t56 119.5 l6 6q5 -2 6 -4.5t1 -7.5q-11 -59 -46 -117.5t-78 -110.5t-86.5 -95t-73.5 -70q15 -32 32 -72t31.5 -82.5t24.5 -84.5t12 -77q0 -12 -1.5 -27t-6.5 -28t-14.5 -21.5t-25.5 -8.5q-39 0 -61.5 33.5t-33.5 85.5t-14.5 115t-4.5 123zM65 -68q7 -99 13 -163t13 -103t16.5 -57.5 t22.5 -27.5q14 9 18 34t0 57.5t-14 70.5t-22 73.5t-24.5 66t-22.5 49.5zM155 747q-14 -1 -24.5 -22.5t-19 -56.5t-14.5 -79.5t-10.5 -90t-8 -88t-6.5 -74.5q31 27 54.5 76t39 102.5t22.5 103t5 76.5q0 16 -9 34.5t-29 18.5z" />
<glyph unicode="g" horiz-adv-x="434" d="M165 -311q0 30 9 59t23 56t32 52t36 48q0 36 -4 69t-8 71q-12 -3 -21.5 -8t-21.5 -9t-28 -5t-41 4q-32 0 -56 11.5t-40 31t-24 45.5t-8 56q-4 51 2.5 105.5t25.5 99.5t51.5 74t81.5 29q27 0 47 -13.5t31.5 -33.5t13.5 -43t-5.5 -43t-25.5 -33t-47 -13q-20 0 -33 5.5 t-13 28.5q2 12 9.5 19t18.5 7t16.5 -5t7 -11.5t0 -14t-4.5 -11.5q23 -5 37 5t19.5 27.5t3.5 38.5t-11.5 39.5t-25 29.5t-36.5 8q-22 0 -39 -16t-29.5 -42t-20 -58.5t-11.5 -64.5t-5 -61t1 -48q0 -27 8 -50t24 -40t38 -26.5t51 -9.5q17 0 30.5 7t24 15t17.5 15t11 7 q16 7 24.5 -9t13 -40.5t6 -50t3.5 -37.5q43 79 71 142.5t45.5 112t26.5 82t15 52.5q5 17 10 22t13 -1q-3 -25 -14.5 -62.5t-27.5 -80.5t-35.5 -88.5t-37.5 -86t-34 -72.5t-26 -49q2 -20 5.5 -44.5t6.5 -51.5t5.5 -54t2.5 -51t-2.5 -49.5t-11.5 -46.5t-26 -34.5t-46 -13.5 q-26 0 -44 10t-29.5 26t-17.5 35t-7 36zM179 -309q0 -14 4 -29.5t12 -29t21 -22.5t31 -9q10 0 17.5 8.5t12 20.5t7 24t4.5 19q-1 23 -1.5 45t-2 46.5t-4 53t-7.5 64.5q-17 -14 -33.5 -37t-30 -49t-22 -53.5t-8.5 -51.5z" />
<glyph unicode="h" horiz-adv-x="562" d="M250 502q-17 0 -30 -12t-23 -31.5t-16 -43.5t-10 -47.5t-5.5 -44.5t-1.5 -33q-2 -26 -2 -58t1.5 -67.5t5 -72.5t10.5 -71q0 -8 -6.5 -13t-15.5 -5t-18 4.5t-15 16.5q-20 85 -36.5 173.5t-44.5 179.5q-22 71 -38 142.5t-21 144.5q0 22 2 53t10.5 59.5t25.5 49t48 20.5 q28 0 44.5 -18.5t25.5 -43.5t12 -50t4 -38q-1 -49 -10 -91t-20.5 -78.5t-21.5 -68t-13 -59.5v-3l55 -152q-1 13 -1 37.5t3.5 54t10.5 60.5t20 57t32.5 43t47.5 20q43 0 72 -18.5t45.5 -49.5t22 -72.5t1.5 -86.5q0 -17 -3.5 -45t-7 -60t-4.5 -64.5t4.5 -56.5t20 -37t41.5 -7 q20 4 39.5 22t40.5 56.5t44 102t50 158.5q1 4 5.5 5.5t7.5 -8.5q-8 -20 -17.5 -54.5t-22.5 -74t-29 -80t-36 -73t-45 -53t-55 -19.5q-28 1 -43.5 17.5t-22.5 41.5t-7.5 56.5t2 61.5t5.5 56t3 41q-2 71 -12.5 115.5t-27.5 69t-38 33.5t-42 9zM45 660q0 -56 5.5 -116.5 t28.5 -111.5q8 30 19 63.5t20.5 68t16 69.5t6.5 69q0 7 -2 26.5t-7.5 40.5t-14 37t-21.5 16t-22.5 -23t-16 -51.5t-9.5 -54.5t-3 -33z" />
<glyph unicode="i" d="M39 347q2 17 6 33.5t10.5 28.5t14.5 17.5t19 1.5q13 -3 16 -23t0.5 -50t-8 -68t-10 -76.5t-5.5 -75t5.5 -63.5t22.5 -42.5t46 -12.5q21 0 42 21.5t41 55t38 74.5t33.5 80t26.5 70.5t18 47.5q2 4 4 -2t6 -6q-7 -31 -20.5 -70.5t-30 -80.5t-36.5 -80t-41.5 -68.5 t-43.5 -46.5t-43 -13q-53 -1 -79 30t-35 80.5t-5.5 112t8.5 125.5zM54 542q-4 6 -2.5 16.5t7.5 20t16 17t24 7.5q11 0 16 -7t6 -15q1 -17 -13.5 -33t-32.5 -16q-14 0 -21 10z" />
<glyph unicode="j" horiz-adv-x="239" d="M58 -415q-33 -2 -60 10.5t-46.5 35t-31 53.5t-13.5 67q0 51 14 99t37 93t51.5 87.5t57.5 82.5q-14 104 -23 174t-14 113t-7.5 62t-2.5 21q0 6 0.5 13.5t2.5 14t6.5 11t12.5 4.5q12 0 20.5 -10t12.5 -21l54 -308q19 19 42 44t46 49.5t44 47.5t38 40h6v-10 q-7 -12 -21.5 -28t-32 -35t-36.5 -39t-35.5 -39t-28 -35t-14.5 -27q7 -60 19 -122.5t21.5 -122t12 -113.5t-9 -97t-40 -73.5t-82.5 -41.5zM-78 -259q1 -24 8.5 -48.5t22.5 -44.5t37 -32.5t52 -12.5q10 0 19.5 4t18 17t14.5 37t9 63q0 94 -8 183t-22 182q-2 -1 -4 -3t-2 -3 q-27 -37 -52.5 -77.5t-46 -83.5t-33.5 -88.5t-13 -92.5zM1 633q-4 6 -2.5 16.5t7.5 20t16 17t24 7.5q11 0 16 -7t6 -15q1 -17 -13.5 -33t-32.5 -16q-14 0 -21 10z" />
<glyph unicode="k" horiz-adv-x="447" d="M41 60q-26 111 -30 249.5t6 319.5q1 15 5 40.5t10.5 53.5t16.5 54.5t25 45t35 24.5t46 -7q16 -8 18.5 -29.5t-4 -49.5t-19 -59.5t-26 -59.5t-27 -49.5t-20.5 -29.5l-3 -183q37 39 77 57t74 15t57 -27t27 -69q3 -30 -8 -55.5t-28.5 -45t-39 -32t-40.5 -17.5 q12 -8 22 -24.5t20 -37.5t20 -43t21 -40.5t23.5 -31t27.5 -12.5q24 0 44.5 20.5t38.5 52.5t33 72t27.5 79t23 71.5t18.5 51.5q1 0 1.5 0.5t1.5 0.5l2 -1h1q1 0 3 -2.5t3 -3.5q-10 -26 -20 -63t-23 -77t-28 -79t-34.5 -70.5t-43.5 -51t-53 -19.5q-24 4 -41 24t-31 46.5 t-26.5 55t-27.5 49.5q-11 16 -25 25.5t-32 10.5q-9 12 -11 18q-5 11 1 14.5t17 1.5q14 -2 28.5 -5.5t19.5 -1.5q12 6 26.5 16t27.5 24t22 34t10 46q1 36 -22.5 54.5t-56.5 18.5t-68.5 -19.5t-58.5 -59.5q-3 -36 -2 -80.5t5.5 -88t11.5 -82t14 -64.5q7 -14 6 -24t-21 -12 q-11 0 -18.5 6.5t-13.5 15.5t-9.5 19.5t-5.5 19.5zM149 826q-8 -4 -14.5 -15.5t-12 -25t-9.5 -27t-6 -21.5q-6 -32 -12.5 -64t-11.5 -68q9 12 20 31.5t21 42.5t19 47t13 44.5t3 35.5t-10 20z" />
<glyph unicode="l" horiz-adv-x="333" d="M-68 479q-12 19 -19.5 41t-8.5 43.5t3.5 40.5t16.5 32q8 9 18 6t9 -17q-1 -10 -7 -16.5t-16 0.5q-7 -8 -9 -21t-0.5 -29t6.5 -32.5t14 -31.5zM-61 495q12 -22 32 -37.5t46 -17.5q0 23 -0.5 69.5t1.5 102t10 114t26.5 106.5t49 78.5t78.5 30.5q38 0 54.5 -33t17 -84.5 t-13.5 -113t-37 -118.5t-53 -101.5t-62 -61.5q1 -18 4.5 -54.5t9.5 -80.5t14 -90.5t18.5 -84.5t23.5 -63t28 -26q23 -2 45.5 16t43 48t39 68t33.5 75.5t26.5 71t19.5 54.5q6 4 8 2.5t2.5 -5.5t0 -9.5t-0.5 -9.5q-8 -24 -20 -57.5t-27.5 -70t-35 -73t-42 -65.5t-49 -47 t-56.5 -19q-31 -1 -53 21.5t-37.5 53.5t-24.5 62.5t-14 49.5q-10 35 -16.5 93.5t-10.5 136.5q-28 2 -49.5 16.5t-35.5 36.5zM194 917q-28 0 -46.5 -30.5t-30.5 -77.5t-18.5 -103.5t-9 -109t-3 -94t-0.5 -58.5q26 15 49 56t41.5 93.5t30.5 109.5t15.5 104.5t-3 78.5t-25.5 31 z" />
<glyph unicode="m" horiz-adv-x="708" d="M47 388q7 9 14 8.5t12.5 -6.5t9 -15.5t4.5 -18.5q2 -24 1.5 -40t-1.5 -27t-1 -21t3 -22q9 28 19 68t26.5 76.5t42.5 62.5t68 27q28 0 45.5 -15.5t29 -38t18 -48.5t13.5 -47q4 16 14 41t24 48t32.5 39.5t40.5 17.5q37 0 59.5 -24t34.5 -60t15.5 -78t3.5 -78v-35.5t3 -54.5 t11 -51t25 -24q29 4 49.5 36.5t37 76t30.5 89.5t30 76q4 4 6.5 2t3 -7t-1 -11t-3.5 -11q-16 -43 -31.5 -91t-34 -89t-41.5 -67.5t-55 -26.5q-25 -2 -40 9.5t-23 30.5t-11 43t-3 49t0.5 47.5t-0.5 37.5q-3 39 -7 70.5t-10.5 55t-18.5 39.5t-31 25q-14 0 -27 -12.5 t-24.5 -31.5t-21 -42.5t-16 -45.5t-10 -40t-3.5 -26q0 -40 6.5 -86t6.5 -85q0 -8 0.5 -18t-1.5 -19t-7.5 -15t-16.5 -6q-12 0 -19 5.5t-10.5 14.5t-4.5 19.5t-2 21.5q0 45 1.5 102t-4 111t-20.5 96t-46 57q-26 -1 -45 -17t-33 -41t-23 -56t-16 -62t-12.5 -59.5t-10.5 -48.5 v-3q-2 -30 -6.5 -57t-6.5 -58q0 -3 0.5 -9t-0.5 -13t-4 -12t-10 -5q-14 0 -19.5 19.5t-7 45t-0.5 50.5t1 36q-1 33 -2 59.5t-1.5 51t0 51t2.5 60.5z" />
<glyph unicode="n" horiz-adv-x="552" d="M48 385q22 10 32.5 -7t14 -50t2 -75t-2.5 -81q3 32 13 79.5t30 91t52.5 73.5t79.5 29q45 -2 77 -32t43 -84q10 -93 21 -151t22.5 -89.5t22.5 -41.5t21 -8q19 4 34.5 26t27.5 52.5t21.5 67t17 70t13.5 61t11 40.5q6 5 9.5 -3.5t-1.5 -21.5q-23 -109 -44 -176.5 t-40.5 -104.5t-38 -49t-35.5 -11q-31 2 -53 22t-36 51.5t-20 71.5t-4 81q1 39 -1.5 76.5t-10 67.5t-20.5 48.5t-32 20.5q-39 3 -67 -21t-46.5 -60t-28 -77t-11.5 -71q-7 -48 -7 -93t-7 -92v-2q-1 -5 -12 -6.5t-17 11.5q-10 21 -14 68.5t-10 101.5q-1 10 -2.5 30t-2.5 47 t-1.5 58t0.5 62z" />
<glyph unicode="o" horiz-adv-x="396" d="M7 221q-1 40 7 76.5t26 64t47.5 43.5t72.5 16q24 0 49.5 -9.5t48.5 -25t41 -36t26 -42.5q18 0 38 5.5t40 13.5t39.5 17t36.5 15q3 -4 1 -8.5t-7.5 -8.5t-11.5 -7.5t-10 -4.5q-4 -2 -21 -8.5t-37 -14t-37 -14t-21 -8.5q5 -19 8.5 -47.5t1.5 -59.5t-10.5 -62.5t-27 -57 t-48 -42.5t-72.5 -19q-48 0 -82 21.5t-55.5 54.5t-32 72.5t-10.5 75.5zM112 379q-20 -30 -29.5 -74t-8 -90.5t14 -89.5t37.5 -71q13 -14 31 -22.5t38.5 -9.5t42 7.5t39.5 27.5q20 22 29.5 50.5t11 59t-2 61t-8.5 57.5q-24 0 -50.5 7t-52.5 19.5t-49.5 29.5t-42.5 38z M133 391q11 -15 30.5 -30.5t43 -28t48.5 -20t48 -7.5q-8 24 -30 45.5t-47.5 35t-51 16t-41.5 -10.5z" />
<glyph unicode="p" horiz-adv-x="478" d="M80 -396q-33 1 -54.5 24.5t-32 61t-10.5 85t8 97.5t24 99t39 89q-1 33 -1.5 81.5t-2 101t-4 103.5t-5.5 87q2 6 9.5 10t15.5 4.5t15 -2t8 -9.5l2 -117q10 19 22.5 40t30 38.5t40 28.5t53.5 11q55 0 84.5 -29t46.5 -78q10 3 32.5 8t47 10.5t45.5 10.5t27 8q8 4 11.5 3 t5.5 -7l-167 -43q8 -31 13.5 -75.5t-2.5 -86.5t-34 -72.5t-80 -34.5q-41 -3 -67 20t-29 62q-3 44 10.5 75.5t35.5 53.5t48.5 35.5t48.5 22.5q-4 17 -12 34t-21 30.5t-30.5 22t-40.5 7.5q-24 -1 -45 -17t-37.5 -37.5t-26.5 -43.5t-12 -34q0 -32 4 -72t11.5 -102t19 -151.5 t26.5 -219.5q3 -25 0.5 -48t-10.5 -41t-23 -30t-37 -14zM57 41q-42 -88 -54.5 -167.5t-5.5 -138t29.5 -91t51.5 -27.5q12 1 16 20.5t3.5 45t-3.5 50t-4 34.5q-3 26 -7.5 67t-9.5 83t-9.5 76.5t-6.5 47.5zM185 133q3 -31 26 -52.5t54 -16.5q29 5 42.5 36.5t17 72t0.5 79.5 t-8 59q-71 -27 -104.5 -72.5t-27.5 -105.5z" />
<glyph unicode="q" horiz-adv-x="501" d="M166 -418q-26 1 -40 16t-18 40.5t2.5 60t23.5 74.5l13 32.5t21 51.5t25.5 61t25 60.5t19 50.5t9.5 31q-6 -3 -22.5 -11.5t-37 -17.5t-42.5 -15t-41 -4q-30 0 -50.5 13t-33 33.5t-17.5 46.5t-5 52q0 56 11.5 108.5t37.5 93.5t66 65.5t97 24.5q29 0 50 -9t36.5 -25.5 t26.5 -39.5t20 -51l27 81q3 10 11 14t14.5 -3.5t7.5 -29t-11 -61.5q-1 -2 -4.5 -14t-8.5 -29t-10.5 -36.5t-11 -36.5t-9 -29t-4.5 -14q43 18 76.5 41.5t60 50t47.5 54t40 52.5q5 5 10.5 2t-2.5 -14q-59 -86 -119.5 -134.5t-121.5 -76.5q-6 -16 -8.5 -25.5t-8.5 -25.5 q7 -30 9.5 -79.5t-1.5 -106.5t-15 -115t-30.5 -104.5t-47.5 -75.5t-67 -27zM152 -353q-1 -7 -2 -15.5t0.5 -16t5.5 -12.5t13 -5q27 0 50 22.5t41 59.5t30 84.5t18 98.5t5.5 100.5t-7.5 90.5zM50 149q1 -18 4.5 -39t12.5 -38.5t23.5 -29t37.5 -11.5q15 0 33.5 4.5t36.5 12 t35 17t29 20.5q3 9 13 36.5t21.5 58.5t21.5 59t13 37q0 2 0.5 9t0.5 9q0 18 -7.5 41.5t-20.5 44.5t-31.5 35t-40.5 14q-39 0 -73 -28.5t-59 -70.5t-38.5 -91t-11.5 -90z" />
<glyph unicode="r" horiz-adv-x="408" d="M39 396q3 6 12.5 6.5t19 -5.5t15.5 -19t1 -33q11 -7 28 -11.5t34 -7.5t33 -5t26 -4q7 0 12.5 -3.5t9.5 -8t6 -9t2 -5.5q-8 -42 -25 -91t-27 -109v-21.5t3 -19t10 -13.5t21 -5q23 4 48 24t49.5 50.5t48 66.5t44 72t36.5 67.5t26 52.5q1 2 1 -4.5t5 -11.5q-9 -22 -25.5 -56 t-38.5 -71.5t-47.5 -75.5t-52 -68t-52.5 -48t-48 -16q-35 0 -56.5 22.5t-14.5 72.5l29 198q-32 10 -60 17t-47 16t-27 22t1 34z" />
<glyph unicode="s" horiz-adv-x="418" d="M258 -4q-35 0 -62 15.5t-44 40t-23 55t0.5 61.5t25.5 58.5t52 45.5q-3 1 -19.5 9.5t-37 19t-39.5 21t-27 15.5q-8 4 -17 9.5t-16.5 12.5t-11.5 16t-2 20q4 13 12 17t14 1.5t8.5 -10t-2.5 -18.5q-4 -8 7.5 -20t33.5 -25.5t52 -28t63 -29.5q27 12 65.5 25.5t76 25.5t68 21 t41.5 12q2 0 8.5 -0.5t3.5 -5.5q-16 -3 -50 -13t-72.5 -22.5t-74.5 -26t-54 -22.5q19 -6 41 -18.5t41 -31t32.5 -42t15.5 -51.5q5 -65 -23 -101t-86 -36zM219 268q-27 -15 -43 -39.5t-22.5 -53t-3 -57.5t16 -53t34 -39.5t51.5 -16.5q18 -1 28.5 11.5t15.5 31t6 39t1 35.5 q0 19 -6 40.5t-17 41.5t-26.5 36t-34.5 24z" />
<glyph unicode="t" horiz-adv-x="342" d="M26 461q-29 -6 -64.5 -8t-67.5 3.5t-54.5 20.5t-26.5 45q2 5 8.5 8t10.5 -5q-2 -18 16.5 -32t48 -20.5t64 -4.5t65.5 16q0 16 1 38.5t3 47t4.5 48t5.5 40.5q4 25 7 41.5t7.5 26.5t11 15.5t15.5 9.5q8 2 18 -5t10 -20q-2 -17 -6 -37t-8.5 -45t-7.5 -55.5t-3 -66.5 q22 12 55.5 32.5t70 35.5t71.5 16.5t61 -24.5q5 -3 1 -9.5t-7 -2.5q-13 18 -34 21.5t-46 -2t-51.5 -17.5t-50 -26t-42.5 -27.5t-28 -20.5q0 -3 -0.5 -21.5t-0.5 -40t-0.5 -40t-0.5 -22.5v-55t2.5 -75.5t8.5 -82.5t18 -75.5t31.5 -55t48.5 -21.5q31 8 56.5 30.5t45.5 53 t35.5 67t27 73t19 69.5t12.5 58q3 5 6.5 2.5t1.5 -21.5q-4 -31 -13.5 -69.5t-24.5 -78t-35 -76t-45 -64.5t-54.5 -43t-62.5 -11q-43 5 -69.5 30t-41.5 62.5t-20 84.5t-5.5 96.5t1 98.5t1.5 90z" />
<glyph unicode="u" horiz-adv-x="456" d="M266 162q-8 -24 -22 -52t-33.5 -52t-44 -40t-52.5 -16q-56 0 -84 35.5t-24 91.5q5 78 17 136.5t27.5 97t32 57t30.5 16.5q9 0 10.5 -9.5t-0.5 -23.5q-3 -17 -10 -38.5t-16 -50.5t-18 -66.5t-16 -85.5q-2 -12 -2 -37t5.5 -50t20 -42t43.5 -14q22 1 45.5 24t42.5 53.5 t32 61t15 46.5l34 214q0 10 7 15t14.5 4.5t12 -8t0.5 -22.5q-19 -110 -29.5 -184t-10.5 -119t10.5 -65.5t32.5 -24.5q24 -4 45 20.5t39.5 63.5t35 86.5t31 88.5t27.5 68.5t25 27.5q-2 -12 -10 -34.5t-18.5 -50.5t-22 -60t-21.5 -62q-11 -27 -24 -56.5t-28.5 -54t-35 -39.5 t-42.5 -13q-29 3 -43.5 23t-20.5 46t-6.5 52t-0.5 42z" />
<glyph unicode="v" horiz-adv-x="419" d="M1 380q-1 5 -2 13t2.5 14t15.5 8t38 -5q5 0 15.5 -16.5t24.5 -41.5t30 -55.5t31 -58.5t27.5 -50.5t20.5 -31.5q5 -6 18.5 -22t28.5 -33t28.5 -32t19.5 -21l20 299q0 2 2.5 4t6.5 2q8 0 19 -5.5t19 -5.5q16 0 33 3t31.5 6.5t24 8t9.5 7.5q2 0 3 -3.5t2 -5.5 q-5 -10 -22 -16.5t-37.5 -10t-41 -4t-31.5 1.5l-20 -311q0 -10 -7.5 -15t-16.5 -3q-54 24 -92 72.5t-69.5 104.5t-62 111t-68.5 92z" />
<glyph unicode="w" horiz-adv-x="579" d="M261 210q-3 -12 -6 -38t-12 -53t-26.5 -48t-48.5 -24q-34 1 -57.5 18t-38.5 43.5t-22.5 59t-10.5 65t-2 61.5t3 49q2 16 5 37.5t8.5 41t15 32.5t24.5 13q10 0 14 -5t5 -12t0.5 -15t-0.5 -15q-6 -25 -14.5 -53.5t-15 -59.5t-8 -65t7.5 -69q4 -16 12.5 -35t20.5 -36 t27.5 -28.5t34.5 -11.5q21 0 33.5 17.5t19.5 41t9 47.5t2 37q0 30 -6.5 57.5t-6.5 56.5q0 11 6 19t14 11t16 0t12 -14q10 -48 21.5 -88t38.5 -82q9 -16 28.5 -44.5t44 -55t50 -44t45.5 -10.5q22 7 30 26.5t6 45t-11.5 56t-22 60.5t-25.5 57.5t-22 48.5q-4 -2 -18 4t-26.5 16 t-19 23.5t4.5 26.5q8 9 18.5 5.5t20 -13.5t18 -23.5t11.5 -23.5q14 0 38.5 4.5t49 11.5t46 16t29.5 17q12 0 6 -9t-17 -14q-12 -6 -32 -13t-41 -12.5t-40 -9.5t-29 -5q9 -22 23 -52.5t26.5 -63t21 -64.5t7.5 -58.5t-14 -45t-44 -23.5q-34 -5 -69.5 16t-67.5 54t-58.5 72 t-41.5 69zM410 364q-5 -5 -1.5 -12t11 -14t16.5 -12t16 -6q-2 4 -7 13t-11.5 17.5t-13 13t-10.5 0.5z" />
<glyph unicode="x" horiz-adv-x="484" d="M42 351q-5 0 -8 4.5t-3.5 9.5t2.5 9.5t10 4.5q19 -1 42.5 -3t49.5 -13.5t52.5 -36t51.5 -70.5q6 12 15 37t20 55.5t25 62.5t31.5 58t38 42.5t45.5 16.5q8 0 9 -7.5t-8 -5.5q-34 -4 -59.5 -35t-45 -73.5t-34.5 -89.5t-28 -83q19 -66 34.5 -108.5t28 -66.5t23.5 -32.5 t22 -7.5q19 2 38 22t36.5 51t34 69t30 75.5t23.5 71t15 55.5q5 10 8 1t1 -17q-17 -58 -37 -119.5t-45.5 -112t-57 -83.5t-71.5 -33q-21 0 -37.5 9.5t-29 24.5t-21.5 33t-15.5 35t-11 30.5t-7.5 19.5q-10 -18 -21 -44t-24 -50t-29.5 -41.5t-37.5 -20.5q-24 -3 -39 14.5 t-17 43.5q0 4 3 7.5t6.5 4.5t7 -1t4.5 -9q1 -8 3 -16t6.5 -14.5t10.5 -10.5t15 -3t20.5 9t24.5 27.5t28 51.5t32 80q-24 88 -65 127.5t-95 44.5z" />
<glyph unicode="y" horiz-adv-x="522" d="M50 -351q-8 35 -1 66t24.5 58t42 51t51.5 45t53.5 39t47.5 33l9 229q-10 -31 -24 -62t-33.5 -55.5t-45.5 -39.5t-59 -13q-28 2 -48 25.5t-27 50.5q-9 38 -9.5 76t1.5 75.5t4 73.5t-1 70q1 7 11 8.5t21 -0.5t18 -7.5t3 -12.5q-8 -59 -16 -120t-7.5 -110.5t14 -81 t49.5 -32.5q24 -1 46 16t41 45.5t35 66.5t28 80q10 34 18.5 68.5t15.5 65t13.5 55t12.5 39.5q2 6 8 7.5t11.5 0t9.5 -5.5t2 -10q-8 -22 -15 -65.5t-12.5 -90t-8.5 -86t-3 -53.5q-1 -15 -1.5 -44t-1 -58.5t-0.5 -52.5t1 -27q46 35 83.5 80t68 96.5t54 108t41.5 115.5 q1 2 3.5 0t4.5 -5.5t2.5 -7.5t-2.5 -7q-13 -30 -30 -78t-45.5 -103.5t-72 -111t-108.5 -100.5v-76t-5.5 -91.5t-18.5 -89t-38 -69.5q-21 -23 -54.5 -34.5t-66.5 -10t-59.5 17.5t-34.5 49zM63 -345q8 -29 27.5 -41t43 -10.5t46 13.5t36.5 30q18 24 27.5 60.5t14 76.5 t5.5 77.5t4 63.5q-34 -21 -73 -49.5t-71 -63t-50 -74t-10 -83.5z" />
<glyph unicode="z" horiz-adv-x="526" d="M115 21q31 50 60.5 100t59.5 104q-7 8 -21.5 11t-30 1.5t-30 -7t-21.5 -14.5q-4 -5 -9.5 -3.5t-3.5 7.5q7 13 21.5 21t32 11t37 1.5t37.5 -7.5q8 16 20 39.5t24 49t22 51t15 44.5q-20 -3 -58.5 -10t-80 -18t-78 -26t-51.5 -35q-8 1 -11 7t-1.5 13.5t7.5 15.5t18 12 q26 10 66 19t81 17t76.5 15.5t52.5 13.5q17 0 23 -7.5t8 -23.5q-3 -20 -12.5 -45.5t-21.5 -51.5t-24.5 -51.5t-21.5 -46.5q23 -5 48 1.5t43 26.5q8 5 10 -1.5t-6 -14.5t-23 -15t-31 -10.5t-30 -4t-18 3.5l-112 -197q56 -5 107.5 7.5t95.5 38.5t79 64t59 83q20 37 39 80 t34 74q4 2 4.5 -1.5t-0.5 -9t-3 -12.5t-4 -11l-4 -9l-10 -22.5t-13 -29.5t-13 -29q-22 -42 -52.5 -87t-77.5 -81t-115.5 -57t-167.5 -15q-10 0 -17 5t-7 16z" />
<glyph unicode="{" horiz-adv-x="244" d="M73 60q-3 36 5.5 82t20 92.5t21.5 87t10 66.5q0 22 -11.5 36t-28.5 21.5t-37 10t-37 3.5q-6 4 -7 9t0 9t2.5 5.5t1.5 -1.5q15 8 33 13t32.5 12t23 19.5t4.5 35.5q-7 39 -12 86t-5.5 94t6 91t24 77.5t48 52.5t77.5 17q8 2 9 -5t-7 -8q-40 -10 -60 -53.5t-29.5 -103.5 t-13.5 -128.5t-11 -129.5q-2 -18 -9.5 -29t-18 -18.5t-22.5 -13.5t-24 -13q33 -8 55 -19t34.5 -26.5t17 -36.5t2.5 -49q-20 -100 -26.5 -174.5t2.5 -125.5q9 -52 30.5 -81t52.5 -40q6 2 6 -5.5t-8 -6.5q-32 0 -58.5 12t-46 32t-31.5 47t-15 56z" />
<glyph unicode="|" horiz-adv-x="190" d="M5 7q-3 0 -4.5 3.5t-1 7.5t3.5 6t8 1q23 3 45.5 22.5t43 47.5t39.5 62t35 68t29.5 64t23.5 51l1.5 4.5t3 9.5t3.5 9.5l2 4.5q4 2 12.5 -0.5t16.5 -7.5t12.5 -11.5t1.5 -12.5q-10 -24 -28.5 -57.5t-41.5 -70.5t-50 -73t-54 -64.5t-53 -46.5t-48 -17z" />
<glyph unicode="}" horiz-adv-x="275" d="M188 841q2 -24 -1.5 -53.5t-10 -61t-15 -63.5t-16 -61t-12.5 -54t-5 -42q0 -23 11.5 -36.5t28.5 -21t37 -10t37 -3.5q6 -4 7 -9t0 -9t-2.5 -5.5t-1.5 1.5q-15 -8 -33 -13t-33 -12t-23.5 -19.5t-3.5 -35.5q6 -34 11.5 -77t6 -88t-6 -88.5t-24 -79t-48 -58.5t-77.5 -27 q-8 -2 -9 5t7 8q26 7 43.5 29t28.5 54.5t17 73t10 84.5t7 88.5t8 85.5q2 18 9.5 29t18 18.5t22.5 13t24 13.5q-33 8 -55 19t-34.5 26.5t-17 36.5t-2.5 49q20 100 26.5 174.5t-2.5 125.5q-9 52 -30.5 81t-52.5 40q-6 -2 -6 5.5t8 6.5q32 0 59 -11t47 -30t32.5 -44.5 t15.5 -54.5z" />
<glyph unicode="~" horiz-adv-x="612" d="M212 470q-27 -3 -46.5 -15t-35 -31.5t-29.5 -46t-30 -57.5q-6 0 -10.5 2t-5.5 10q13 36 29.5 69t40.5 58t57.5 39.5t80.5 14.5q27 -1 46.5 -15t35 -34t28.5 -43t26.5 -43t30 -33t39.5 -13q21 1 38 16t29.5 36.5t20.5 45.5t12 43q10 4 12.5 1.5t0.5 -10.5 q-4 -22 -14 -53.5t-26.5 -60t-41 -48.5t-57.5 -18q-28 0 -49 14t-38.5 34.5t-32.5 44.5t-31.5 44.5t-35.5 34.5t-44 14z" />
<glyph unicode="&#xa1;" horiz-adv-x="246" d="M144.011 747.011q0 13.999 9.5 21.499q9.49902 7.5 20.498 8.49902q11 1 18.999 -4.49902q8 -5.5 6 -18.499q-5 -39.998 -7 -98.9941t-2.5 -127.992t0 -142.491t0.5 -143.491t-0.5 -130.992t-3.49902 -104.993q0 -13 -13.999 -16.999q-14 -4 -29.999 -2t-26.998 8.99902 q-10.999 7 -6.99902 16.999q22.998 164.99 35.4971 350.979q12.5 185.989 0.5 383.977zM210.007 917.001q4 -6 2.5 -16.499q-1.5 -10.5 -7.49902 -19.999q-6 -9.49902 -16 -16.999q-9.99902 -7.5 -23.998 -7.5q-10.999 0 -15.999 7t-6 14.999q-1 16.999 13.5 32.998 q14.499 15.999 32.4971 15.999q14 0 20.999 -9.99902z" />
<glyph unicode="&#xa3;" horiz-adv-x="818" d="M273 343q-14 0 -12 8t13 8l129 3q15 66 25.5 132t17.5 125q-38 -5 -88.5 -3.5t-95.5 15t-76 42t-31 76.5q0 35 21.5 58t50.5 30q7 4 7.5 -2.5t-3.5 -6.5q-24 -9 -42.5 -26.5t-20.5 -52.5q-2 -43 28.5 -68.5t74.5 -37.5t92.5 -13t82.5 5q8 64 31.5 114t55.5 81.5 t69.5 40.5t75.5 -10q17 -9 20 -27t-4.5 -40.5t-24 -47.5t-39.5 -47q-25 -25 -54.5 -41.5t-62.5 -28.5q-10 -76 -18.5 -141t-21.5 -125l140 4q7 0 10.5 -4t3.5 -8.5t-3.5 -8.5t-10.5 -5l-145 1q-16 -72 -41.5 -135t-68.5 -124q17 -24 45 -46t63 -39.5t75.5 -28t83 -11 t85.5 10.5t84 37q10 6 11.5 0t-6.5 -12q-25 -20 -63.5 -31t-84.5 -14.5t-94.5 0.5t-93 16t-81.5 30.5t-58 44.5q-65 -47 -118.5 -54t-93 11t-63.5 53t-30 73q-5 27 1.5 51.5t23 42t41.5 25.5t57 2q35 -7 79 -35t93 -79q26 39 47 94t37 118zM285 88q-42 62 -84 99t-75 43 q-23 4 -41 -2t-29 -20.5t-14 -34.5t3 -43q8 -28 29 -55t52.5 -39t71.5 -2.5t87 54.5zM672 852q-21 10 -46.5 -3t-48.5 -42.5t-40.5 -70.5t-21.5 -87q62 18 107 63q20 20 35 42.5t22.5 42t6 34.5t-13.5 21z" />
<glyph unicode="&#xa8;" horiz-adv-x="237" d="M43 490q-4 6 -2.5 16.5t7.5 20t16 17t24 7.5q11 0 16 -7t6 -15q1 -17 -13.5 -33t-32.5 -16q-14 0 -21 10zM152 490q-4 6 -2.5 16.5t7.5 20t16 17t24 7.5q11 0 16 -7t6 -15q1 -17 -13.5 -33t-32.5 -16q-14 0 -21 10z" />
<glyph unicode="&#xad;" horiz-adv-x="292" d="M106 293q-14 0 -12 8t13 8l152 8q7 0 11 -3.5t4.5 -8t-2.5 -8t-10 -4.5h-156v0z" />
<glyph unicode="&#xaf;" horiz-adv-x="306" d="M45 485q-14 0 -12 8t13 8l210 3q7 0 11 -3.5t4.5 -8t-2.5 -8t-10 -4.5l-214 5v0z" />
<glyph unicode="&#xb4;" horiz-adv-x="169" d="M57 491q-6 -11 -13.5 -11t-13 5.5t-7 14t6.5 14.5l91 112q8 10 17.5 4.5t3.5 -19.5z" />
<glyph unicode="&#xb7;" horiz-adv-x="142" d="M60 316q-4 6 -2.5 16.5t7.5 20t16 17t24 7.5q11 0 16 -7t6 -15q1 -17 -13.5 -33t-32.5 -16q-14 0 -21 10z" />
<glyph unicode="&#xb8;" horiz-adv-x="127" d="M40 1q4 13 13 12t7 -11l-6 -24q36 2 52.5 -13t14.5 -33t-21 -31t-53 -8q-4 -2 -6.5 0t-3 4.5t1 4.5t5.5 0q27 -1 38.5 9t11 22.5t-12 22t-31.5 7.5q-5 -1 -10 3.5t0 14.5v20z" />
<glyph unicode="&#xbf;" horiz-adv-x="537" d="M451.006 881.002q0 -12.999 -10.999 -19.999q-10.999 -6.99902 -24.499 -6.99902q-13.499 0 -24.998 6.49902q-11.499 6.5 -12.499 20.499q0 16.999 10.999 25.998q10.999 9 24.498 9q13.5 0 24.999 -9q11.499 -8.99902 12.499 -25.998zM441.007 757.01 q-1 -6 -1.5 -34.498t0.5 -62.9961t3.5 -67.4961q2.49902 -32.998 5.49902 -49.9971q-2 -16.999 -12.499 -24.998q-10.499 -8 -27.498 -4q-35.998 7 -73.4961 0q-37.4971 -7 -72.4951 -24.998q-34.998 -17.999 -65.4961 -44.498q-30.498 -26.498 -53.4971 -57.4961 q-22.998 -30.998 -35.9971 -65.4961q-13 -34.498 -13 -67.4961q0 -47.9971 16.499 -95.9941t47.4971 -85.9941q30.998 -37.998 75.4961 -61.9971q44.4971 -23.998 101.493 -23.998q23.999 0 54.4971 8.99902q30.498 9 57.4961 26.999q26.999 17.999 44.998 44.9971 q17.998 26.998 16.998 62.9961q0 11.999 -3.99902 29.498q-4 17.499 -13.499 33.498q-9.5 15.999 -25.999 27.498q-16.499 11.5 -43.4971 12.5q-19.999 0 -35.998 -19.999t-22.498 -44.9971q-6.5 -24.999 -2 -45.9971q4.49902 -20.999 26.498 -22.999q8 0 13.499 4 q5.5 3.99902 9.5 9.99902q3.99902 6 5.99902 12.499q2 6.5 2 10.5l9 -3q0 -6 -2.5 -13.499q-2.5 -7.5 -7 -14.499q-4.5 -7 -11.499 -12.5q-7 -5.49902 -15.999 -5.49902q-26.998 -3 -42.998 7.99902q-15.998 10.999 -21.498 29.498t-1.5 39.998t16.999 39.9971 q12.999 18.499 34.498 30.498q21.498 12 49.4971 10q23.998 -1 42.4971 -11q18.499 -9.99902 30.998 -25.498t18.499 -35.498q6 -19.998 6 -41.9971q0 -37.998 -18.999 -66.4961t-46.9971 -47.9971q-27.999 -19.499 -60.9971 -29.998q-32.9971 -10.499 -59.9961 -11.499 q-73.9951 -3 -132.492 18.499q-58.4961 21.498 -98.9932 60.4961q-40.498 38.9971 -61.9961 92.9941q-21.499 53.9971 -21.499 116.993q0 65.9951 36.498 119.492q36.4971 53.4971 91.4941 90.9941q54.9961 37.498 119.492 56.4971t120.493 15.999l3 207.987 q0 8.99902 6.49902 14.499q6.5 5.5 14.999 6q8.5 0.5 15.999 -3.5q7.5 -4 9.5 -13.999z" />
<glyph unicode="&#xc0;" horiz-adv-x="840" d="M421 493q-6 -40 -15.5 -88.5t-24 -97t-35 -94.5t-49 -82t-65.5 -58.5t-85 -24.5t-79 27t-44.5 73.5t-11 96.5t19.5 97.5t49 76t77 31.5q25 0 41.5 -9t26.5 -24.5t14 -37t4 -45.5q-3 -12 -12.5 -13t-8.5 13q0 21 -2 40t-9 33.5t-20.5 23.5t-36.5 9q-28 0 -48.5 -28.5 t-32.5 -71t-14 -92.5t7 -92t30 -69t55 -25q33 2 61 27t51 64t42 87t34 96.5t26 92.5t20 74l-82 11q-6 2 -1.5 9t15.5 6l71 -10l92 399q4 12 12 17.5t15.5 5t12.5 -6t4 -13.5q4 -46 8 -93t8.5 -97t10 -105.5t13.5 -118.5q32 0 55 7.5t39 16.5t25 16.5t12 7.5q4 3 8.5 4t8 0.5 t4.5 -2.5t-2 -6q-34 -31 -68.5 -46t-78.5 -17q2 -26 5 -63t7 -78q7 -74 12.5 -151t22.5 -152q7 -32 18.5 -60.5t30.5 -47.5q17 -17 36 -21t38 1q28 7 49 36q23 33 38.5 86.5t26 112t18 114t14.5 93.5q5 6 11 5t4 -14q-8 -42 -15.5 -98t-18 -113.5t-26 -110t-39.5 -86.5 q-21 -30 -55 -41q-23 -8 -49.5 -5.5t-52.5 13.5q-31 15 -52 43.5t-32 66.5q-4 15 -7.5 32t-7 49t-8 86t-10.5 144l-11 160zM424 513l90 -5l-18 332zM426 1141q-6 14 3.5 19.5t17.5 -4.5l91 -112q7 -6 6 -14.5t-6.5 -14t-13 -5.5t-13.5 11l-85 120v0z" />
<glyph unicode="&#xc1;" horiz-adv-x="840" d="M421 493q-6 -40 -15.5 -88.5t-24 -97t-35 -94.5t-49 -82t-65.5 -58.5t-85 -24.5t-79 27t-44.5 73.5t-11 96.5t19.5 97.5t49 76t77 31.5q25 0 41.5 -9t26.5 -24.5t14 -37t4 -45.5q-3 -12 -12.5 -13t-8.5 13q0 21 -2 40t-9 33.5t-20.5 23.5t-36.5 9q-28 0 -48.5 -28.5 t-32.5 -71t-14 -92.5t7 -92t30 -69t55 -25q33 2 61 27t51 64t42 87t34 96.5t26 92.5t20 74l-82 11q-6 2 -1.5 9t15.5 6l71 -10l92 399q4 12 12 17.5t15.5 5t12.5 -6t4 -13.5q4 -46 8 -93t8.5 -97t10 -105.5t13.5 -118.5q32 0 55 7.5t39 16.5t25 16.5t12 7.5q4 3 8.5 4t8 0.5 t4.5 -2.5t-2 -6q-34 -31 -68.5 -46t-78.5 -17q2 -26 5 -63t7 -78q7 -74 12.5 -151t22.5 -152q7 -32 18.5 -60.5t30.5 -47.5q17 -17 36 -21t38 1q28 7 49 36q23 33 38.5 86.5t26 112t18 114t14.5 93.5q5 6 11 5t4 -14q-8 -42 -15.5 -98t-18 -113.5t-26 -110t-39.5 -86.5 q-21 -30 -55 -41q-23 -8 -49.5 -5.5t-52.5 13.5q-31 15 -52 43.5t-32 66.5q-4 15 -7.5 32t-7 49t-8 86t-10.5 144l-11 160zM424 513l90 -5l-18 332zM442 961q-6 -11 -13.5 -11t-13 5.5t-7 14t6.5 14.5l91 112q8 10 17.5 4.5t3.5 -19.5z" />
<glyph unicode="&#xc2;" horiz-adv-x="840" d="M421 493q-6 -40 -15.5 -88.5t-24 -97t-35 -94.5t-49 -82t-65.5 -58.5t-85 -24.5t-79 27t-44.5 73.5t-11 96.5t19.5 97.5t49 76t77 31.5q25 0 41.5 -9t26.5 -24.5t14 -37t4 -45.5q-3 -12 -12.5 -13t-8.5 13q0 21 -2 40t-9 33.5t-20.5 23.5t-36.5 9q-28 0 -48.5 -28.5 t-32.5 -71t-14 -92.5t7 -92t30 -69t55 -25q33 2 61 27t51 64t42 87t34 96.5t26 92.5t20 74l-82 11q-6 2 -1.5 9t15.5 6l71 -10l92 399q4 12 12 17.5t15.5 5t12.5 -6t4 -13.5q4 -46 8 -93t8.5 -97t10 -105.5t13.5 -118.5q32 0 55 7.5t39 16.5t25 16.5t12 7.5q4 3 8.5 4t8 0.5 t4.5 -2.5t-2 -6q-34 -31 -68.5 -46t-78.5 -17q2 -26 5 -63t7 -78q7 -74 12.5 -151t22.5 -152q7 -32 18.5 -60.5t30.5 -47.5q17 -17 36 -21t38 1q28 7 49 36q23 33 38.5 86.5t26 112t18 114t14.5 93.5q5 6 11 5t4 -14q-8 -42 -15.5 -98t-18 -113.5t-26 -110t-39.5 -86.5 q-21 -30 -55 -41q-23 -8 -49.5 -5.5t-52.5 13.5q-31 15 -52 43.5t-32 66.5q-4 15 -7.5 32t-7 49t-8 86t-10.5 144l-11 160zM424 513l90 -5l-18 332zM414 972q-4 -9 -9 -11t-9.5 0t-7 6t-0.5 8l94 153q7 12 20.5 18.5t27.5 -6.5l104 -155q5 -7 -1 -15t-16 -12.5t-21 -3 t-16 12.5l-86 145l-80 -140v0z" />
<glyph unicode="&#xc3;" horiz-adv-x="840" d="M421 493q-6 -40 -15.5 -88.5t-24 -97t-35 -94.5t-49 -82t-65.5 -58.5t-85 -24.5t-79 27t-44.5 73.5t-11 96.5t19.5 97.5t49 76t77 31.5q25 0 41.5 -9t26.5 -24.5t14 -37t4 -45.5q-3 -12 -12.5 -13t-8.5 13q0 21 -2 40t-9 33.5t-20.5 23.5t-36.5 9q-28 0 -48.5 -28.5 t-32.5 -71t-14 -92.5t7 -92t30 -69t55 -25q33 2 61 27t51 64t42 87t34 96.5t26 92.5t20 74l-82 11q-6 2 -1.5 9t15.5 6l71 -10l92 399q4 12 12 17.5t15.5 5t12.5 -6t4 -13.5q4 -46 8 -93t8.5 -97t10 -105.5t13.5 -118.5q32 0 55 7.5t39 16.5t25 16.5t12 7.5q4 3 8.5 4t8 0.5 t4.5 -2.5t-2 -6q-34 -31 -68.5 -46t-78.5 -17q2 -26 5 -63t7 -78q7 -74 12.5 -151t22.5 -152q7 -32 18.5 -60.5t30.5 -47.5q17 -17 36 -21t38 1q28 7 49 36q23 33 38.5 86.5t26 112t18 114t14.5 93.5q5 6 11 5t4 -14q-8 -42 -15.5 -98t-18 -113.5t-26 -110t-39.5 -86.5 q-21 -30 -55 -41q-23 -8 -49.5 -5.5t-52.5 13.5q-31 15 -52 43.5t-32 66.5q-4 15 -7.5 32t-7 49t-8 86t-10.5 144l-11 160zM424 513l90 -5l-18 332zM420 1092q-18 -2 -31 -9.5t-23.5 -20.5t-19.5 -30.5t-19 -38.5q-10 0 -11 8q9 24 20 45.5t26.5 38t37.5 26.5t53 10 q27 -1 43 -20t29.5 -41t27.5 -40.5t36 -18.5q14 1 25 11t19.5 24t14 30t7.5 28q11 5 9 -6q-3 -14 -9.5 -35t-17.5 -39.5t-27 -31.5t-38 -12q-28 0 -46 19t-33 42t-31.5 42t-41.5 19z" />
<glyph unicode="&#xc4;" horiz-adv-x="840" d="M421 493q-6 -40 -15.5 -88.5t-24 -97t-35 -94.5t-49 -82t-65.5 -58.5t-85 -24.5t-79 27t-44.5 73.5t-11 96.5t19.5 97.5t49 76t77 31.5q25 0 41.5 -9t26.5 -24.5t14 -37t4 -45.5q-3 -12 -12.5 -13t-8.5 13q0 21 -2 40t-9 33.5t-20.5 23.5t-36.5 9q-28 0 -48.5 -28.5 t-32.5 -71t-14 -92.5t7 -92t30 -69t55 -25q33 2 61 27t51 64t42 87t34 96.5t26 92.5t20 74l-82 11q-6 2 -1.5 9t15.5 6l71 -10l92 399q4 12 12 17.5t15.5 5t12.5 -6t4 -13.5q4 -46 8 -93t8.5 -97t10 -105.5t13.5 -118.5q32 0 55 7.5t39 16.5t25 16.5t12 7.5q4 3 8.5 4t8 0.5 t4.5 -2.5t-2 -6q-34 -31 -68.5 -46t-78.5 -17q2 -26 5 -63t7 -78q7 -74 12.5 -151t22.5 -152q7 -32 18.5 -60.5t30.5 -47.5q17 -17 36 -21t38 1q28 7 49 36q23 33 38.5 86.5t26 112t18 114t14.5 93.5q5 6 11 5t4 -14q-8 -42 -15.5 -98t-18 -113.5t-26 -110t-39.5 -86.5 q-21 -30 -55 -41q-23 -8 -49.5 -5.5t-52.5 13.5q-31 15 -52 43.5t-32 66.5q-4 15 -7.5 32t-7 49t-8 86t-10.5 144l-11 160zM424 513l90 -5l-18 332zM423 1005q-4 6 -2.5 16.5t7.5 20t16 17t24 7.5q11 0 16 -7t6 -15q1 -17 -13.5 -33t-32.5 -16q-14 0 -21 10zM532 1005 q-4 6 -2.5 16.5t7.5 20t16 17t24 7.5q11 0 16 -7t6 -15q1 -17 -13.5 -33t-32.5 -16q-14 0 -21 10z" />
<glyph unicode="&#xc5;" horiz-adv-x="840" d="M421 493q-6 -40 -15.5 -88.5t-24 -97t-35 -94.5t-49 -82t-65.5 -58.5t-85 -24.5t-79 27t-44.5 73.5t-11 96.5t19.5 97.5t49 76t77 31.5q25 0 41.5 -9t26.5 -24.5t14 -37t4 -45.5q-3 -12 -12.5 -13t-8.5 13q0 21 -2 40t-9 33.5t-20.5 23.5t-36.5 9q-28 0 -48.5 -28.5 t-32.5 -71t-14 -92.5t7 -92t30 -69t55 -25q33 2 61 27t51 64t42 87t34 96.5t26 92.5t20 74l-82 11q-6 2 -1.5 9t15.5 6l71 -10l92 399q4 12 12 17.5t15.5 5t12.5 -6t4 -13.5q4 -46 8 -93t8.5 -97t10 -105.5t13.5 -118.5q32 0 55 7.5t39 16.5t25 16.5t12 7.5q4 3 8.5 4t8 0.5 t4.5 -2.5t-2 -6q-34 -31 -68.5 -46t-78.5 -17q2 -26 5 -63t7 -78q7 -74 12.5 -151t22.5 -152q7 -32 18.5 -60.5t30.5 -47.5q17 -17 36 -21t38 1q28 7 49 36q23 33 38.5 86.5t26 112t18 114t14.5 93.5q5 6 11 5t4 -14q-8 -42 -15.5 -98t-18 -113.5t-26 -110t-39.5 -86.5 q-21 -30 -55 -41q-23 -8 -49.5 -5.5t-52.5 13.5q-31 15 -52 43.5t-32 66.5q-4 15 -7.5 32t-7 49t-8 86t-10.5 144l-11 160zM424 513l90 -5l-18 332zM438 1104q19 6 44 7.5t49 -4t43 -18.5t26 -35q7 -20 -5 -35t-33.5 -24.5t-49.5 -13t-54.5 0t-47.5 14t-29 30.5 q-6 15 -2.5 27.5t12.5 22t22 17t25 11.5zM586 1045q-1 10 -15.5 17.5t-36 10.5t-46 2t-44.5 -7t-32.5 -17t-9.5 -27q1 -10 16 -16.5t36 -9.5t44.5 -2t43.5 7t32.5 16t11.5 26z" />
<glyph unicode="&#xc6;" horiz-adv-x="1034" d="M1089 375q4 1 6.5 -2t4 -8t2 -10t0.5 -7q-5 -71 -36 -136t-80.5 -115.5t-114.5 -80t-138 -29.5q-52 0 -95 24.5t-74 64.5t-50.5 91.5t-24.5 105.5t4.5 105.5t36.5 92.5l-109 22q-6 -40 -15.5 -88.5t-24 -97t-35 -94.5t-49 -82t-65.5 -58.5t-85 -24.5t-79 27t-44.5 73.5 t-11 96.5t19.5 97.5t49 76t77 31.5q25 0 41.5 -9t26.5 -24.5t14 -37t4 -45.5q-3 -12 -12.5 -13t-8.5 13q0 21 -2 40t-9 33.5t-20.5 23.5t-36.5 9q-28 0 -48.5 -28.5t-32.5 -71t-14 -92.5t7 -92t30 -69t55 -25q33 2 61 27t51 64t42 87t34 96.5t26 92.5t20 74l-82 11 q-6 2 -1.5 9t15.5 6l71 -10l92 399q4 12 12 17.5t15.5 5t12.5 -6t4 -13.5l18 -87q11 35 33 63t57 48q27 15 57 19.5t59 -1.5t56 -22.5t49 -43.5q24 13 41 10.5t27 -13t14 -24.5t3 -24q-1 -8 -4 -11.5t-6.5 -3.5t-6 2.5t-0.5 6.5q0 1 -1 13t-6 22.5t-16.5 14.5t-32.5 -9 q19 -33 26.5 -66t3.5 -58t-19 -38.5t-39 -7.5q-29 7 -40.5 29.5t-10 49.5t13 51.5t26.5 36.5q-18 22 -41.5 38t-48 23t-50 3.5t-47.5 -19.5q-38 -27 -53 -69.5t-11 -93t23 -103.5t49 -101q31 4 55 -0.5t30 -25.5q11 -33 -23 -41q-12 -3 -23.5 0.5t-21.5 10.5t-18 14.5 t-14 13.5q-33 -25 -50 -66.5t-20 -90t7.5 -99t33.5 -94.5t58 -77t81 -45q43 -12 85 -6.5t80 24.5t70.5 49.5t56.5 70t38 85.5t16 96zM545 492q29 35 73 54q-34 38 -54.5 82.5t-27.5 89.5l-40 122l-72 -327zM838 862q-15 -15 -22.5 -37.5t-7.5 -43t7.5 -36t22.5 -17.5t21 13 t4.5 36.5t-8.5 45t-17 39.5zM656 534q4 -6 11 -11.5t14 -10t14 -6.5t13 0q12 4 9 16q-2 7 -10 10.5t-17.5 4t-19 -0.5t-14.5 -2z" />
<glyph unicode="&#xc7;" horiz-adv-x="612" d="M670 310q-13 -27 -34.5 -63.5t-49.5 -76t-61.5 -79t-70.5 -71.5t-76 -53.5t-78 -24.5q-57 -5 -100.5 10.5t-75 44t-52 67t-33 80t-17.5 83t-5 75.5q0 50 7.5 116.5t24 137.5t43 139.5t65.5 122.5t91.5 87.5t119.5 33.5q34 0 65.5 -10t57.5 -29t44.5 -45.5t27.5 -60.5 q9 0 22 -2.5t26 -7.5t24.5 -13t16.5 -20q3 -7 -1.5 -11.5t-9.5 3.5q-7 16 -28.5 26.5t-47.5 8.5q1 -25 -2 -62t-15 -71.5t-33.5 -59.5t-55.5 -25q-29 0 -41.5 15.5t-12.5 39t11 52t30 54.5t44.5 46t54.5 27q-7 30 -22.5 52t-37 36t-48 20.5t-54.5 6.5q-57 0 -101.5 -32.5 t-77 -85t-54.5 -118.5t-35.5 -132.5t-19.5 -127.5t-6 -104q0 -35 4.5 -75t15 -79t28 -75t43 -62.5t60 -41t79.5 -11.5q31 2 67 24.5t72.5 57.5t71.5 78.5t64.5 86.5t51 82t30.5 66q2 6 3.5 1.5t1.5 -14t-2.5 -20.5t-8.5 -17zM455 574q20 -2 38 12t31 40.5t20 64.5t5 85 q-17 0 -36 -14.5t-35.5 -36.5t-29 -48t-17 -48t0.5 -38t23 -17zM272 -56q4 13 13 12t7 -11l-6 -24q36 2 52.5 -13t14.5 -33t-21 -31t-53 -8q-4 -2 -6.5 0t-3 4.5t1 4.5t5.5 0q27 -1 38.5 9t11 22.5t-12 22t-31.5 7.5q-5 -1 -10 3.5t0 14.5v20z" />
<glyph unicode="&#xc8;" horiz-adv-x="598" d="M661 367q4 0 5.5 -3.5t1.5 -9t-1 -10.5t-2 -7q-11 -42 -39.5 -88t-68.5 -90t-89 -82t-101 -63.5t-104 -34.5t-99 5q-60 18 -97 65t-52.5 107.5t-9.5 127.5t31 124.5t69.5 97.5t106.5 47q-27 58 -32 120t11.5 115.5t53.5 92t94 50.5q30 7 60 3t56 -17.5t47 -37t35 -56.5 q27 6 42 -1t22 -20t7 -27.5t-4 -24.5q-3 -8 -7 -10t-7 -1t-4.5 4t0.5 6q1 1 3.5 12.5t0 23t-12 19t-33.5 0.5q9 -37 7 -70.5t-13 -56.5t-29 -32t-40 4q-26 15 -30 40t5 50t26.5 46t35.5 28q-11 26 -29 48t-39.5 35.5t-47 17.5t-51.5 -5q-44 -15 -70.5 -52t-37 -86.5t-7 -106 t18.5 -110.5q31 -5 53 -16t22 -33q0 -35 -34 -33q-12 1 -22 7.5t-18 16t-13.5 19.5t-9.5 17q-38 -16 -66.5 -51t-45.5 -80.5t-21 -97t6 -100t34.5 -90t65.5 -65.5q40 -24 86.5 -22.5t94.5 21t94 54t85 78t67 92t40 96.5zM512 794q-19 -11 -32.5 -30t-19.5 -38.5t-3 -36.5 t17 -23t24 6.5t14.5 33.5t4.5 45.5t-5 42.5zM245 531q5 -14 17.5 -28.5t24.5 -13.5q13 1 13 13q0 7 -6.5 12.5t-15.5 9.5t-18 5.5t-15 1.5zM279 1104q-6 14 3.5 19.5t17.5 -4.5l91 -112q7 -6 6 -14.5t-6.5 -14t-13 -5.5t-13.5 11l-85 120v0z" />
<glyph unicode="&#xc9;" horiz-adv-x="598" d="M661 367q4 0 5.5 -3.5t1.5 -9t-1 -10.5t-2 -7q-11 -42 -39.5 -88t-68.5 -90t-89 -82t-101 -63.5t-104 -34.5t-99 5q-60 18 -97 65t-52.5 107.5t-9.5 127.5t31 124.5t69.5 97.5t106.5 47q-27 58 -32 120t11.5 115.5t53.5 92t94 50.5q30 7 60 3t56 -17.5t47 -37t35 -56.5 q27 6 42 -1t22 -20t7 -27.5t-4 -24.5q-3 -8 -7 -10t-7 -1t-4.5 4t0.5 6q1 1 3.5 12.5t0 23t-12 19t-33.5 0.5q9 -37 7 -70.5t-13 -56.5t-29 -32t-40 4q-26 15 -30 40t5 50t26.5 46t35.5 28q-11 26 -29 48t-39.5 35.5t-47 17.5t-51.5 -5q-44 -15 -70.5 -52t-37 -86.5t-7 -106 t18.5 -110.5q31 -5 53 -16t22 -33q0 -35 -34 -33q-12 1 -22 7.5t-18 16t-13.5 19.5t-9.5 17q-38 -16 -66.5 -51t-45.5 -80.5t-21 -97t6 -100t34.5 -90t65.5 -65.5q40 -24 86.5 -22.5t94.5 21t94 54t85 78t67 92t40 96.5zM512 794q-19 -11 -32.5 -30t-19.5 -38.5t-3 -36.5 t17 -23t24 6.5t14.5 33.5t4.5 45.5t-5 42.5zM245 531q5 -14 17.5 -28.5t24.5 -13.5q13 1 13 13q0 7 -6.5 12.5t-15.5 9.5t-18 5.5t-15 1.5zM315 967q-6 -11 -13.5 -11t-13 5.5t-7 14t6.5 14.5l91 112q8 10 17.5 4.5t3.5 -19.5z" />
<glyph unicode="&#xca;" horiz-adv-x="598" d="M661 367q4 0 5.5 -3.5t1.5 -9t-1 -10.5t-2 -7q-11 -42 -39.5 -88t-68.5 -90t-89 -82t-101 -63.5t-104 -34.5t-99 5q-60 18 -97 65t-52.5 107.5t-9.5 127.5t31 124.5t69.5 97.5t106.5 47q-27 58 -32 120t11.5 115.5t53.5 92t94 50.5q30 7 60 3t56 -17.5t47 -37t35 -56.5 q27 6 42 -1t22 -20t7 -27.5t-4 -24.5q-3 -8 -7 -10t-7 -1t-4.5 4t0.5 6q1 1 3.5 12.5t0 23t-12 19t-33.5 0.5q9 -37 7 -70.5t-13 -56.5t-29 -32t-40 4q-26 15 -30 40t5 50t26.5 46t35.5 28q-11 26 -29 48t-39.5 35.5t-47 17.5t-51.5 -5q-44 -15 -70.5 -52t-37 -86.5t-7 -106 t18.5 -110.5q31 -5 53 -16t22 -33q0 -35 -34 -33q-12 1 -22 7.5t-18 16t-13.5 19.5t-9.5 17q-38 -16 -66.5 -51t-45.5 -80.5t-21 -97t6 -100t34.5 -90t65.5 -65.5q40 -24 86.5 -22.5t94.5 21t94 54t85 78t67 92t40 96.5zM512 794q-19 -11 -32.5 -30t-19.5 -38.5t-3 -36.5 t17 -23t24 6.5t14.5 33.5t4.5 45.5t-5 42.5zM245 531q5 -14 17.5 -28.5t24.5 -13.5q13 1 13 13q0 7 -6.5 12.5t-15.5 9.5t-18 5.5t-15 1.5zM274 966q-4 -9 -9 -11t-9.5 0t-7 6t-0.5 8l94 153q7 12 20.5 18.5t27.5 -6.5l104 -155q5 -7 -1 -15t-16 -12.5t-21 -3t-16 12.5 l-86 145l-80 -140v0z" />
<glyph unicode="&#xcb;" horiz-adv-x="598" d="M661 367q4 0 5.5 -3.5t1.5 -9t-1 -10.5t-2 -7q-11 -42 -39.5 -88t-68.5 -90t-89 -82t-101 -63.5t-104 -34.5t-99 5q-60 18 -97 65t-52.5 107.5t-9.5 127.5t31 124.5t69.5 97.5t106.5 47q-27 58 -32 120t11.5 115.5t53.5 92t94 50.5q30 7 60 3t56 -17.5t47 -37t35 -56.5 q27 6 42 -1t22 -20t7 -27.5t-4 -24.5q-3 -8 -7 -10t-7 -1t-4.5 4t0.5 6q1 1 3.5 12.5t0 23t-12 19t-33.5 0.5q9 -37 7 -70.5t-13 -56.5t-29 -32t-40 4q-26 15 -30 40t5 50t26.5 46t35.5 28q-11 26 -29 48t-39.5 35.5t-47 17.5t-51.5 -5q-44 -15 -70.5 -52t-37 -86.5t-7 -106 t18.5 -110.5q31 -5 53 -16t22 -33q0 -35 -34 -33q-12 1 -22 7.5t-18 16t-13.5 19.5t-9.5 17q-38 -16 -66.5 -51t-45.5 -80.5t-21 -97t6 -100t34.5 -90t65.5 -65.5q40 -24 86.5 -22.5t94.5 21t94 54t85 78t67 92t40 96.5zM512 794q-19 -11 -32.5 -30t-19.5 -38.5t-3 -36.5 t17 -23t24 6.5t14.5 33.5t4.5 45.5t-5 42.5zM245 531q5 -14 17.5 -28.5t24.5 -13.5q13 1 13 13q0 7 -6.5 12.5t-15.5 9.5t-18 5.5t-15 1.5zM286 966q-4 6 -2.5 16.5t7.5 20t16 17t24 7.5q11 0 16 -7t6 -15q1 -17 -13.5 -33t-32.5 -16q-14 0 -21 10zM395 966q-4 6 -2.5 16.5 t7.5 20t16 17t24 7.5q11 0 16 -7t6 -15q1 -17 -13.5 -33t-32.5 -16q-14 0 -21 10z" />
<glyph unicode="&#xcc;" d="M92 655q-1 -10 -5 -14t-9 -5t-9.5 1.5t-6.5 6.5q-7 14 0.5 22t22.5 8q18 -2 28 -16.5t10 -25.5q-1 -27 -19 -38.5t-40 -8.5t-40.5 20.5t-20.5 49.5q0 32 19 50t46.5 26.5t57 11t50.5 4.5q-2 87 13 134t59 51q18 1 28 -11t13.5 -31.5t1 -43t-10.5 -45.5t-21 -39t-29 -23 q3 -42 5.5 -106.5t4 -140t2 -155.5t-1 -152t-4.5 -130t-8 -89q0 -8 -14 -11.5t-30 -2.5t-27.5 6t-6.5 15q12 82 19.5 176t11 192t3 196.5t-6.5 189.5q-18 0 -45 -0.5t-52 -7.5t-43 -22t-18 -45q1 -19 14 -32.5t29 -18t30.5 2t17.5 28.5q0 3 -2.5 12t-15.5 11zM248 919 q-11 -1 -16 -22.5t-6.5 -48.5t-1 -53.5t2.5 -37.5q11 3 21 16.5t16.5 32t9.5 39t1.5 37.5t-8 27.5t-19.5 9.5zM158 1081q-6 14 3.5 19.5t17.5 -4.5l91 -112q7 -6 6 -14.5t-6.5 -14t-13 -5.5t-13.5 11l-85 120v0z" />
<glyph unicode="&#xcd;" d="M92 655q-1 -10 -5 -14t-9 -5t-9.5 1.5t-6.5 6.5q-7 14 0.5 22t22.5 8q18 -2 28 -16.5t10 -25.5q-1 -27 -19 -38.5t-40 -8.5t-40.5 20.5t-20.5 49.5q0 32 19 50t46.5 26.5t57 11t50.5 4.5q-2 87 13 134t59 51q18 1 28 -11t13.5 -31.5t1 -43t-10.5 -45.5t-21 -39t-29 -23 q3 -42 5.5 -106.5t4 -140t2 -155.5t-1 -152t-4.5 -130t-8 -89q0 -8 -14 -11.5t-30 -2.5t-27.5 6t-6.5 15q12 82 19.5 176t11 192t3 196.5t-6.5 189.5q-18 0 -45 -0.5t-52 -7.5t-43 -22t-18 -45q1 -19 14 -32.5t29 -18t30.5 2t17.5 28.5q0 3 -2.5 12t-15.5 11zM248 919 q-11 -1 -16 -22.5t-6.5 -48.5t-1 -53.5t2.5 -37.5q11 3 21 16.5t16.5 32t9.5 39t1.5 37.5t-8 27.5t-19.5 9.5zM184 964q-6 -11 -13.5 -11t-13 5.5t-7 14t6.5 14.5l91 112q8 10 17.5 4.5t3.5 -19.5z" />
<glyph unicode="&#xce;" d="M92 655q-1 -10 -5 -14t-9 -5t-9.5 1.5t-6.5 6.5q-7 14 0.5 22t22.5 8q18 -2 28 -16.5t10 -25.5q-1 -27 -19 -38.5t-40 -8.5t-40.5 20.5t-20.5 49.5q0 32 19 50t46.5 26.5t57 11t50.5 4.5q-2 87 13 134t59 51q18 1 28 -11t13.5 -31.5t1 -43t-10.5 -45.5t-21 -39t-29 -23 q3 -42 5.5 -106.5t4 -140t2 -155.5t-1 -152t-4.5 -130t-8 -89q0 -8 -14 -11.5t-30 -2.5t-27.5 6t-6.5 15q12 82 19.5 176t11 192t3 196.5t-6.5 189.5q-18 0 -45 -0.5t-52 -7.5t-43 -22t-18 -45q1 -19 14 -32.5t29 -18t30.5 2t17.5 28.5q0 3 -2.5 12t-15.5 11zM248 919 q-11 -1 -16 -22.5t-6.5 -48.5t-1 -53.5t2.5 -37.5q11 3 21 16.5t16.5 32t9.5 39t1.5 37.5t-8 27.5t-19.5 9.5zM106 965q-4 -9 -9 -11t-9.5 0t-7 6t-0.5 8l94 153q7 12 20.5 18.5t27.5 -6.5l104 -155q5 -7 -1 -15t-16 -12.5t-21 -3t-16 12.5l-86 145l-80 -140v0z" />
<glyph unicode="&#xcf;" d="M92 655q-1 -10 -5 -14t-9 -5t-9.5 1.5t-6.5 6.5q-7 14 0.5 22t22.5 8q18 -2 28 -16.5t10 -25.5q-1 -27 -19 -38.5t-40 -8.5t-40.5 20.5t-20.5 49.5q0 32 19 50t46.5 26.5t57 11t50.5 4.5q-2 87 13 134t59 51q18 1 28 -11t13.5 -31.5t1 -43t-10.5 -45.5t-21 -39t-29 -23 q3 -42 5.5 -106.5t4 -140t2 -155.5t-1 -152t-4.5 -130t-8 -89q0 -8 -14 -11.5t-30 -2.5t-27.5 6t-6.5 15q12 82 19.5 176t11 192t3 196.5t-6.5 189.5q-18 0 -45 -0.5t-52 -7.5t-43 -22t-18 -45q1 -19 14 -32.5t29 -18t30.5 2t17.5 28.5q0 3 -2.5 12t-15.5 11zM248 919 q-11 -1 -16 -22.5t-6.5 -48.5t-1 -53.5t2.5 -37.5q11 3 21 16.5t16.5 32t9.5 39t1.5 37.5t-8 27.5t-19.5 9.5zM136 976q-4 6 -2.5 16.5t7.5 20t16 17t24 7.5q11 0 16 -7t6 -15q1 -17 -13.5 -33t-32.5 -16q-14 0 -21 10zM245 976q-4 6 -2.5 16.5t7.5 20t16 17t24 7.5 q11 0 16 -7t6 -15q1 -17 -13.5 -33t-32.5 -16q-14 0 -21 10z" />
<glyph unicode="&#xd0;" horiz-adv-x="967" d="M930 475q5 -82 -19 -165t-69 -154t-107.5 -123.5t-134 -73.5t-147 -4t-147.5 85q-29 -24 -69.5 -38.5t-81.5 -15.5q-32 -1 -61.5 7.5t-50.5 27t-31 48.5t-4 73q3 11 9.5 9.5t5.5 -11.5q-5 -29 3.5 -48.5t26 -31t41.5 -15.5t51 -1q32 3 63.5 14.5t57.5 29.5 q-8 18 -11.5 42t2.5 47t24 42.5t52 29.5q11 2 13.5 -4.5t-6.5 -8.5q-12 1 -28.5 -8t-28.5 -27t-15.5 -43.5t10.5 -58.5q39 29 70 84t56.5 124t47 146t42.5 149t43 133.5t47 99.5q-36 11 -80.5 16.5t-91 3t-91 -13.5t-80 -33.5t-58.5 -57t-27 -84.5q0 -31 11.5 -58.5t32 -48 t47.5 -32.5t58 -12q35 0 57.5 21t22.5 55q0 8 -3 18.5t-8 19.5t-13.5 15.5t-18.5 6.5q-5 -2 -8.5 1t-4.5 7t0.5 7.5t6.5 2.5q13 0 25 -8t21 -19.5t14.5 -25t5.5 -25.5q0 -44 -29 -67.5t-70 -23.5q-33 0 -63 13t-52.5 35.5t-35.5 53t-13 64.5q5 55 29.5 92.5t62 61t84.5 34.5 t96 13.5t96.5 -2.5t87.5 -13q30 48 64 79.5t68.5 49t69 21.5t65.5 -2q36 -8 59 -35.5t28 -59t-8.5 -59.5t-49.5 -35q-20 -4 -39 4t-33 31q-4 6 1 9.5t10 -1.5q13 -18 28.5 -24t29.5 -3q28 6 38 28.5t5.5 49t-22 49.5t-43.5 30q-28 7 -60 2t-64.5 -22.5t-62 -47.5t-53.5 -73 q55 -22 108 -57t95 -81.5t69 -104.5t32 -125zM317 50q54 -48 107.5 -66t103.5 -11.5t96 34t85.5 69t71 94t53 109t32.5 113.5t9 109q-3 59 -23.5 110t-55 92.5t-80.5 72.5t-100 49q-20 -44 -35 -107.5t-30.5 -136.5t-33.5 -149.5t-44.5 -148t-64 -132.5t-91.5 -101zM351 360 q-14 0 -12 8t13 8l210 3q7 0 11 -3.5t4.5 -8t-2.5 -8t-10 -4.5l-214 5v0z" />
<glyph unicode="&#xd1;" horiz-adv-x="696" d="M350 326q-5 -32 -12.5 -72.5t-19 -83t-28 -84t-39 -75t-52 -55t-66.5 -24.5q-34 -3 -58 16.5t-36 50t-11.5 67t15 68t42.5 52.5t72 22q21 0 35 -11t20 -27.5t4.5 -35t-11.5 -33.5q-6 -9 -13 -6t-4 14q4 11 5.5 24.5t-2 25t-12.5 19.5t-24 8q-23 1 -39.5 -16.5t-25 -43 t-9.5 -55.5t7.5 -54.5t25 -40t43.5 -12.5t49.5 24.5t40.5 54t32.5 74t24.5 84.5t16.5 84.5t9.5 75.5q-15 28 -31.5 62t-32.5 70.5t-31 73.5t-27 72q-14 39 -21.5 78t-7.5 76q0 24 5.5 49.5t17 46.5t29 34t41.5 13q33 0 53 -30.5t30.5 -78t14 -106t2.5 -114t-4.5 -102.5 t-5.5 -72l275 -432q1 21 -3.5 70t-11.5 115t-14.5 144t-11 156.5t-1.5 152.5t14 133.5t35.5 98t63.5 45.5q28 5 43.5 -14t20 -46t-0.5 -53t-17 -35q-11 -8 -18 -7.5t-10.5 5.5t-3 11.5t5.5 9.5q15 11 21 31.5t4 40t-11.5 33.5t-25.5 12q-33 -4 -53 -38t-30 -89.5 t-11.5 -127.5t1.5 -151t9.5 -160.5t12 -155.5t9 -137t1.5 -104q-4 -14 -11 -17.5t-14.5 -1t-15 9.5t-13.5 15q-2 2 -6 7t-13.5 18t-26 37.5t-44 66t-67 102.5t-94.5 148zM235 795q0 -33 7 -70.5t19 -76.5q16 -51 38.5 -100.5t45.5 -91.5q2 39 3 85.5t0.5 93t-4.5 90 t-12 76.5t-22 52t-35 17q-14 -2 -21.5 -10t-12 -19t-5.5 -23.5t-1 -22.5zM409 1070q-18 -2 -31 -9.5t-23.5 -20.5t-19.5 -30.5t-19 -38.5q-10 0 -11 8q9 24 20 45.5t26.5 38t37.5 26.5t53 10q27 -1 43 -20t29.5 -41t27.5 -40.5t36 -18.5q14 1 25 11t19.5 24t14 30t7.5 28 q11 5 9 -6q-3 -14 -9.5 -35t-17.5 -39.5t-27 -31.5t-38 -12q-28 0 -46 19t-33 42t-31.5 42t-41.5 19z" />
<glyph unicode="&#xd2;" horiz-adv-x="757" d="M22 522q5 45 17 96t33.5 101.5t53 97t75.5 82t100.5 56.5t128.5 21q22 0 49 -4.5t54.5 -15t52 -27.5t41.5 -41.5t23 -57.5t-4 -76q21 -64 27 -137.5t4 -136.5q-2 -45 -7.5 -95.5t-18.5 -101.5q19 7 41.5 17.5t43.5 22.5t38.5 24t27.5 23q3 1 4 -1.5t1 -6t-1.5 -6.5 t-3.5 -4q-15 -12 -35 -24t-41 -23.5t-42 -21.5t-37 -17q-14 -50 -34.5 -96t-50 -82t-68.5 -59.5t-90 -28.5q-91 -8 -156 16t-108.5 68.5t-69 103t-38 119.5t-13.5 117.5t3 97.5zM530 761q-3 9 0.5 16.5t13.5 7.5q6 0 10.5 -4.5t4.5 -10.5t-6 -12q7 -10 22 -14.5t26 -2.5 t18 8t12 13q-20 58 -57 96.5t-100 40.5q-39 1 -72.5 -32t-58.5 -85.5t-40.5 -117t-18.5 -126.5q-3 -71 10 -121.5t38 -84t59.5 -51t73.5 -23t80.5 -0.5t80.5 18q14 56 23 108.5t11 92.5q1 30 0.5 63.5t-2.5 68t-7 69t-14 66.5q-15 -12 -34 -16q-8 -2 -19.5 -0.5t-22.5 5.5 t-19.5 11t-11.5 17zM470 910q33 0 59 -10t47 -28t36.5 -43t26.5 -54q4 54 -16.5 90.5t-53.5 59t-71 32t-69 8.5q-69 -2 -126 -44.5t-99 -108.5t-67.5 -146.5t-31.5 -158.5q-4 -50 -0.5 -107.5t16 -114t34.5 -108t56 -89.5t80.5 -59t107.5 -16q48 4 84 25.5t62.5 55.5 t44.5 76.5t31 87.5q-77 -29 -150.5 -31t-129 30.5t-87 101t-24.5 180.5q4 66 22.5 132t49.5 119t73.5 86.5t94.5 33.5zM321 1175q-6 14 3.5 19.5t17.5 -4.5l91 -112q7 -6 6 -14.5t-6.5 -14t-13 -5.5t-13.5 11l-85 120v0z" />
<glyph unicode="&#xd3;" horiz-adv-x="746" d="M22 522q5 45 17 96t33.5 101.5t53 97t75.5 82t100.5 56.5t128.5 21q22 0 49 -4.5t54.5 -15t52 -27.5t41.5 -41.5t23 -57.5t-4 -76q21 -64 27 -137.5t4 -136.5q-2 -45 -7.5 -95.5t-18.5 -101.5q19 7 41.5 17.5t43.5 22.5t38.5 24t27.5 23q3 1 4 -1.5t1 -6t-1.5 -6.5 t-3.5 -4q-15 -12 -35 -24t-41 -23.5t-42 -21.5t-37 -17q-14 -50 -34.5 -96t-50 -82t-68.5 -59.5t-90 -28.5q-91 -8 -156 16t-108.5 68.5t-69 103t-38 119.5t-13.5 117.5t3 97.5zM530 761q-3 9 0.5 16.5t13.5 7.5q6 0 10.5 -4.5t4.5 -10.5t-6 -12q7 -10 22 -14.5t26 -2.5 t18 8t12 13q-20 58 -57 96.5t-100 40.5q-39 1 -72.5 -32t-58.5 -85.5t-40.5 -117t-18.5 -126.5q-3 -71 10 -121.5t38 -84t59.5 -51t73.5 -23t80.5 -0.5t80.5 18q14 56 23 108.5t11 92.5q1 30 0.5 63.5t-2.5 68t-7 69t-14 66.5q-15 -12 -34 -16q-8 -2 -19.5 -0.5t-22.5 5.5 t-19.5 11t-11.5 17zM470 910q33 0 59 -10t47 -28t36.5 -43t26.5 -54q4 54 -16.5 90.5t-53.5 59t-71 32t-69 8.5q-69 -2 -126 -44.5t-99 -108.5t-67.5 -146.5t-31.5 -158.5q-4 -50 -0.5 -107.5t16 -114t34.5 -108t56 -89.5t80.5 -59t107.5 -16q48 4 84 25.5t62.5 55.5 t44.5 76.5t31 87.5q-77 -29 -150.5 -31t-129 30.5t-87 101t-24.5 180.5q4 66 22.5 132t49.5 119t73.5 86.5t94.5 33.5zM350 1015q-6 -11 -13.5 -11t-13 5.5t-7 14t6.5 14.5l91 112q8 10 17.5 4.5t3.5 -19.5z" />
<glyph unicode="&#xd4;" horiz-adv-x="757" d="M22 522q5 45 17 96t33.5 101.5t53 97t75.5 82t100.5 56.5t128.5 21q22 0 49 -4.5t54.5 -15t52 -27.5t41.5 -41.5t23 -57.5t-4 -76q21 -64 27 -137.5t4 -136.5q-2 -45 -7.5 -95.5t-18.5 -101.5q19 7 41.5 17.5t43.5 22.5t38.5 24t27.5 23q3 1 4 -1.5t1 -6t-1.5 -6.5 t-3.5 -4q-15 -12 -35 -24t-41 -23.5t-42 -21.5t-37 -17q-14 -50 -34.5 -96t-50 -82t-68.5 -59.5t-90 -28.5q-91 -8 -156 16t-108.5 68.5t-69 103t-38 119.5t-13.5 117.5t3 97.5zM530 761q-3 9 0.5 16.5t13.5 7.5q6 0 10.5 -4.5t4.5 -10.5t-6 -12q7 -10 22 -14.5t26 -2.5 t18 8t12 13q-20 58 -57 96.5t-100 40.5q-39 1 -72.5 -32t-58.5 -85.5t-40.5 -117t-18.5 -126.5q-3 -71 10 -121.5t38 -84t59.5 -51t73.5 -23t80.5 -0.5t80.5 18q14 56 23 108.5t11 92.5q1 30 0.5 63.5t-2.5 68t-7 69t-14 66.5q-15 -12 -34 -16q-8 -2 -19.5 -0.5t-22.5 5.5 t-19.5 11t-11.5 17zM470 910q33 0 59 -10t47 -28t36.5 -43t26.5 -54q4 54 -16.5 90.5t-53.5 59t-71 32t-69 8.5q-69 -2 -126 -44.5t-99 -108.5t-67.5 -146.5t-31.5 -158.5q-4 -50 -0.5 -107.5t16 -114t34.5 -108t56 -89.5t80.5 -59t107.5 -16q48 4 84 25.5t62.5 55.5 t44.5 76.5t31 87.5q-77 -29 -150.5 -31t-129 30.5t-87 101t-24.5 180.5q4 66 22.5 132t49.5 119t73.5 86.5t94.5 33.5zM271 1021q-4 -9 -9 -11t-9.5 0t-7 6t-0.5 8l94 153q7 12 20.5 18.5t27.5 -6.5l104 -155q5 -7 -1 -15t-16 -12.5t-21 -3t-16 12.5l-86 145l-80 -140v0z " />
<glyph unicode="&#xd5;" horiz-adv-x="757" d="M22 522q5 45 17 96t33.5 101.5t53 97t75.5 82t100.5 56.5t128.5 21q22 0 49 -4.5t54.5 -15t52 -27.5t41.5 -41.5t23 -57.5t-4 -76q21 -64 27 -137.5t4 -136.5q-2 -45 -7.5 -95.5t-18.5 -101.5q19 7 41.5 17.5t43.5 22.5t38.5 24t27.5 23q3 1 4 -1.5t1 -6t-1.5 -6.5 t-3.5 -4q-15 -12 -35 -24t-41 -23.5t-42 -21.5t-37 -17q-14 -50 -34.5 -96t-50 -82t-68.5 -59.5t-90 -28.5q-91 -8 -156 16t-108.5 68.5t-69 103t-38 119.5t-13.5 117.5t3 97.5zM530 761q-3 9 0.5 16.5t13.5 7.5q6 0 10.5 -4.5t4.5 -10.5t-6 -12q7 -10 22 -14.5t26 -2.5 t18 8t12 13q-20 58 -57 96.5t-100 40.5q-39 1 -72.5 -32t-58.5 -85.5t-40.5 -117t-18.5 -126.5q-3 -71 10 -121.5t38 -84t59.5 -51t73.5 -23t80.5 -0.5t80.5 18q14 56 23 108.5t11 92.5q1 30 0.5 63.5t-2.5 68t-7 69t-14 66.5q-15 -12 -34 -16q-8 -2 -19.5 -0.5t-22.5 5.5 t-19.5 11t-11.5 17zM470 910q33 0 59 -10t47 -28t36.5 -43t26.5 -54q4 54 -16.5 90.5t-53.5 59t-71 32t-69 8.5q-69 -2 -126 -44.5t-99 -108.5t-67.5 -146.5t-31.5 -158.5q-4 -50 -0.5 -107.5t16 -114t34.5 -108t56 -89.5t80.5 -59t107.5 -16q48 4 84 25.5t62.5 55.5 t44.5 76.5t31 87.5q-77 -29 -150.5 -31t-129 30.5t-87 101t-24.5 180.5q4 66 22.5 132t49.5 119t73.5 86.5t94.5 33.5zM328 1136q-18 -2 -31 -9.5t-23.5 -20.5t-19.5 -30.5t-19 -38.5q-10 0 -11 8q9 24 20 45.5t26.5 38t37.5 26.5t53 10q27 -1 43 -20t29.5 -41t27.5 -40.5 t36 -18.5q14 1 25 11t19.5 24t14 30t7.5 28q11 5 9 -6q-3 -14 -9.5 -35t-17.5 -39.5t-27 -31.5t-38 -12q-28 0 -46 19t-33 42t-31.5 42t-41.5 19z" />
<glyph unicode="&#xd6;" horiz-adv-x="757" d="M22 522q5 45 17 96t33.5 101.5t53 97t75.5 82t100.5 56.5t128.5 21q22 0 49 -4.5t54.5 -15t52 -27.5t41.5 -41.5t23 -57.5t-4 -76q21 -64 27 -137.5t4 -136.5q-2 -45 -7.5 -95.5t-18.5 -101.5q19 7 41.5 17.5t43.5 22.5t38.5 24t27.5 23q3 1 4 -1.5t1 -6t-1.5 -6.5 t-3.5 -4q-15 -12 -35 -24t-41 -23.5t-42 -21.5t-37 -17q-14 -50 -34.5 -96t-50 -82t-68.5 -59.5t-90 -28.5q-91 -8 -156 16t-108.5 68.5t-69 103t-38 119.5t-13.5 117.5t3 97.5zM530 761q-3 9 0.5 16.5t13.5 7.5q6 0 10.5 -4.5t4.5 -10.5t-6 -12q7 -10 22 -14.5t26 -2.5 t18 8t12 13q-20 58 -57 96.5t-100 40.5q-39 1 -72.5 -32t-58.5 -85.5t-40.5 -117t-18.5 -126.5q-3 -71 10 -121.5t38 -84t59.5 -51t73.5 -23t80.5 -0.5t80.5 18q14 56 23 108.5t11 92.5q1 30 0.5 63.5t-2.5 68t-7 69t-14 66.5q-15 -12 -34 -16q-8 -2 -19.5 -0.5t-22.5 5.5 t-19.5 11t-11.5 17zM470 910q33 0 59 -10t47 -28t36.5 -43t26.5 -54q4 54 -16.5 90.5t-53.5 59t-71 32t-69 8.5q-69 -2 -126 -44.5t-99 -108.5t-67.5 -146.5t-31.5 -158.5q-4 -50 -0.5 -107.5t16 -114t34.5 -108t56 -89.5t80.5 -59t107.5 -16q48 4 84 25.5t62.5 55.5 t44.5 76.5t31 87.5q-77 -29 -150.5 -31t-129 30.5t-87 101t-24.5 180.5q4 66 22.5 132t49.5 119t73.5 86.5t94.5 33.5zM294 1024q-4 6 -2.5 16.5t7.5 20t16 17t24 7.5q11 0 16 -7t6 -15q1 -17 -13.5 -33t-32.5 -16q-14 0 -21 10zM403 1024q-4 6 -2.5 16.5t7.5 20t16 17 t24 7.5q11 0 16 -7t6 -15q1 -17 -13.5 -33t-32.5 -16q-14 0 -21 10z" />
<glyph unicode="&#xd8;" horiz-adv-x="757" d="M22 522q5 45 17 96t33.5 101.5t53 97t75.5 82t100.5 56.5t128.5 21q22 0 49 -4.5t54.5 -15t52 -27.5t41.5 -41.5t23 -57.5t-4 -76q21 -64 27 -137.5t4 -136.5q-2 -45 -7.5 -95.5t-18.5 -101.5q19 7 41.5 17.5t43.5 22.5t38.5 24t27.5 23q3 1 4 -1.5t1 -6t-1.5 -6.5 t-3.5 -4q-15 -12 -35 -24t-41 -23.5t-42 -21.5t-37 -17q-14 -50 -34.5 -96t-50 -82t-68.5 -59.5t-90 -28.5q-91 -8 -156 16t-108.5 68.5t-69 103t-38 119.5t-13.5 117.5t3 97.5zM530 761q-3 9 0.5 16.5t13.5 7.5q6 0 10.5 -4.5t4.5 -10.5t-6 -12q7 -10 22 -14.5t26 -2.5 t18 8t12 13q-20 58 -57 96.5t-100 40.5q-39 1 -72.5 -32t-58.5 -85.5t-40.5 -117t-18.5 -126.5q-3 -71 10 -121.5t38 -84t59.5 -51t73.5 -23t80.5 -0.5t80.5 18q14 56 23 108.5t11 92.5q1 30 0.5 63.5t-2.5 68t-7 69t-14 66.5q-15 -12 -34 -16q-8 -2 -19.5 -0.5t-22.5 5.5 t-19.5 11t-11.5 17zM470 910q33 0 59 -10t47 -28t36.5 -43t26.5 -54q4 54 -16.5 90.5t-53.5 59t-71 32t-69 8.5q-69 -2 -126 -44.5t-99 -108.5t-67.5 -146.5t-31.5 -158.5q-4 -50 -0.5 -107.5t16 -114t34.5 -108t56 -89.5t80.5 -59t107.5 -16q48 4 84 25.5t62.5 55.5 t44.5 76.5t31 87.5q-77 -29 -150.5 -31t-129 30.5t-87 101t-24.5 180.5q4 66 22.5 132t49.5 119t73.5 86.5t94.5 33.5zM576 959q7 12 17 13.5t19 -3.5t13.5 -15.5t0.5 -23.5l-454 -911q-8 -5 -13 -4.5t-7.5 4.5t-3.5 9t0 10z" />
<glyph unicode="&#xd9;" horiz-adv-x="957" d="M194 744q2 16 13.5 17t18.5 -6q16 -17 24.5 -42t9 -52t-6.5 -53.5t-23 -46t-40 -29.5t-57 -4q-55 9 -80.5 44t-28 82t16 98.5t51.5 95t78.5 71.5t96.5 27q32 -1 70 -6t70 -19q39 -17 60 -45t28.5 -62.5t1.5 -73.5t-21 -78q-24 -62 -59 -123.5t-68 -124.5t-57.5 -128 t-28.5 -135q-1 -13 1 -31t8.5 -35.5t18.5 -30.5t33 -15q24 -3 53.5 16.5t61.5 54.5t65 81.5t64 98.5t59 106t50 104q7 35 13 85t14.5 104.5t20.5 107.5t30.5 94.5t45 66t63.5 22.5q22 -1 27.5 -24.5t-1 -60.5t-21.5 -84t-35.5 -96t-43 -96t-42.5 -83q0 -8 -5 -36t-12 -68 t-14 -88.5t-11.5 -98t-4.5 -96.5t6.5 -83.5t22 -58.5t42.5 -23q31 -1 59.5 22.5t53.5 60.5t45.5 82t36 87t25 75t13.5 47q8 4 7 -7t-7 -42q-5 -26 -16.5 -61.5t-28 -73t-37.5 -74.5t-45.5 -66.5t-51 -48t-54.5 -19.5q-172 -5 -92 481q-16 -33 -38.5 -78t-51 -92.5t-62 -94 t-69.5 -84t-75 -61.5t-78 -26q-27 -2 -50 10t-39.5 31.5t-25.5 43.5t-9 47q0 57 17.5 114.5t43.5 114.5t57 114t57 113t43.5 111t17.5 109q0 30 -13.5 51t-35 34t-48.5 18.5t-53 5.5q-47 0 -88 -26.5t-71.5 -67t-47 -88.5t-15.5 -90.5t22.5 -73t68.5 -36.5q39 -5 64.5 14 t37 48.5t8.5 63.5t-21 60q-7 -7 -14 -7q-8 0 -13.5 5.5t-4.5 13.5zM860 959q-14 0 -27.5 -22.5t-24.5 -57.5t-20 -77.5t-16 -81.5t-11.5 -70t-6.5 -44q13 25 30 60.5t33 75t29.5 78t20.5 69.5t6.5 50t-13.5 20zM503 1097q-6 14 3.5 19.5t17.5 -4.5l91 -112q7 -6 6 -14.5 t-6.5 -14t-13 -5.5t-13.5 11l-85 120v0z" />
<glyph unicode="&#xda;" horiz-adv-x="957" d="M194 744q2 16 13.5 17t18.5 -6q16 -17 24.5 -42t9 -52t-6.5 -53.5t-23 -46t-40 -29.5t-57 -4q-55 9 -80.5 44t-28 82t16 98.5t51.5 95t78.5 71.5t96.5 27q32 -1 70 -6t70 -19q39 -17 60 -45t28.5 -62.5t1.5 -73.5t-21 -78q-24 -62 -59 -123.5t-68 -124.5t-57.5 -128 t-28.5 -135q-1 -13 1 -31t8.5 -35.5t18.5 -30.5t33 -15q24 -3 53.5 16.5t61.5 54.5t65 81.5t64 98.5t59 106t50 104q7 35 13 85t14.5 104.5t20.5 107.5t30.5 94.5t45 66t63.5 22.5q22 -1 27.5 -24.5t-1 -60.5t-21.5 -84t-35.5 -96t-43 -96t-42.5 -83q0 -8 -5 -36t-12 -68 t-14 -88.5t-11.5 -98t-4.5 -96.5t6.5 -83.5t22 -58.5t42.5 -23q31 -1 59.5 22.5t53.5 60.5t45.5 82t36 87t25 75t13.5 47q8 4 7 -7t-7 -42q-5 -26 -16.5 -61.5t-28 -73t-37.5 -74.5t-45.5 -66.5t-51 -48t-54.5 -19.5q-172 -5 -92 481q-16 -33 -38.5 -78t-51 -92.5t-62 -94 t-69.5 -84t-75 -61.5t-78 -26q-27 -2 -50 10t-39.5 31.5t-25.5 43.5t-9 47q0 57 17.5 114.5t43.5 114.5t57 114t57 113t43.5 111t17.5 109q0 30 -13.5 51t-35 34t-48.5 18.5t-53 5.5q-47 0 -88 -26.5t-71.5 -67t-47 -88.5t-15.5 -90.5t22.5 -73t68.5 -36.5q39 -5 64.5 14 t37 48.5t8.5 63.5t-21 60q-7 -7 -14 -7q-8 0 -13.5 5.5t-4.5 13.5zM860 959q-14 0 -27.5 -22.5t-24.5 -57.5t-20 -77.5t-16 -81.5t-11.5 -70t-6.5 -44q13 25 30 60.5t33 75t29.5 78t20.5 69.5t6.5 50t-13.5 20zM571 996q-6 -11 -13.5 -11t-13 5.5t-7 14t6.5 14.5l91 112 q8 10 17.5 4.5t3.5 -19.5z" />
<glyph unicode="&#xdb;" horiz-adv-x="957" d="M194 744q2 16 13.5 17t18.5 -6q16 -17 24.5 -42t9 -52t-6.5 -53.5t-23 -46t-40 -29.5t-57 -4q-55 9 -80.5 44t-28 82t16 98.5t51.5 95t78.5 71.5t96.5 27q32 -1 70 -6t70 -19q39 -17 60 -45t28.5 -62.5t1.5 -73.5t-21 -78q-24 -62 -59 -123.5t-68 -124.5t-57.5 -128 t-28.5 -135q-1 -13 1 -31t8.5 -35.5t18.5 -30.5t33 -15q24 -3 53.5 16.5t61.5 54.5t65 81.5t64 98.5t59 106t50 104q7 35 13 85t14.5 104.5t20.5 107.5t30.5 94.5t45 66t63.5 22.5q22 -1 27.5 -24.5t-1 -60.5t-21.5 -84t-35.5 -96t-43 -96t-42.5 -83q0 -8 -5 -36t-12 -68 t-14 -88.5t-11.5 -98t-4.5 -96.5t6.5 -83.5t22 -58.5t42.5 -23q31 -1 59.5 22.5t53.5 60.5t45.5 82t36 87t25 75t13.5 47q8 4 7 -7t-7 -42q-5 -26 -16.5 -61.5t-28 -73t-37.5 -74.5t-45.5 -66.5t-51 -48t-54.5 -19.5q-172 -5 -92 481q-16 -33 -38.5 -78t-51 -92.5t-62 -94 t-69.5 -84t-75 -61.5t-78 -26q-27 -2 -50 10t-39.5 31.5t-25.5 43.5t-9 47q0 57 17.5 114.5t43.5 114.5t57 114t57 113t43.5 111t17.5 109q0 30 -13.5 51t-35 34t-48.5 18.5t-53 5.5q-47 0 -88 -26.5t-71.5 -67t-47 -88.5t-15.5 -90.5t22.5 -73t68.5 -36.5q39 -5 64.5 14 t37 48.5t8.5 63.5t-21 60q-7 -7 -14 -7q-8 0 -13.5 5.5t-4.5 13.5zM860 959q-14 0 -27.5 -22.5t-24.5 -57.5t-20 -77.5t-16 -81.5t-11.5 -70t-6.5 -44q13 25 30 60.5t33 75t29.5 78t20.5 69.5t6.5 50t-13.5 20zM459 986q-4 -9 -9 -11t-9.5 0t-7 6t-0.5 8l94 153 q7 12 20.5 18.5t27.5 -6.5l104 -155q5 -7 -1 -15t-16 -12.5t-21 -3t-16 12.5l-86 145l-80 -140v0z" />
<glyph unicode="&#xdc;" horiz-adv-x="957" d="M194 744q2 16 13.5 17t18.5 -6q16 -17 24.5 -42t9 -52t-6.5 -53.5t-23 -46t-40 -29.5t-57 -4q-55 9 -80.5 44t-28 82t16 98.5t51.5 95t78.5 71.5t96.5 27q32 -1 70 -6t70 -19q39 -17 60 -45t28.5 -62.5t1.5 -73.5t-21 -78q-24 -62 -59 -123.5t-68 -124.5t-57.5 -128 t-28.5 -135q-1 -13 1 -31t8.5 -35.5t18.5 -30.5t33 -15q24 -3 53.5 16.5t61.5 54.5t65 81.5t64 98.5t59 106t50 104q7 35 13 85t14.5 104.5t20.5 107.5t30.5 94.5t45 66t63.5 22.5q22 -1 27.5 -24.5t-1 -60.5t-21.5 -84t-35.5 -96t-43 -96t-42.5 -83q0 -8 -5 -36t-12 -68 t-14 -88.5t-11.5 -98t-4.5 -96.5t6.5 -83.5t22 -58.5t42.5 -23q31 -1 59.5 22.5t53.5 60.5t45.5 82t36 87t25 75t13.5 47q8 4 7 -7t-7 -42q-5 -26 -16.5 -61.5t-28 -73t-37.5 -74.5t-45.5 -66.5t-51 -48t-54.5 -19.5q-172 -5 -92 481q-16 -33 -38.5 -78t-51 -92.5t-62 -94 t-69.5 -84t-75 -61.5t-78 -26q-27 -2 -50 10t-39.5 31.5t-25.5 43.5t-9 47q0 57 17.5 114.5t43.5 114.5t57 114t57 113t43.5 111t17.5 109q0 30 -13.5 51t-35 34t-48.5 18.5t-53 5.5q-47 0 -88 -26.5t-71.5 -67t-47 -88.5t-15.5 -90.5t22.5 -73t68.5 -36.5q39 -5 64.5 14 t37 48.5t8.5 63.5t-21 60q-7 -7 -14 -7q-8 0 -13.5 5.5t-4.5 13.5zM860 959q-14 0 -27.5 -22.5t-24.5 -57.5t-20 -77.5t-16 -81.5t-11.5 -70t-6.5 -44q13 25 30 60.5t33 75t29.5 78t20.5 69.5t6.5 50t-13.5 20zM501 985q-4 6 -2.5 16.5t7.5 20t16 17t24 7.5q11 0 16 -7 t6 -15q1 -17 -13.5 -33t-32.5 -16q-14 0 -21 10zM610 985q-4 6 -2.5 16.5t7.5 20t16 17t24 7.5q11 0 16 -7t6 -15q1 -17 -13.5 -33t-32.5 -16q-14 0 -21 10z" />
<glyph unicode="&#xdd;" horiz-adv-x="739" d="M160 878q-30 2 -55 -13t-43.5 -40t-29 -55.5t-10.5 -58.5h2q7 2 13.5 -3.5t7.5 -13.5t-3.5 -14t-12.5 -7q-8 -2 -14 2t-8 12q-7 23 -4.5 49.5t13 53t27.5 51.5t38.5 45t46 33t49.5 16q26 3 43 -6.5t27.5 -27t14.5 -41t3 -49.5q-2 -73 -18.5 -147t-31.5 -147t-22 -144.5 t10 -140.5q7 -27 20 -41.5t30 -19t36 -1t37.5 12t34.5 19t27 21.5q24 24 45.5 53.5t39 59t31 55.5t21.5 43q3 38 5 78.5t5.5 81.5t9.5 81t18 77q16 51 37.5 77.5t51.5 30.5q16 2 25.5 -7t12.5 -26.5t0.5 -41.5t-8.5 -52q-5 -21 -14 -51t-21 -63t-26 -66.5t-30 -62.5 l-11 -255q78 42 130.5 74.5t81.5 55.5q3 2 3.5 0t0 -6t-2 -7.5t-3.5 -3.5q-35 -23 -84 -53t-125 -71q-1 -39 -2 -86t-6.5 -94.5t-17 -91.5t-33.5 -78t-57 -55t-87 -21q-45 -2 -78.5 11t-53.5 35.5t-26 52.5t3 63q8 28 27.5 56t52.5 54q45 35 102.5 70t117.5 67l5 198 q-10 -23 -24 -49.5t-30.5 -53t-36.5 -52t-42 -46.5q-30 -29 -69 -45.5t-76.5 -14.5t-68.5 24t-46 69q-16 50 -17.5 103t5 106t19 104.5t24.5 99.5t21 91t9 79q0 29 -11 43t-25 15zM373 -186q34 0 59.5 21t43.5 67t29.5 118t16.5 175q-60 -32 -116 -66.5t-102 -70.5 q-30 -24 -47.5 -51t-22.5 -53q-6 -28 0 -54.5t24 -46t47 -30.5t68 -9zM592 521q29 63 46.5 118.5t29.5 97.5q7 26 10 48t1 37.5t-8.5 22.5t-17.5 2q-9 -4 -17.5 -32t-16 -72.5t-14 -102t-13.5 -119.5zM385 977q-6 -11 -13.5 -11t-13 5.5t-7 14t6.5 14.5l91 112 q8 10 17.5 4.5t3.5 -19.5z" />
<glyph unicode="&#xde;" horiz-adv-x="478" d="M80 -396q-33 1 -54.5 24.5t-32 61t-10.5 85t8 97.5t24 99t39 89q-1 22 -2 64t-3 95t-4.5 111t-5 111.5t-5 97.5t-4.5 68q2 6 9.5 10t15.5 4.5t15 -2t8 -9.5l13 -291q10 19 22.5 40t30 38.5t40 28.5t53.5 11q55 0 84.5 -29t46.5 -78q10 3 32.5 8t47 10.5t45.5 10.5t27 8 q8 4 11.5 3t5.5 -7l-167 -43q8 -31 13.5 -75.5t-2.5 -86.5t-34 -72.5t-80 -34.5q-41 -3 -67 20t-29 62q-3 44 10.5 75.5t35.5 53.5t48.5 35.5t48.5 22.5q-4 17 -12 34t-21 30.5t-30.5 22t-40.5 7.5q-24 -1 -45 -17t-37.5 -37.5t-26.5 -43.5t-12 -34q0 -32 4 -72t11.5 -102 t19 -151.5t26.5 -219.5q3 -25 0.5 -48t-10.5 -41t-23 -30t-37 -14zM57 41q-42 -88 -54.5 -167.5t-5.5 -138t29.5 -91t51.5 -27.5q12 1 16 20.5t3.5 45t-3.5 50t-4 34.5q-3 26 -7.5 67t-9.5 83t-9.5 76.5t-6.5 47.5zM185 133q3 -31 26 -52.5t54 -16.5q29 5 42.5 36.5t17 72 t0.5 79.5t-8 59q-71 -27 -104.5 -72.5t-27.5 -105.5z" />
<glyph unicode="&#xdf;" horiz-adv-x="918" d="M591 442q25 12 51 35t49 54.5t40 69.5t24 80q6 36 -3.5 74.5t-29 72.5t-46.5 60t-56.5 38.5t-59.5 7.5t-54 -34q-12 -14 -18.5 -37.5t-9.5 -51.5t-4 -59t-2 -61q-3 -132 -6 -230t-6 -169t-6.5 -119t-8.5 -81t-12 -55t-17 -40q-11 -21 -34 -39t-51.5 -32t-59.5 -23 t-58 -11q-27 -3 -58 2.5t-58.5 19.5t-47.5 38.5t-23 59.5q-3 40 19.5 68.5t58 42.5t76.5 13t75 -19q8 -2 8 -9.5t-8 -5.5q-29 12 -65.5 15.5t-69 -6t-54.5 -33.5t-22 -65q2 -24 18.5 -44t40 -33.5t49 -20.5t46.5 -5q25 2 52 11.5t51 26.5t42.5 43t25.5 61q19 93 27 172.5 t11 155t3 151t2 160.5q2 65 17.5 125t53.5 97q27 26 62.5 32.5t73 -2.5t73.5 -31.5t64 -54.5t44.5 -72.5t15.5 -84.5q-2 -45 -22.5 -87t-51 -77t-65 -60.5t-62.5 -37.5q18 -1 45.5 -6t58 -13.5t61.5 -22t56.5 -31.5t42.5 -41.5t20 -52.5q4 -36 -13.5 -69t-48.5 -62 t-71.5 -53t-82.5 -41.5t-82.5 -28.5t-70.5 -14q-11 -1 -12.5 4.5t12.5 7.5q51 6 105.5 25.5t99 53t71 81t20.5 109.5q-3 33 -27.5 58t-59 42.5t-73 27.5t-70.5 12q-13 0 -13.5 8.5t8.5 9.5z" />
<glyph unicode="&#xe0;" horiz-adv-x="465" d="M259 102q-29 -23 -59.5 -39t-68.5 -16q-31 0 -55 12t-40.5 32.5t-25.5 47t-9 56.5q-1 42 10 84.5t32.5 76.5t52.5 55t71 21q30 0 49.5 -11.5t42.5 -31.5q4 9 12 14.5t15.5 5t13.5 -6.5t7 -19q-3 -62 -7 -115.5t-6 -94.5q-2 -85 8 -119.5t42 -23.5q16 5 32.5 26t33.5 51.5 t33 67.5t31 73.5t28 69.5t23 56q4 -2 6.5 -5.5t0 -16.5t-11.5 -37.5t-27 -68.5q-9 -15 -18.5 -37.5t-21.5 -49t-25.5 -53t-30.5 -48t-37 -36t-44 -15.5q-19 0 -29.5 9.5t-16 23.5t-8 31t-3.5 31zM67 217q0 -17 3 -43t11 -50t23.5 -41.5t41.5 -17.5q13 0 31.5 6t35.5 16 t30 23t16 28q3 33 4.5 56t1.5 52q0 28 -1.5 51t-4.5 56q-11 27 -32.5 44t-50.5 17q-32 0 -53 -22t-33.5 -53t-17.5 -64.5t-5 -57.5zM170 631q-6 14 3.5 19.5t17.5 -4.5l91 -112q7 -6 6 -14.5t-6.5 -14t-13 -5.5t-13.5 11l-85 120v0z" />
<glyph unicode="&#xe1;" horiz-adv-x="465" d="M259 102q-29 -23 -59.5 -39t-68.5 -16q-31 0 -55 12t-40.5 32.5t-25.5 47t-9 56.5q-1 42 10 84.5t32.5 76.5t52.5 55t71 21q30 0 49.5 -11.5t42.5 -31.5q4 9 12 14.5t15.5 5t13.5 -6.5t7 -19q-3 -62 -7 -115.5t-6 -94.5q-2 -85 8 -119.5t42 -23.5q16 5 32.5 26t33.5 51.5 t33 67.5t31 73.5t28 69.5t23 56q4 -2 6.5 -5.5t0 -16.5t-11.5 -37.5t-27 -68.5q-9 -15 -18.5 -37.5t-21.5 -49t-25.5 -53t-30.5 -48t-37 -36t-44 -15.5q-19 0 -29.5 9.5t-16 23.5t-8 31t-3.5 31zM67 217q0 -17 3 -43t11 -50t23.5 -41.5t41.5 -17.5q13 0 31.5 6t35.5 16 t30 23t16 28q3 33 4.5 56t1.5 52q0 28 -1.5 51t-4.5 56q-11 27 -32.5 44t-50.5 17q-32 0 -53 -22t-33.5 -53t-17.5 -64.5t-5 -57.5zM209 491q-6 -11 -13.5 -11t-13 5.5t-7 14t6.5 14.5l91 112q8 10 17.5 4.5t3.5 -19.5z" />
<glyph unicode="&#xe2;" horiz-adv-x="465" d="M259 102q-29 -23 -59.5 -39t-68.5 -16q-31 0 -55 12t-40.5 32.5t-25.5 47t-9 56.5q-1 42 10 84.5t32.5 76.5t52.5 55t71 21q30 0 49.5 -11.5t42.5 -31.5q4 9 12 14.5t15.5 5t13.5 -6.5t7 -19q-3 -62 -7 -115.5t-6 -94.5q-2 -85 8 -119.5t42 -23.5q16 5 32.5 26t33.5 51.5 t33 67.5t31 73.5t28 69.5t23 56q4 -2 6.5 -5.5t0 -16.5t-11.5 -37.5t-27 -68.5q-9 -15 -18.5 -37.5t-21.5 -49t-25.5 -53t-30.5 -48t-37 -36t-44 -15.5q-19 0 -29.5 9.5t-16 23.5t-8 31t-3.5 31zM67 217q0 -17 3 -43t11 -50t23.5 -41.5t41.5 -17.5q13 0 31.5 6t35.5 16 t30 23t16 28q3 33 4.5 56t1.5 52q0 28 -1.5 51t-4.5 56q-11 27 -32.5 44t-50.5 17q-32 0 -53 -22t-33.5 -53t-17.5 -64.5t-5 -57.5zM97 483q-4 -9 -9 -11t-9.5 0t-7 6t-0.5 8l94 153q7 12 20.5 18.5t27.5 -6.5l104 -155q5 -7 -1 -15t-16 -12.5t-21 -3t-16 12.5l-86 145 l-80 -140v0z" />
<glyph unicode="&#xe3;" horiz-adv-x="465" d="M259 102q-29 -23 -59.5 -39t-68.5 -16q-31 0 -55 12t-40.5 32.5t-25.5 47t-9 56.5q-1 42 10 84.5t32.5 76.5t52.5 55t71 21q30 0 49.5 -11.5t42.5 -31.5q4 9 12 14.5t15.5 5t13.5 -6.5t7 -19q-3 -62 -7 -115.5t-6 -94.5q-2 -85 8 -119.5t42 -23.5q16 5 32.5 26t33.5 51.5 t33 67.5t31 73.5t28 69.5t23 56q4 -2 6.5 -5.5t0 -16.5t-11.5 -37.5t-27 -68.5q-9 -15 -18.5 -37.5t-21.5 -49t-25.5 -53t-30.5 -48t-37 -36t-44 -15.5q-19 0 -29.5 9.5t-16 23.5t-8 31t-3.5 31zM67 217q0 -17 3 -43t11 -50t23.5 -41.5t41.5 -17.5q13 0 31.5 6t35.5 16 t30 23t16 28q3 33 4.5 56t1.5 52q0 28 -1.5 51t-4.5 56q-11 27 -32.5 44t-50.5 17q-32 0 -53 -22t-33.5 -53t-17.5 -64.5t-5 -57.5zM124 612q-18 -2 -31 -9.5t-23.5 -20.5t-19.5 -30.5t-19 -38.5q-10 0 -11 8q9 24 20 45.5t26.5 38t37.5 26.5t53 10q27 -1 43 -20t29.5 -41 t27.5 -40.5t36 -18.5q14 1 25 11t19.5 24t14 30t7.5 28q11 5 9 -6q-3 -14 -9.5 -35t-17.5 -39.5t-27 -31.5t-38 -12q-28 0 -46 19t-33 42t-31.5 42t-41.5 19z" />
<glyph unicode="&#xe4;" horiz-adv-x="465" d="M259 102q-29 -23 -59.5 -39t-68.5 -16q-31 0 -55 12t-40.5 32.5t-25.5 47t-9 56.5q-1 42 10 84.5t32.5 76.5t52.5 55t71 21q30 0 49.5 -11.5t42.5 -31.5q4 9 12 14.5t15.5 5t13.5 -6.5t7 -19q-3 -62 -7 -115.5t-6 -94.5q-2 -85 8 -119.5t42 -23.5q16 5 32.5 26t33.5 51.5 t33 67.5t31 73.5t28 69.5t23 56q4 -2 6.5 -5.5t0 -16.5t-11.5 -37.5t-27 -68.5q-9 -15 -18.5 -37.5t-21.5 -49t-25.5 -53t-30.5 -48t-37 -36t-44 -15.5q-19 0 -29.5 9.5t-16 23.5t-8 31t-3.5 31zM67 217q0 -17 3 -43t11 -50t23.5 -41.5t41.5 -17.5q13 0 31.5 6t35.5 16 t30 23t16 28q3 33 4.5 56t1.5 52q0 28 -1.5 51t-4.5 56q-11 27 -32.5 44t-50.5 17q-32 0 -53 -22t-33.5 -53t-17.5 -64.5t-5 -57.5zM124 481q-4 6 -2.5 16.5t7.5 20t16 17t24 7.5q11 0 16 -7t6 -15q1 -17 -13.5 -33t-32.5 -16q-14 0 -21 10zM233 481q-4 6 -2.5 16.5t7.5 20 t16 17t24 7.5q11 0 16 -7t6 -15q1 -17 -13.5 -33t-32.5 -16q-14 0 -21 10z" />
<glyph unicode="&#xe5;" horiz-adv-x="465" d="M259 102q-29 -23 -59.5 -39t-68.5 -16q-31 0 -55 12t-40.5 32.5t-25.5 47t-9 56.5q-1 42 10 84.5t32.5 76.5t52.5 55t71 21q30 0 49.5 -11.5t42.5 -31.5q4 9 12 14.5t15.5 5t13.5 -6.5t7 -19q-3 -62 -7 -115.5t-6 -94.5q-2 -85 8 -119.5t42 -23.5q16 5 32.5 26t33.5 51.5 t33 67.5t31 73.5t28 69.5t23 56q4 -2 6.5 -5.5t0 -16.5t-11.5 -37.5t-27 -68.5q-9 -15 -18.5 -37.5t-21.5 -49t-25.5 -53t-30.5 -48t-37 -36t-44 -15.5q-19 0 -29.5 9.5t-16 23.5t-8 31t-3.5 31zM67 217q0 -17 3 -43t11 -50t23.5 -41.5t41.5 -17.5q13 0 31.5 6t35.5 16 t30 23t16 28q3 33 4.5 56t1.5 52q0 28 -1.5 51t-4.5 56q-11 27 -32.5 44t-50.5 17q-32 0 -53 -22t-33.5 -53t-17.5 -64.5t-5 -57.5zM136 604q19 6 44 7.5t49 -4t43 -18.5t26 -35q7 -20 -5 -35t-33.5 -24.5t-49.5 -13t-54.5 0t-47.5 14t-29 30.5q-6 15 -2.5 27.5t12.5 22 t22 17t25 11.5zM284 545q-1 10 -15.5 17.5t-36 10.5t-46 2t-44.5 -7t-32.5 -17t-9.5 -27q1 -10 16 -16.5t36 -9.5t44.5 -2t43.5 7t32.5 16t11.5 26z" />
<glyph unicode="&#xe6;" horiz-adv-x="570" d="M167 432q20 0 35.5 -6t30.5 -16q38 38 99 38q23 0 43 -11.5t20 -40.5q0 -27 -15 -41t-36 -21t-45 -9t-42 -4q0 -2 -0.5 -10.5t-0.5 -10.5q0 -34 6.5 -75t23 -77t44.5 -60.5t71 -24.5q58 2 96 34.5t63 79t40.5 99t27.5 94.5q1 2 4 1.5t5 -9.5q-5 -28 -14.5 -65.5t-25 -77 t-36.5 -77.5t-49 -67t-63 -46t-78 -14q-39 1 -68.5 22.5t-50.5 54.5q-26 -16 -60.5 -30.5t-60.5 -14.5q-31 0 -55 12t-40.5 32.5t-25.5 47t-9 56.5q-1 42 10 84.5t32.5 76.5t52.5 55t71 21zM194 299q0 62 30 100q-23 15 -48 15q-32 0 -53 -22t-33.5 -53t-17.5 -64.5 t-5 -57.5q0 -17 3 -43t11 -50t23.5 -41.5t41.5 -17.5q7 0 19 3.5t25.5 9.5t28 13t25.5 13q-26 45 -38 98.5t-12 96.5zM341 436q-18 0 -32.5 -8.5t-25 -22t-16 -30t-5.5 -32.5q14 0 33.5 -0.5t37.5 3.5t31 14.5t13 32.5q0 16 -9.5 29.5t-26.5 13.5z" />
<glyph unicode="&#xe7;" horiz-adv-x="407" d="M233 256q-11 4 -15 12.5t-2.5 15.5t8.5 10t19 -5q10 24 9.5 50t-12 47t-32 33.5t-49.5 9.5q-23 -3 -38.5 -25t-25 -50.5t-13.5 -56t-4 -40.5v-61t7 -77.5t25 -67t54 -28.5q26 0 58 17.5t62 42.5t54 52t35 46q16 23 28.5 44t22 42.5t18.5 45t20 50.5q4 3 5 -0.5t3 -9.5 q-16 -54 -46 -116.5t-71 -115t-92 -87.5t-109 -35q-42 0 -68 27t-40.5 66t-19 82t-2.5 75q2 29 10 63.5t23.5 64.5t41 50t61.5 21q40 1 66 -16t38 -44t10.5 -59.5t-16.5 -62.5q-8 -13 -23 -10zM159 1q4 13 13 12t7 -11l-6 -24q36 2 52.5 -13t14.5 -33t-21 -31t-53 -8 q-4 -2 -6.5 0t-3 4.5t1 4.5t5.5 0q27 -1 38.5 9t11 22.5t-12 22t-31.5 7.5q-5 -1 -10 3.5t0 14.5v20z" />
<glyph unicode="&#xe8;" horiz-adv-x="388" d="M19 304q0 69 37 109t101 40q23 0 43 -11.5t20 -40.5q0 -27 -15 -41t-36 -21t-45 -9t-42 -4q0 -2 -0.5 -10.5t-0.5 -10.5q0 -34 6.5 -75t23 -77t44.5 -60.5t71 -24.5q58 2 96 34.5t63 79t40.5 99t27.5 94.5q1 2 4 1.5t5 -9.5q-5 -28 -14.5 -65.5t-25 -77t-36.5 -77.5 t-49 -67t-63 -46t-78 -14q-46 1 -79.5 31t-55 73t-32 92t-10.5 88zM166 441q-18 0 -32.5 -8.5t-25 -22t-16 -30t-5.5 -32.5q14 0 33.5 -0.5t37.5 3.5t31 14.5t13 32.5q0 16 -9.5 29.5t-26.5 13.5zM79 699q-6 14 3.5 19.5t17.5 -4.5l91 -112q7 -6 6 -14.5t-6.5 -14t-13 -5.5 t-13.5 11l-85 120v0z" />
<glyph unicode="&#xe9;" horiz-adv-x="388" d="M19 304q0 69 37 109t101 40q23 0 43 -11.5t20 -40.5q0 -27 -15 -41t-36 -21t-45 -9t-42 -4q0 -2 -0.5 -10.5t-0.5 -10.5q0 -34 6.5 -75t23 -77t44.5 -60.5t71 -24.5q58 2 96 34.5t63 79t40.5 99t27.5 94.5q1 2 4 1.5t5 -9.5q-5 -28 -14.5 -65.5t-25 -77t-36.5 -77.5 t-49 -67t-63 -46t-78 -14q-46 1 -79.5 31t-55 73t-32 92t-10.5 88zM166 441q-18 0 -32.5 -8.5t-25 -22t-16 -30t-5.5 -32.5q14 0 33.5 -0.5t37.5 3.5t31 14.5t13 32.5q0 16 -9.5 29.5t-26.5 13.5zM137 510q-6 -11 -13.5 -11t-13 5.5t-7 14t6.5 14.5l91 112q8 10 17.5 4.5 t3.5 -19.5z" />
<glyph unicode="&#xea;" horiz-adv-x="388" d="M19 304q0 69 37 109t101 40q23 0 43 -11.5t20 -40.5q0 -27 -15 -41t-36 -21t-45 -9t-42 -4q0 -2 -0.5 -10.5t-0.5 -10.5q0 -34 6.5 -75t23 -77t44.5 -60.5t71 -24.5q58 2 96 34.5t63 79t40.5 99t27.5 94.5q1 2 4 1.5t5 -9.5q-5 -28 -14.5 -65.5t-25 -77t-36.5 -77.5 t-49 -67t-63 -46t-78 -14q-46 1 -79.5 31t-55 73t-32 92t-10.5 88zM166 441q-18 0 -32.5 -8.5t-25 -22t-16 -30t-5.5 -32.5q14 0 33.5 -0.5t37.5 3.5t31 14.5t13 32.5q0 16 -9.5 29.5t-26.5 13.5zM63 539q-4 -9 -9 -11t-9.5 0t-7 6t-0.5 8l94 153q7 12 20.5 18.5t27.5 -6.5 l104 -155q5 -7 -1 -15t-16 -12.5t-21 -3t-16 12.5l-86 145l-80 -140v0z" />
<glyph unicode="&#xeb;" horiz-adv-x="388" d="M19 304q0 69 37 109t101 40q23 0 43 -11.5t20 -40.5q0 -27 -15 -41t-36 -21t-45 -9t-42 -4q0 -2 -0.5 -10.5t-0.5 -10.5q0 -34 6.5 -75t23 -77t44.5 -60.5t71 -24.5q58 2 96 34.5t63 79t40.5 99t27.5 94.5q1 2 4 1.5t5 -9.5q-5 -28 -14.5 -65.5t-25 -77t-36.5 -77.5 t-49 -67t-63 -46t-78 -14q-46 1 -79.5 31t-55 73t-32 92t-10.5 88zM166 441q-18 0 -32.5 -8.5t-25 -22t-16 -30t-5.5 -32.5q14 0 33.5 -0.5t37.5 3.5t31 14.5t13 32.5q0 16 -9.5 29.5t-26.5 13.5zM85 538q-4 6 -2.5 16.5t7.5 20t16 17t24 7.5q11 0 16 -7t6 -15 q1 -17 -13.5 -33t-32.5 -16q-14 0 -21 10zM194 538q-4 6 -2.5 16.5t7.5 20t16 17t24 7.5q11 0 16 -7t6 -15q1 -17 -13.5 -33t-32.5 -16q-14 0 -21 10z" />
<glyph unicode="&#xec;" d="M39 347q2 17 6 33.5t10.5 28.5t14.5 17.5t19 1.5q13 -3 16 -23t0.5 -50t-8 -68t-10 -76.5t-5.5 -75t5.5 -63.5t22.5 -42.5t46 -12.5q21 0 42 21.5t41 55t38 74.5t33.5 80t26.5 70.5t18 47.5q2 4 4 -2t6 -6q-7 -31 -20.5 -70.5t-30 -80.5t-36.5 -80t-41.5 -68.5 t-43.5 -46.5t-43 -13q-53 -1 -79 30t-35 80.5t-5.5 112t8.5 125.5zM39 627q-6 14 3.5 19.5t17.5 -4.5l91 -112q7 -6 6 -14.5t-6.5 -14t-13 -5.5t-13.5 11l-85 120v0z" />
<glyph unicode="&#xed;" d="M39 347q2 17 6 33.5t10.5 28.5t14.5 17.5t19 1.5q13 -3 16 -23t0.5 -50t-8 -68t-10 -76.5t-5.5 -75t5.5 -63.5t22.5 -42.5t46 -12.5q21 0 42 21.5t41 55t38 74.5t33.5 80t26.5 70.5t18 47.5q2 4 4 -2t6 -6q-7 -31 -20.5 -70.5t-30 -80.5t-36.5 -80t-41.5 -68.5 t-43.5 -46.5t-43 -13q-53 -1 -79 30t-35 80.5t-5.5 112t8.5 125.5zM126 491q-6 -11 -13.5 -11t-13 5.5t-7 14t6.5 14.5l91 112q8 10 17.5 4.5t3.5 -19.5z" />
<glyph unicode="&#xee;" d="M39 347q2 17 6 33.5t10.5 28.5t14.5 17.5t19 1.5q13 -3 16 -23t0.5 -50t-8 -68t-10 -76.5t-5.5 -75t5.5 -63.5t22.5 -42.5t46 -12.5q21 0 42 21.5t41 55t38 74.5t33.5 80t26.5 70.5t18 47.5q2 4 4 -2t6 -6q-7 -31 -20.5 -70.5t-30 -80.5t-36.5 -80t-41.5 -68.5 t-43.5 -46.5t-43 -13q-53 -1 -79 30t-35 80.5t-5.5 112t8.5 125.5zM11 506q-4 -9 -9 -11t-9.5 0t-7 6t-0.5 8l94 153q7 12 20.5 18.5t27.5 -6.5l104 -155q5 -7 -1 -15t-16 -12.5t-21 -3t-16 12.5l-86 145l-80 -140v0z" />
<glyph unicode="&#xef;" d="M39 347q2 17 6 33.5t10.5 28.5t14.5 17.5t19 1.5q13 -3 16 -23t0.5 -50t-8 -68t-10 -76.5t-5.5 -75t5.5 -63.5t22.5 -42.5t46 -12.5q21 0 42 21.5t41 55t38 74.5t33.5 80t26.5 70.5t18 47.5q2 4 4 -2t6 -6q-7 -31 -20.5 -70.5t-30 -80.5t-36.5 -80t-41.5 -68.5 t-43.5 -46.5t-43 -13q-53 -1 -79 30t-35 80.5t-5.5 112t8.5 125.5zM27 504q-4 6 -2.5 16.5t7.5 20t16 17t24 7.5q11 0 16 -7t6 -15q1 -17 -13.5 -33t-32.5 -16q-14 0 -21 10zM136 504q-4 6 -2.5 16.5t7.5 20t16 17t24 7.5q11 0 16 -7t6 -15q1 -17 -13.5 -33t-32.5 -16 q-14 0 -21 10z" />
<glyph unicode="&#xf1;" horiz-adv-x="552" d="M48 385q22 10 32.5 -7t14 -50t2 -75t-2.5 -81q3 32 13 79.5t30 91t52.5 73.5t79.5 29q45 -2 77 -32t43 -84q10 -93 21 -151t22.5 -89.5t22.5 -41.5t21 -8q19 4 34.5 26t27.5 52.5t21.5 67t17 70t13.5 61t11 40.5q6 5 9.5 -3.5t-1.5 -21.5q-23 -109 -44 -176.5 t-40.5 -104.5t-38 -49t-35.5 -11q-31 2 -53 22t-36 51.5t-20 71.5t-4 81q1 39 -1.5 76.5t-10 67.5t-20.5 48.5t-32 20.5q-39 3 -67 -21t-46.5 -60t-28 -77t-11.5 -71q-7 -48 -7 -93t-7 -92v-2q-1 -5 -12 -6.5t-17 11.5q-10 21 -14 68.5t-10 101.5q-1 10 -2.5 30t-2.5 47 t-1.5 58t0.5 62zM205 607q-18 -2 -31 -9.5t-23.5 -20.5t-19.5 -30.5t-19 -38.5q-10 0 -11 8q9 24 20 45.5t26.5 38t37.5 26.5t53 10q27 -1 43 -20t29.5 -41t27.5 -40.5t36 -18.5q14 1 25 11t19.5 24t14 30t7.5 28q11 5 9 -6q-3 -14 -9.5 -35t-17.5 -39.5t-27 -31.5t-38 -12 q-28 0 -46 19t-33 42t-31.5 42t-41.5 19z" />
<glyph unicode="&#xf2;" horiz-adv-x="396" d="M7 221q-1 40 7 76.5t26 64t47.5 43.5t72.5 16q24 0 49.5 -9.5t48.5 -25t41 -36t26 -42.5q18 0 38 5.5t40 13.5t39.5 17t36.5 15q3 -4 1 -8.5t-7.5 -8.5t-11.5 -7.5t-10 -4.5q-4 -2 -21 -8.5t-37 -14t-37 -14t-21 -8.5q5 -19 8.5 -47.5t1.5 -59.5t-10.5 -62.5t-27 -57 t-48 -42.5t-72.5 -19q-48 0 -82 21.5t-55.5 54.5t-32 72.5t-10.5 75.5zM112 379q-20 -30 -29.5 -74t-8 -90.5t14 -89.5t37.5 -71q13 -14 31 -22.5t38.5 -9.5t42 7.5t39.5 27.5q20 22 29.5 50.5t11 59t-2 61t-8.5 57.5q-24 0 -50.5 7t-52.5 19.5t-49.5 29.5t-42.5 38z M133 391q11 -15 30.5 -30.5t43 -28t48.5 -20t48 -7.5q-8 24 -30 45.5t-47.5 35t-51 16t-41.5 -10.5zM136 631q-6 14 3.5 19.5t17.5 -4.5l91 -112q7 -6 6 -14.5t-6.5 -14t-13 -5.5t-13.5 11l-85 120v0z" />
<glyph unicode="&#xf3;" horiz-adv-x="396" d="M7 221q-1 40 7 76.5t26 64t47.5 43.5t72.5 16q24 0 49.5 -9.5t48.5 -25t41 -36t26 -42.5q18 0 38 5.5t40 13.5t39.5 17t36.5 15q3 -4 1 -8.5t-7.5 -8.5t-11.5 -7.5t-10 -4.5q-4 -2 -21 -8.5t-37 -14t-37 -14t-21 -8.5q5 -19 8.5 -47.5t1.5 -59.5t-10.5 -62.5t-27 -57 t-48 -42.5t-72.5 -19q-48 0 -82 21.5t-55.5 54.5t-32 72.5t-10.5 75.5zM112 379q-20 -30 -29.5 -74t-8 -90.5t14 -89.5t37.5 -71q13 -14 31 -22.5t38.5 -9.5t42 7.5t39.5 27.5q20 22 29.5 50.5t11 59t-2 61t-8.5 57.5q-24 0 -50.5 7t-52.5 19.5t-49.5 29.5t-42.5 38z M133 391q11 -15 30.5 -30.5t43 -28t48.5 -20t48 -7.5q-8 24 -30 45.5t-47.5 35t-51 16t-41.5 -10.5zM175 491q-6 -11 -13.5 -11t-13 5.5t-7 14t6.5 14.5l91 112q8 10 17.5 4.5t3.5 -19.5z" />
<glyph unicode="&#xf4;" horiz-adv-x="396" d="M7 221q-1 40 7 76.5t26 64t47.5 43.5t72.5 16q24 0 49.5 -9.5t48.5 -25t41 -36t26 -42.5q18 0 38 5.5t40 13.5t39.5 17t36.5 15q3 -4 1 -8.5t-7.5 -8.5t-11.5 -7.5t-10 -4.5q-4 -2 -21 -8.5t-37 -14t-37 -14t-21 -8.5q5 -19 8.5 -47.5t1.5 -59.5t-10.5 -62.5t-27 -57 t-48 -42.5t-72.5 -19q-48 0 -82 21.5t-55.5 54.5t-32 72.5t-10.5 75.5zM112 379q-20 -30 -29.5 -74t-8 -90.5t14 -89.5t37.5 -71q13 -14 31 -22.5t38.5 -9.5t42 7.5t39.5 27.5q20 22 29.5 50.5t11 59t-2 61t-8.5 57.5q-24 0 -50.5 7t-52.5 19.5t-49.5 29.5t-42.5 38z M133 391q11 -15 30.5 -30.5t43 -28t48.5 -20t48 -7.5q-8 24 -30 45.5t-47.5 35t-51 16t-41.5 -10.5zM96 496q-4 -9 -9 -11t-9.5 0t-7 6t-0.5 8l94 153q7 12 20.5 18.5t27.5 -6.5l104 -155q5 -7 -1 -15t-16 -12.5t-21 -3t-16 12.5l-86 145l-80 -140v0z" />
<glyph unicode="&#xf5;" horiz-adv-x="396" d="M7 221q-1 40 7 76.5t26 64t47.5 43.5t72.5 16q24 0 49.5 -9.5t48.5 -25t41 -36t26 -42.5q18 0 38 5.5t40 13.5t39.5 17t36.5 15q3 -4 1 -8.5t-7.5 -8.5t-11.5 -7.5t-10 -4.5q-4 -2 -21 -8.5t-37 -14t-37 -14t-21 -8.5q5 -19 8.5 -47.5t1.5 -59.5t-10.5 -62.5t-27 -57 t-48 -42.5t-72.5 -19q-48 0 -82 21.5t-55.5 54.5t-32 72.5t-10.5 75.5zM112 379q-20 -30 -29.5 -74t-8 -90.5t14 -89.5t37.5 -71q13 -14 31 -22.5t38.5 -9.5t42 7.5t39.5 27.5q20 22 29.5 50.5t11 59t-2 61t-8.5 57.5q-24 0 -50.5 7t-52.5 19.5t-49.5 29.5t-42.5 38z M133 391q11 -15 30.5 -30.5t43 -28t48.5 -20t48 -7.5q-8 24 -30 45.5t-47.5 35t-51 16t-41.5 -10.5zM129 607q-18 -2 -31 -9.5t-23.5 -20.5t-19.5 -30.5t-19 -38.5q-10 0 -11 8q9 24 20 45.5t26.5 38t37.5 26.5t53 10q27 -1 43 -20t29.5 -41t27.5 -40.5t36 -18.5q14 1 25 11 t19.5 24t14 30t7.5 28q11 5 9 -6q-3 -14 -9.5 -35t-17.5 -39.5t-27 -31.5t-38 -12q-28 0 -46 19t-33 42t-31.5 42t-41.5 19z" />
<glyph unicode="&#xf6;" horiz-adv-x="396" d="M7 221q-1 40 7 76.5t26 64t47.5 43.5t72.5 16q24 0 49.5 -9.5t48.5 -25t41 -36t26 -42.5q18 0 38 5.5t40 13.5t39.5 17t36.5 15q3 -4 1 -8.5t-7.5 -8.5t-11.5 -7.5t-10 -4.5q-4 -2 -21 -8.5t-37 -14t-37 -14t-21 -8.5q5 -19 8.5 -47.5t1.5 -59.5t-10.5 -62.5t-27 -57 t-48 -42.5t-72.5 -19q-48 0 -82 21.5t-55.5 54.5t-32 72.5t-10.5 75.5zM112 379q-20 -30 -29.5 -74t-8 -90.5t14 -89.5t37.5 -71q13 -14 31 -22.5t38.5 -9.5t42 7.5t39.5 27.5q20 22 29.5 50.5t11 59t-2 61t-8.5 57.5q-24 0 -50.5 7t-52.5 19.5t-49.5 29.5t-42.5 38z M133 391q11 -15 30.5 -30.5t43 -28t48.5 -20t48 -7.5q-8 24 -30 45.5t-47.5 35t-51 16t-41.5 -10.5zM61 490q-4 6 -2.5 16.5t7.5 20t16 17t24 7.5q11 0 16 -7t6 -15q1 -17 -13.5 -33t-32.5 -16q-14 0 -21 10zM170 490q-4 6 -2.5 16.5t7.5 20t16 17t24 7.5q11 0 16 -7t6 -15 q1 -17 -13.5 -33t-32.5 -16q-14 0 -21 10z" />
<glyph unicode="&#xf8;" horiz-adv-x="396" d="M7 221q-1 40 7 76.5t26 64t47.5 43.5t72.5 16q24 0 49.5 -9.5t48.5 -25t41 -36t26 -42.5q18 0 38 5.5t40 13.5t39.5 17t36.5 15q3 -4 1 -8.5t-7.5 -8.5t-11.5 -7.5t-10 -4.5q-4 -2 -21 -8.5t-37 -14t-37 -14t-21 -8.5q5 -19 8.5 -47.5t1.5 -59.5t-10.5 -62.5t-27 -57 t-48 -42.5t-72.5 -19q-48 0 -82 21.5t-55.5 54.5t-32 72.5t-10.5 75.5zM112 379q-20 -30 -29.5 -74t-8 -90.5t14 -89.5t37.5 -71q13 -14 31 -22.5t38.5 -9.5t42 7.5t39.5 27.5q20 22 29.5 50.5t11 59t-2 61t-8.5 57.5q-24 0 -50.5 7t-52.5 19.5t-49.5 29.5t-42.5 38z M133 391q11 -15 30.5 -30.5t43 -28t48.5 -20t48 -7.5q-8 24 -30 45.5t-47.5 35t-51 16t-41.5 -10.5zM330.726 490.034q4.93652 6.36621 11.9893 7.16211t13.4004 -1.85742q6.34668 -2.65234 9.52051 -8.22266t0.352539 -12.4678l-320.188 -483.301 q-5.6416 -2.65234 -9.16797 -2.3877q-3.52637 0.265625 -5.29004 2.3877q-1.7627 2.12207 -2.46777 4.77441q-0.706055 2.65234 0 5.30566z" />
<glyph unicode="&#xf9;" horiz-adv-x="456" d="M266 162q-8 -24 -22 -52t-33.5 -52t-44 -40t-52.5 -16q-56 0 -84 35.5t-24 91.5q5 78 17 136.5t27.5 97t32 57t30.5 16.5q9 0 10.5 -9.5t-0.5 -23.5q-3 -17 -10 -38.5t-16 -50.5t-18 -66.5t-16 -85.5q-2 -12 -2 -37t5.5 -50t20 -42t43.5 -14q22 1 45.5 24t42.5 53.5 t32 61t15 46.5l34 214q0 10 7 15t14.5 4.5t12 -8t0.5 -22.5q-19 -110 -29.5 -184t-10.5 -119t10.5 -65.5t32.5 -24.5q24 -4 45 20.5t39.5 63.5t35 86.5t31 88.5t27.5 68.5t25 27.5q-2 -12 -10 -34.5t-18.5 -50.5t-22 -60t-21.5 -62q-11 -27 -24 -56.5t-28.5 -54t-35 -39.5 t-42.5 -13q-29 3 -43.5 23t-20.5 46t-6.5 52t-0.5 42zM166 631q-6 14 3.5 19.5t17.5 -4.5l91 -112q7 -6 6 -14.5t-6.5 -14t-13 -5.5t-13.5 11l-85 120v0z" />
<glyph unicode="&#xfa;" horiz-adv-x="456" d="M266 162q-8 -24 -22 -52t-33.5 -52t-44 -40t-52.5 -16q-56 0 -84 35.5t-24 91.5q5 78 17 136.5t27.5 97t32 57t30.5 16.5q9 0 10.5 -9.5t-0.5 -23.5q-3 -17 -10 -38.5t-16 -50.5t-18 -66.5t-16 -85.5q-2 -12 -2 -37t5.5 -50t20 -42t43.5 -14q22 1 45.5 24t42.5 53.5 t32 61t15 46.5l34 214q0 10 7 15t14.5 4.5t12 -8t0.5 -22.5q-19 -110 -29.5 -184t-10.5 -119t10.5 -65.5t32.5 -24.5q24 -4 45 20.5t39.5 63.5t35 86.5t31 88.5t27.5 68.5t25 27.5q-2 -12 -10 -34.5t-18.5 -50.5t-22 -60t-21.5 -62q-11 -27 -24 -56.5t-28.5 -54t-35 -39.5 t-42.5 -13q-29 3 -43.5 23t-20.5 46t-6.5 52t-0.5 42zM205 491q-6 -11 -13.5 -11t-13 5.5t-7 14t6.5 14.5l91 112q8 10 17.5 4.5t3.5 -19.5z" />
<glyph unicode="&#xfb;" horiz-adv-x="456" d="M266 162q-8 -24 -22 -52t-33.5 -52t-44 -40t-52.5 -16q-56 0 -84 35.5t-24 91.5q5 78 17 136.5t27.5 97t32 57t30.5 16.5q9 0 10.5 -9.5t-0.5 -23.5q-3 -17 -10 -38.5t-16 -50.5t-18 -66.5t-16 -85.5q-2 -12 -2 -37t5.5 -50t20 -42t43.5 -14q22 1 45.5 24t42.5 53.5 t32 61t15 46.5l34 214q0 10 7 15t14.5 4.5t12 -8t0.5 -22.5q-19 -110 -29.5 -184t-10.5 -119t10.5 -65.5t32.5 -24.5q24 -4 45 20.5t39.5 63.5t35 86.5t31 88.5t27.5 68.5t25 27.5q-2 -12 -10 -34.5t-18.5 -50.5t-22 -60t-21.5 -62q-11 -27 -24 -56.5t-28.5 -54t-35 -39.5 t-42.5 -13q-29 3 -43.5 23t-20.5 46t-6.5 52t-0.5 42zM126 496q-4 -9 -9 -11t-9.5 0t-7 6t-0.5 8l94 153q7 12 20.5 18.5t27.5 -6.5l104 -155q5 -7 -1 -15t-16 -12.5t-21 -3t-16 12.5l-86 145l-80 -140v0z" />
<glyph unicode="&#xfc;" horiz-adv-x="456" d="M266 162q-8 -24 -22 -52t-33.5 -52t-44 -40t-52.5 -16q-56 0 -84 35.5t-24 91.5q5 78 17 136.5t27.5 97t32 57t30.5 16.5q9 0 10.5 -9.5t-0.5 -23.5q-3 -17 -10 -38.5t-16 -50.5t-18 -66.5t-16 -85.5q-2 -12 -2 -37t5.5 -50t20 -42t43.5 -14q22 1 45.5 24t42.5 53.5 t32 61t15 46.5l34 214q0 10 7 15t14.5 4.5t12 -8t0.5 -22.5q-19 -110 -29.5 -184t-10.5 -119t10.5 -65.5t32.5 -24.5q24 -4 45 20.5t39.5 63.5t35 86.5t31 88.5t27.5 68.5t25 27.5q-2 -12 -10 -34.5t-18.5 -50.5t-22 -60t-21.5 -62q-11 -27 -24 -56.5t-28.5 -54t-35 -39.5 t-42.5 -13q-29 3 -43.5 23t-20.5 46t-6.5 52t-0.5 42zM144 490q-4 6 -2.5 16.5t7.5 20t16 17t24 7.5q11 0 16 -7t6 -15q1 -17 -13.5 -33t-32.5 -16q-14 0 -21 10zM253 490q-4 6 -2.5 16.5t7.5 20t16 17t24 7.5q11 0 16 -7t6 -15q1 -17 -13.5 -33t-32.5 -16q-14 0 -21 10z " />
<glyph unicode="&#xfd;" horiz-adv-x="522" d="M50 -351q-8 35 -1 66t24.5 58t42 51t51.5 45t53.5 39t47.5 33l9 229q-10 -31 -24 -62t-33.5 -55.5t-45.5 -39.5t-59 -13q-28 2 -48 25.5t-27 50.5q-9 38 -9.5 76t1.5 75.5t4 73.5t-1 70q1 7 11 8.5t21 -0.5t18 -7.5t3 -12.5q-8 -59 -16 -120t-7.5 -110.5t14 -81 t49.5 -32.5q24 -1 46 16t41 45.5t35 66.5t28 80q10 34 18.5 68.5t15.5 65t13.5 55t12.5 39.5q2 6 8 7.5t11.5 0t9.5 -5.5t2 -10q-8 -22 -15 -65.5t-12.5 -90t-8.5 -86t-3 -53.5q-1 -15 -1.5 -44t-1 -58.5t-0.5 -52.5t1 -27q46 35 83.5 80t68 96.5t54 108t41.5 115.5 q1 2 3.5 0t4.5 -5.5t2.5 -7.5t-2.5 -7q-13 -30 -30 -78t-45.5 -103.5t-72 -111t-108.5 -100.5v-76t-5.5 -91.5t-18.5 -89t-38 -69.5q-21 -23 -54.5 -34.5t-66.5 -10t-59.5 17.5t-34.5 49zM63 -345q8 -29 27.5 -41t43 -10.5t46 13.5t36.5 30q18 24 27.5 60.5t14 76.5 t5.5 77.5t4 63.5q-34 -21 -73 -49.5t-71 -63t-50 -74t-10 -83.5zM146 496q-6 -11 -13.5 -11t-13 5.5t-7 14t6.5 14.5l91 112q8 10 17.5 4.5t3.5 -19.5z" />
<glyph unicode="&#xff;" horiz-adv-x="522" d="M50 -351q-8 35 -1 66t24.5 58t42 51t51.5 45t53.5 39t47.5 33l9 229q-10 -31 -24 -62t-33.5 -55.5t-45.5 -39.5t-59 -13q-28 2 -48 25.5t-27 50.5q-9 38 -9.5 76t1.5 75.5t4 73.5t-1 70q1 7 11 8.5t21 -0.5t18 -7.5t3 -12.5q-8 -59 -16 -120t-7.5 -110.5t14 -81 t49.5 -32.5q24 -1 46 16t41 45.5t35 66.5t28 80q10 34 18.5 68.5t15.5 65t13.5 55t12.5 39.5q2 6 8 7.5t11.5 0t9.5 -5.5t2 -10q-8 -22 -15 -65.5t-12.5 -90t-8.5 -86t-3 -53.5q-1 -15 -1.5 -44t-1 -58.5t-0.5 -52.5t1 -27q46 35 83.5 80t68 96.5t54 108t41.5 115.5 q1 2 3.5 0t4.5 -5.5t2.5 -7.5t-2.5 -7q-13 -30 -30 -78t-45.5 -103.5t-72 -111t-108.5 -100.5v-76t-5.5 -91.5t-18.5 -89t-38 -69.5q-21 -23 -54.5 -34.5t-66.5 -10t-59.5 17.5t-34.5 49zM63 -345q8 -29 27.5 -41t43 -10.5t46 13.5t36.5 30q18 24 27.5 60.5t14 76.5 t5.5 77.5t4 63.5q-34 -21 -73 -49.5t-71 -63t-50 -74t-10 -83.5zM95 500q-4 6 -2.5 16.5t7.5 20t16 17t24 7.5q11 0 16 -7t6 -15q1 -17 -13.5 -33t-32.5 -16q-14 0 -21 10zM204 500q-4 6 -2.5 16.5t7.5 20t16 17t24 7.5q11 0 16 -7t6 -15q1 -17 -13.5 -33t-32.5 -16 q-14 0 -21 10z" />
<glyph unicode="&#x131;" d="M39 347q2 17 6 33.5t10.5 28.5t14.5 17.5t19 1.5q13 -3 16 -23t0.5 -50t-8 -68t-10 -76.5t-5.5 -75t5.5 -63.5t22.5 -42.5t46 -12.5q21 0 42 21.5t41 55t38 74.5t33.5 80t26.5 70.5t18 47.5q2 4 4 -2t6 -6q-7 -31 -20.5 -70.5t-30 -80.5t-36.5 -80t-41.5 -68.5 t-43.5 -46.5t-43 -13q-53 -1 -79 30t-35 80.5t-5.5 112t8.5 125.5z" />
<glyph unicode="&#x152;" horiz-adv-x="1034" d="M1096 451q4 1 6 -2t3.5 -8t1.5 -10v-8q0 -43 -15.5 -95t-43 -105t-65 -102t-81.5 -87t-92 -60t-97 -20q-57 2 -100.5 31t-74.5 76q-27 -26 -60 -41.5t-74 -19.5q-91 -8 -156 16t-108.5 68.5t-69 103t-38 119.5t-13.5 117.5t3 97.5q5 45 17 96t33.5 101.5t53 97t75.5 82 t100.5 56.5t128.5 21q20 0 45 -4t50.5 -13t49.5 -23.5t42 -35.5q12 8 23 14q28 14 57.5 18t58.5 -2.5t55.5 -24t47.5 -45.5q25 12 41.5 9.5t26.5 -13t13.5 -25t2.5 -24.5q-1 -8 -4.5 -11.5t-6.5 -3.5t-5.5 3t-0.5 6q0 2 -0.5 13.5t-5.5 22t-16.5 15t-32.5 -7.5 q18 -33 24.5 -66.5t2 -58.5t-20 -38t-39.5 -6q-29 8 -39.5 31t-8 49.5t14 51t27.5 36.5q-18 22 -40.5 38.5t-47.5 24t-50 5t-48 -17.5q-39 -26 -55 -68.5t-13.5 -93t20 -104.5t46.5 -102q31 3 55 -2t30 -26q9 -33 -25 -41q-12 -2 -23.5 2t-21 11t-17.5 15l-14 14 q-33 -25 -51.5 -66t-23 -89.5t4.5 -99.5t31 -95.5t56.5 -78t80.5 -46.5q44 -13 89 0.5t86.5 44.5t77 76.5t62 97t41 106t14.5 103.5zM576 861q11 15 29 30q-17 20 -39 34.5t-46 23.5t-47.5 12.5t-43.5 3.5q-69 -2 -126 -44.5t-99 -108.5t-67.5 -146.5t-31.5 -158.5 q-4 -50 -0.5 -107.5t16 -114t34.5 -108t56 -89.5t80.5 -59t107.5 -16q42 2 73 19t57 43q-20 34 -33 72.5t-17 79.5q-10 105 24.5 182t110.5 107q-32 39 -51.5 83.5t-25 90.5t3.5 90t35 81zM843 826q-16 -15 -24.5 -37t-9 -43t7 -36.5t22.5 -17.5t21 12.5t5.5 36t-6.5 45 t-16 40.5zM652 503q8 -11 24 -22.5t27 -7.5q12 6 9 16q-2 7 -9.5 11t-17 5t-19 0t-14.5 -2zM614 879l-1 1l-7 -13z" />
<glyph unicode="&#x153;" horiz-adv-x="657" d="M7 221q-1 40 7 76.5t26 64t47.5 43.5t72.5 16q34 -1 72.5 -20t64.5 -48q14 42 47.5 66t82.5 24q23 0 43 -11.5t20 -40.5q0 -27 -15 -41t-36 -21t-45 -9t-42 -4q0 -2 -0.5 -10.5t-0.5 -10.5q0 -34 6.5 -75t23 -77t44.5 -60.5t71 -24.5q58 2 96 34.5t63 79t40.5 99 t27.5 94.5q1 2 4 1.5t5 -9.5q-5 -28 -14.5 -65.5t-25 -77t-36.5 -77.5t-49 -67t-63 -46t-78 -14q-46 2 -78.5 30.5t-54.5 70.5q-7 -22 -19 -42t-29.5 -35.5t-41.5 -25.5t-56 -11q-48 0 -82 21.5t-55.5 54.5t-32 72.5t-10.5 75.5zM112 379q-20 -30 -29.5 -74t-8 -90.5 t14 -89.5t37.5 -71q13 -14 31 -22.5t38.5 -9.5t42 7.5t39.5 27.5q17 19 26 42.5t13 49.5q-13 35 -19.5 70.5t-7.5 66.5q-46 5 -94.5 30t-82.5 63zM436 431q-18 0 -32.5 -8.5t-25 -22t-16 -30t-5.5 -32.5q14 0 33.5 -0.5t37.5 3.5t31 14.5t13 32.5q0 16 -9.5 29.5t-26.5 13.5 zM133 391q10 -14 28 -28.5t39 -26.5t44 -20.5t45 -10.5q1 6 1 11.5t1 10.5q-13 20 -34 37t-44 27t-44.5 11t-35.5 -11z" />
<glyph unicode="&#x178;" horiz-adv-x="739" d="M160 878q-30 2 -55 -13t-43.5 -40t-29 -55.5t-10.5 -58.5h2q7 2 13.5 -3.5t7.5 -13.5t-3.5 -14t-12.5 -7q-8 -2 -14 2t-8 12q-7 23 -4.5 49.5t13 53t27.5 51.5t38.5 45t46 33t49.5 16q26 3 43 -6.5t27.5 -27t14.5 -41t3 -49.5q-2 -73 -18.5 -147t-31.5 -147t-22 -144.5 t10 -140.5q7 -27 20 -41.5t30 -19t36 -1t37.5 12t34.5 19t27 21.5q24 24 45.5 53.5t39 59t31 55.5t21.5 43q3 38 5 78.5t5.5 81.5t9.5 81t18 77q16 51 37.5 77.5t51.5 30.5q16 2 25.5 -7t12.5 -26.5t0.5 -41.5t-8.5 -52q-5 -21 -14 -51t-21 -63t-26 -66.5t-30 -62.5 l-11 -255q78 42 130.5 74.5t81.5 55.5q3 2 3.5 0t0 -6t-2 -7.5t-3.5 -3.5q-35 -23 -84 -53t-125 -71q-1 -39 -2 -86t-6.5 -94.5t-17 -91.5t-33.5 -78t-57 -55t-87 -21q-45 -2 -78.5 11t-53.5 35.5t-26 52.5t3 63q8 28 27.5 56t52.5 54q45 35 102.5 70t117.5 67l5 198 q-10 -23 -24 -49.5t-30.5 -53t-36.5 -52t-42 -46.5q-30 -29 -69 -45.5t-76.5 -14.5t-68.5 24t-46 69q-16 50 -17.5 103t5 106t19 104.5t24.5 99.5t21 91t9 79q0 29 -11 43t-25 15zM373 -186q34 0 59.5 21t43.5 67t29.5 118t16.5 175q-60 -32 -116 -66.5t-102 -70.5 q-30 -24 -47.5 -51t-22.5 -53q-6 -28 0 -54.5t24 -46t47 -30.5t68 -9zM592 521q29 63 46.5 118.5t29.5 97.5q7 26 10 48t1 37.5t-8.5 22.5t-17.5 2q-9 -4 -17.5 -32t-16 -72.5t-14 -102t-13.5 -119.5zM377 937q-4 6 -2.5 16.5t7.5 20t16 17t24 7.5q11 0 16 -7t6 -15 q1 -17 -13.5 -33t-32.5 -16q-14 0 -21 10zM486 937q-4 6 -2.5 16.5t7.5 20t16 17t24 7.5q11 0 16 -7t6 -15q1 -17 -13.5 -33t-32.5 -16q-14 0 -21 10z" />
<glyph unicode="&#x2c6;" d="M57 496q-4 -9 -9 -11t-9.5 0t-7 6t-0.5 8l94 153q7 12 20.5 18.5t27.5 -6.5l104 -155q5 -7 -1 -15t-16 -12.5t-21 -3t-16 12.5l-86 145l-80 -140v0z" />
<glyph unicode="&#x2da;" horiz-adv-x="259" d="M83 608q19 6 44 7.5t49 -4t43 -18.5t26 -35q7 -20 -5 -35t-33.5 -24.5t-49.5 -13t-54.5 0t-47.5 14t-29 30.5q-6 15 -2.5 27.5t12.5 22t22 17t25 11.5zM231 549q-1 10 -15.5 17.5t-36 10.5t-46 2t-44.5 -7t-32.5 -17t-9.5 -27q1 -10 16 -16.5t36 -9.5t44.5 -2t43.5 7 t32.5 16t11.5 26z" />
<glyph unicode="&#x2dc;" horiz-adv-x="416" d="M143 607q-18 -2 -31 -9.5t-23.5 -20.5t-19.5 -30.5t-19 -38.5q-10 0 -11 8q9 24 20 45.5t26.5 38t37.5 26.5t53 10q27 -1 43 -20t29.5 -41t27.5 -40.5t36 -18.5q14 1 25 11t19.5 24t14 30t7.5 28q11 5 9 -6q-3 -14 -9.5 -35t-17.5 -39.5t-27 -31.5t-38 -12q-28 0 -46 19 t-33 42t-31.5 42t-41.5 19z" />
<glyph unicode="&#x2000;" horiz-adv-x="598" />
<glyph unicode="&#x2001;" horiz-adv-x="1197" />
<glyph unicode="&#x2002;" horiz-adv-x="598" />
<glyph unicode="&#x2003;" horiz-adv-x="1197" />
<glyph unicode="&#x2004;" horiz-adv-x="399" />
<glyph unicode="&#x2005;" horiz-adv-x="299" />
<glyph unicode="&#x2006;" horiz-adv-x="199" />
<glyph unicode="&#x2007;" horiz-adv-x="199" />
<glyph unicode="&#x2008;" horiz-adv-x="149" />
<glyph unicode="&#x2009;" horiz-adv-x="239" />
<glyph unicode="&#x200a;" horiz-adv-x="66" />
<glyph unicode="&#x2010;" horiz-adv-x="292" d="M106 293q-14 0 -12 8t13 8l152 8q7 0 11 -3.5t4.5 -8t-2.5 -8t-10 -4.5h-156v0z" />
<glyph unicode="&#x2011;" horiz-adv-x="292" d="M106 293q-14 0 -12 8t13 8l152 8q7 0 11 -3.5t4.5 -8t-2.5 -8t-10 -4.5h-156v0z" />
<glyph unicode="&#x2012;" horiz-adv-x="292" d="M106 293q-14 0 -12 8t13 8l152 8q7 0 11 -3.5t4.5 -8t-2.5 -8t-10 -4.5h-156v0z" />
<glyph unicode="&#x2013;" horiz-adv-x="292" d="M106 293q-14 0 -12 8t13 8l152 8q7 0 11 -3.5t4.5 -8t-2.5 -8t-10 -4.5h-156v0z" />
<glyph unicode="&#x2014;" horiz-adv-x="383" d="M106 293q-14 0 -12 8t13 8l230 8q7 0 11 -3.5t4.5 -8t-2.5 -8t-10 -4.5h-234v0z" />
<glyph unicode="&#x2018;" horiz-adv-x="118" d="M72 563q0 -8 6 -11.5t12.5 -8t12.5 -12.5t6 -25q0 -21 -11.5 -33.5t-33.5 -12.5q-27 0 -37 16t-10 41q0 38 20 58.5t48 15.5q-6 -8 -9.5 -13t-3.5 -15z" />
<glyph unicode="&#x2019;" horiz-adv-x="6" d="M-23 495q0 8 -6 11.5t-12.5 8t-12.5 12.5t-6 25q0 21 11.5 33.5t33.5 12.5q27 0 37 -16t10 -41q0 -38 -20 -58.5t-48 -15.5q6 8 9.5 13t3.5 15z" />
<glyph unicode="&#x201a;" horiz-adv-x="126" d="M56 -25q0 8 -6 11.5t-12.5 8t-12.5 12.5t-6 25q0 21 11.5 33.5t33.5 12.5q27 0 37 -16t10 -41q0 -38 -20 -58.5t-48 -15.5q6 8 9.5 13t3.5 15z" />
<glyph unicode="&#x201c;" horiz-adv-x="285" d="M214 590q0 -8 6 -11.5t12.5 -8t12.5 -12.5t6 -25q0 -21 -11.5 -33.5t-33.5 -12.5q-27 0 -37 16t-10 41q0 38 20 58.5t48 15.5q-6 -8 -9.5 -13t-3.5 -15zM98 572q0 -8 6 -11.5t12.5 -8t12.5 -12.5t6 -25q0 -21 -11.5 -33.5t-33.5 -12.5q-27 0 -37 16t-10 41q0 38 20 58.5 t48 15.5q-6 -8 -9.5 -13t-3.5 -15z" />
<glyph unicode="&#x201d;" horiz-adv-x="285" d="M80 504q0 8 -6 11.5t-12.5 8t-12.5 12.5t-6 25q0 21 11.5 33.5t33.5 12.5q27 0 37 -16t10 -41q0 -38 -20 -58.5t-48 -15.5q6 8 9.5 13t3.5 15zM196 522q0 8 -6 11.5t-12.5 8t-12.5 12.5t-6 25q0 21 11.5 33.5t33.5 12.5q27 0 37 -16t10 -41q0 -38 -20 -58.5t-48 -15.5 q6 8 9.5 13t3.5 15z" />
<glyph unicode="&#x201e;" horiz-adv-x="285" d="M71 5q0 8 -6 11.5t-12.5 8t-12.5 12.5t-6 25q0 21 11.5 33.5t33.5 12.5q27 0 37 -16t10 -41q0 -38 -20 -58.5t-48 -15.5q6 8 9.5 13t3.5 15zM187 23q0 8 -6 11.5t-12.5 8t-12.5 12.5t-6 25q0 21 11.5 33.5t33.5 12.5q27 0 37 -16t10 -41q0 -38 -20 -58.5t-48 -15.5 q6 8 9.5 13t3.5 15z" />
<glyph unicode="&#x2026;" horiz-adv-x="345" d="M29 11q-4 6 -2.5 16.5t7.5 20t16 17t24 7.5q11 0 16 -7t6 -15q1 -17 -13.5 -33t-32.5 -16q-14 0 -21 10zM144 11q-4 6 -2.5 16.5t7.5 20t16 17t24 7.5q11 0 16 -7t6 -15q1 -17 -13.5 -33t-32.5 -16q-14 0 -21 10zM259 11q-4 6 -2.5 16.5t7.5 20t16 17t24 7.5q11 0 16 -7 t6 -15q1 -17 -13.5 -33t-32.5 -16q-14 0 -21 10z" />
<glyph unicode="&#x202f;" horiz-adv-x="239" />
<glyph unicode="&#x205f;" horiz-adv-x="299" />
<glyph unicode="&#x20ac;" horiz-adv-x="646" d="M20 375q-14 0 -12 8t13 8l34 1q5 54 16.5 116t30.5 122.5t46.5 116.5t64.5 98.5t83.5 68t105.5 25.5q34 0 65.5 -10t57.5 -29t44.5 -45.5t27.5 -60.5q9 0 22 -2.5t26 -7.5t24.5 -13t16.5 -20q3 -7 -1.5 -11.5t-9.5 3.5q-7 16 -28.5 26.5t-47.5 8.5q1 -25 -2 -62 t-15 -71.5t-33.5 -59.5t-55.5 -25q-29 0 -41.5 15.5t-12.5 39t11 52t30 54.5t44.5 46t54.5 27q-7 30 -22.5 52t-37 36t-48 20.5t-54.5 6.5q-49 0 -89 -24.5t-70.5 -65t-53.5 -93.5t-38.5 -110t-25 -114.5t-13.5 -106.5l305 13q7 0 11 -5.5t4.5 -12t-2.5 -12t-10 -6.5l-310 2 q-1 -16 -1.5 -30.5t-0.5 -27.5l307 13q7 0 11 -5.5t4.5 -12t-2.5 -12t-10 -6.5l-310 2q1 -35 6 -74t16 -76.5t28.5 -71t43 -58.5t59 -39t77.5 -11q31 2 67 24.5t72.5 57.5t71.5 78.5t64.5 86.5t51 82t30.5 66q2 6 3.5 1.5t1.5 -14t-2.5 -20.5t-8.5 -17q-13 -27 -34.5 -63.5 t-49.5 -76t-61.5 -79t-70.5 -71.5t-76 -53.5t-78 -24.5q-56 -5 -99 10t-74.5 43t-52.5 65.5t-33.5 78.5t-18 81.5t-5.5 75.5h-33q-14 0 -12 8t13 8l32 1q0 29 3 62h-34zM489 574q20 -2 38 12t31 40.5t20 64.5t5 85q-17 0 -36 -14.5t-35.5 -36.5t-29 -48t-17 -48t0.5 -38 t23 -17z" />
<glyph unicode="&#x25fc;" horiz-adv-x="530" d="M0 530h530v-530h-530v530z" />
</font>
</defs>
</svg>
